<?xml version="1.0" encoding="utf-8"?>
<!-- Generator: Adobe Illustrator 24.0.2, SVG Export Plug-In . SVG Version: 6.00 Build 0)  -->
<svg version="1.1" id="Layer_1" xmlns="http://www.w3.org/2000/svg" xmlns:xlink="http://www.w3.org/1999/xlink" x="0px" y="0px"
	 viewBox="0 0 3225 2000" style="enable-background:new 0 0 3225 2000;" xml:space="preserve">
<style type="text/css">
	.st0{opacity:0.1;fill:#2DAAE1;}
	.st1{opacity:0.4;fill:#2DAAE1;}
	.st2{fill:#258D8C;}
	.st3{fill:#7FC6A6;}
	.st4{fill:#FE9F73;}
	.st5{fill:#F2A5B7;}
	.st6{fill:#3F9896;}
	.st7{fill:#FECC86;}
	.st8{fill:#F07162;}
	.st9{fill:#FBFDFC;}
	.st10{fill:#FEBAC7;}
	.st11{fill:#49263E;}
	.st12{fill:#61A3C5;}
	.st13{fill:#FD7583;}
	.st14{fill:#2DAAE1;}
	.st15{fill:#277EA4;}
	.st16{opacity:0.5;fill:#2DAAE1;}
	.st17{fill:#FFFFFF;}
</style>
<g>
	<path class="st0" d="M359.31,1845.06c0,0-213.38-99.45-216.3-336.21c-2.92-236.77,144.69-479.38,336.15-580.22
		c191.46-100.84,359.53-168.07,436.99-267.46c77.46-99.38,255.76-258.69,381.46-258.69s223.61,33.61,299.61-23.38
		c76-57,470.42-292.7,708.65-275.17s501.71,59.39,669.78,328.31s122.87,724.38-17.44,991.84
		c-140.3,267.46-258.69,420.98-258.69,420.98H359.31z"/>
	<polygon class="st1" points="2459.29,400.3 2596.67,431.81 1599.19,1310.09 1244.04,1022.9 511.84,1848.71 654.45,1848.71 
		1241.85,1189.52 1607.96,1470.13 2684.36,518.68 2731.13,642.91 2814.44,306.76 	"/>
	<path class="st2" d="M1558.58,1438.39c0,0,99.49-172.29,158.76-70.29c0,0,110.27-198.48,199.86-128.19
		c89.59,70.3-46.86,434.18-46.86,434.18s147.48-141.97,99.24,68.92c0,0,62.03-47.02,102-31.78c39.97,15.24,5.51,133.84,5.51,133.84
		h-436.94L1558.58,1438.39z"/>
	<path class="st3" d="M576.88,1710.54c0,0,267.46-257.23,312.76-97.92c0,0,61.38-52.61,78.92-17.54c0,0,146.15-323,324.46-317.15
		c0,0,62.85,1.46,38,168.07c-24.85,166.61,5.81,355.15,5.81,355.15s-173.89,42.38-179.73,43.85
		c-5.85,1.46-461.84-21.92-466.22-21.92C686.49,1823.07,576.88,1710.54,576.88,1710.54z"/>
	<g>
		<path class="st4" d="M659.77,1193.13c-13.02,5.26-70.49,115.62-70.49,115.62l32.06,18.02l72.23-90.16
			C693.57,1236.61,672.79,1187.88,659.77,1193.13z"/>
	</g>
	<g>
		<g>
			<path class="st4" d="M567.55,1344.7c1.31,1.35,3.48,1.36,4.91,0.14l8.9-7.59c0.28-0.24,0.68-0.27,0.99-0.08l0,0
				c0.46,0.28,0.56,0.91,0.2,1.31l-11.54,12.84c-1.32,1.47-1.01,3.5,0.69,4.51l0,0c1.7,1.01,4.17,0.63,5.5-0.84l11.76-13.1
				c0.27-0.3,0.72-0.37,1.07-0.17l0.25,0.15c0.41,0.24,0.54,0.77,0.3,1.17l-9.96,16.79c-0.96,1.62-0.58,3.75,0.97,4.81
				c1.7,1.16,4,0.63,5.03-1.11l10.03-16.9c0.24-0.41,0.77-0.54,1.17-0.3l0.79,0.47c0.37,0.22,0.52,0.68,0.35,1.08l-7.2,16.78
				c-0.74,1.73-0.08,3.79,1.59,4.64c1.84,0.93,4.05,0.11,4.84-1.75c0,0,12.35-24.99,14.6-28.74l4.32,9.24
				c0.48,1.89,2.4,3.03,4.29,2.54l0,0c1.89-0.48,3.03-2.4,2.55-4.29l-3.02-22.51c-0.31-1.23-2.5-2.53-4.5-3.16
				c-17.04-11.96-19.76-13.66-24.66-16.46l-10.7,19.51c-3.09,5.63-7.17,10.65-12.06,14.81l-1.23,1.05
				C566.25,1340.87,566.12,1343.23,567.55,1344.7z"/>
		</g>
	</g>
	<g>
		<polygon class="st4" points="693.57,1500.96 700.69,1677.08 747.19,1677.08 767.19,1500.96 		"/>
	</g>
	<g>
		<path class="st4" d="M616.66,1435.93l-21.34,19l-116.08,34.97l-14.31,7.24l2.28,28.99l15.3,11.71c0,0,150.88-21.7,158.92-27.91
			c8.04-6.21,23.46-25.77,23.46-25.77s27.04-40.56,24.85-48.23c-2.19-7.67-24.48-23.06-26.31-23.04
			C661.6,1412.91,616.66,1435.93,616.66,1435.93z"/>
	</g>
	<g>
		<path class="st5" d="M654.29,1190.94c0,0,9.87,30.14,36.17,37.82l49.25-112.2c0,0-25.13-3.81-49.25,28.71
			C666.35,1177.79,654.29,1190.94,654.29,1190.94z"/>
	</g>
	<g>
		<path class="st6" d="M787.47,1342.76c0,0-8.77,145.79-15.35,183.6c0,0-49.33,12.61-146.33-49.33l20.83-34.53l-32.88,23.57
			l-17.54-30.99c0,0,37.27-52.87,44.94-61.09c0,0-2.74-34.53,17.54-62.48c0,0,72.89-13.15,74.54-13.15
			C734.85,1298.36,787.47,1342.76,787.47,1342.76z"/>
	</g>
	<g>
		<path class="st4" d="M812.2,1196.54c0,0,54.12,3.73,67.49-0.55c13.37-4.27,77.16-104.9,77.16-104.9l-30.63-20.36l-65.15,73.4
			l-53.66-0.79L812.2,1196.54z"/>
	</g>
	<g>
		<g>
			<path class="st4" d="M981.2,1056.86c-1.21-1.44-3.37-1.62-4.88-0.51l-9.44,6.9c-0.3,0.22-0.7,0.22-1,0.01l0,0
				c-0.44-0.31-0.49-0.95-0.1-1.32l12.46-11.95c1.43-1.37,1.27-3.42-0.35-4.55l0,0c-1.62-1.13-4.12-0.94-5.54,0.43l-12.71,12.19
				c-0.29,0.28-0.75,0.32-1.08,0.08l-0.24-0.17c-0.39-0.27-0.48-0.81-0.21-1.19l11.19-16.01c1.08-1.54,0.85-3.7-0.61-4.87
				c-1.61-1.29-3.94-0.93-5.1,0.73l-11.26,16.11c-0.27,0.39-0.81,0.48-1.19,0.21l-0.75-0.53c-0.35-0.25-0.47-0.72-0.27-1.1
				l8.43-16.2c0.87-1.67,0.37-3.78-1.24-4.75c-1.76-1.07-4.03-0.41-4.96,1.39c0,0-14.17,24.01-16.69,27.58l-3.62-9.53
				c-0.34-1.92-2.17-3.2-4.09-2.86l0,0c-1.92,0.34-3.2,2.17-2.86,4.09l1.34,22.67c0.22,1.25,2.3,2.71,4.25,3.49
				c16.1,13.19,18.69,15.09,23.36,18.25l12.12-18.66c3.5-5.38,7.95-10.08,13.13-13.88l1.3-0.95
				C982.21,1060.78,982.52,1058.44,981.2,1056.86z"/>
		</g>
	</g>
	<g>
		<path class="st7" d="M780.61,1058.15c0,0,0.13,43.12-6.18,44.27s10.37,35.67,24.43,9.32c4.93-9.23-1.97-51.1-17.44-61.47
			C765.96,1039.9,780.61,1058.15,780.61,1058.15z"/>
	</g>
	<g>
		<g>
			<path class="st4" d="M781.69,1047.2c0,0,10.45,39.55,6,47.32c0,0-2.14,4.1-8.4,5.02l3.2,23.58H753.7l-8.64-67.12
				c0,0,6.2-17.55,6.29-16.86C751.44,1039.82,781.69,1047.2,781.69,1047.2z"/>
		</g>
	</g>
	<g>
		<g>
			<path class="st8" d="M777.31,1081.69c-0.12,0.02-0.24-0.05-0.28-0.17c-0.05-0.13,0.02-0.28,0.16-0.33
				c1.61-0.57,2.39-2.74,2.6-3.44c-2.51-0.95-4.15-2.4-4.88-4.3c-1.19-3.1,0.46-6.26,0.54-6.39c0.07-0.13,0.22-0.17,0.35-0.11
				c0.13,0.07,0.17,0.22,0.11,0.35c-0.02,0.03-1.62,3.08-0.51,5.96c0.7,1.81,2.31,3.18,4.8,4.08l0.22,0.08l-0.06,0.23
				c-0.03,0.13-0.82,3.26-2.99,4.03C777.35,1081.69,777.33,1081.69,777.31,1081.69z"/>
		</g>
	</g>
	<g>
		<g>
			<path class="st8" d="M780.33,1107.56l-1.03-8.03c0,0-13.67,0.95-22.68-3.23C756.62,1096.31,769.32,1105.72,780.33,1107.56z"/>
		</g>
	</g>
	<g>
		<g>
			<path class="st7" d="M759.84,1070.19c-0.13,0.02-0.26-0.01-0.37-0.1c-0.23-0.17-0.28-0.49-0.11-0.72
				c0.06-0.08,5.77-7.65,12.41-3.58c0.24,0.15,0.32,0.47,0.17,0.71c-0.15,0.24-0.47,0.32-0.71,0.17
				c-5.83-3.57-10.82,3.03-11.03,3.31C760.11,1070.1,759.98,1070.17,759.84,1070.19z"/>
		</g>
	</g>
	<g>
		<g>
			<path class="st7" d="M777.54,1066.77c-0.14,0.02-0.29-0.02-0.41-0.13c-0.21-0.19-0.23-0.52-0.04-0.73
				c0.17-0.19,4.24-4.69,7.45-2.58c0.24,0.16,0.31,0.48,0.15,0.72c-0.16,0.24-0.48,0.31-0.72,0.15c-2.47-1.62-6.08,2.36-6.11,2.4
				C777.77,1066.7,777.66,1066.76,777.54,1066.77z"/>
		</g>
	</g>
	<g>
		<g>
			<path d="M770.48,1071.73c0.1,0.79-0.46,1.51-1.25,1.61c-0.79,0.1-1.51-0.46-1.61-1.25c-0.1-0.79,0.46-1.51,1.25-1.61
				C769.65,1070.38,770.37,1070.94,770.48,1071.73z"/>
		</g>
	</g>
	<g>
		<g>
			<path d="M783.92,1070c0.1,0.79-0.46,1.51-1.25,1.61c-0.79,0.1-1.51-0.46-1.61-1.25c-0.1-0.79,0.46-1.51,1.25-1.61
				C783.1,1068.65,783.82,1069.21,783.92,1070z"/>
		</g>
	</g>
	<g>
		<g>
			<path class="st9" d="M766.09,1082.46c0.16,0.02,9.86,2.81,9.86,2.81s-2.46,3.6-6.06,2.57
				C766.27,1086.81,766.09,1082.46,766.09,1082.46z"/>
		</g>
	</g>
	<g>
		<g>
			<g>
				<path class="st4" d="M753.87,1080.08c0.57,4.43-2.56,8.48-6.98,9.05c-4.43,0.57-8.48-2.56-9.05-6.98
					c-0.57-4.43,2.56-8.48,6.98-9.05S753.3,1075.66,753.87,1080.08z"/>
			</g>
		</g>
		<g>
			<g>
				<path class="st8" d="M745.9,1086.13c-1.68,0.22-2.97-0.9-3.5-2.12c-0.63-1.44-0.31-2.96,0.8-3.87c1.59-1.3,3.24-0.87,4.17-0.44
					c-0.45-0.81-1.06-1.37-1.81-1.66c-1.68-0.66-3.54,0.22-3.56,0.23c-0.13,0.06-0.28,0.01-0.35-0.12
					c-0.06-0.13-0.01-0.28,0.12-0.35c0.08-0.04,2.08-0.99,3.97-0.24c1.09,0.43,1.91,1.33,2.44,2.68l0.34,0.86l-0.74-0.56
					c-0.09-0.07-2.21-1.66-4.26,0.01c-1.13,0.92-1.06,2.33-0.66,3.26c0.43,0.97,1.46,2.02,3,1.81c0.14-0.02,0.27,0.08,0.29,0.22
					c0.02,0.14-0.08,0.27-0.22,0.29C745.93,1086.13,745.91,1086.13,745.9,1086.13z"/>
			</g>
		</g>
	</g>
	<g>
		<path class="st4" d="M769.46,1049.39l-8-8.79c0,0,11.88,5.67,10.99,6.06C771.57,1047.05,769.46,1049.39,769.46,1049.39z"/>
	</g>
	<g>
		<path class="st7" d="M748.23,1047.22c0,0,3.69,14.77,39.97,13.69c0,0,5.81-23.15-21.13-27.59c-26.94-4.44-27.02,15.84-26.52,15.6
			C741.07,1048.68,748.23,1047.22,748.23,1047.22z"/>
	</g>
	<g>
		<path class="st10" d="M658.67,1311.52l54.26-170.45c0,0,11.51-28.5,36.72-24.66c25.21,3.84,86.05,16.44,86.05,16.44
			s-0.55,45.49-10.41,69.61c0,0-18.27,0-27.77-1.83c0,0-2.19,136.65-3.29,146.15C794.23,1346.78,715.31,1355.91,658.67,1311.52z"/>
	</g>
	<g>
		<g>
			<path class="st10" d="M714.96,1698.18l64.48-1.02c0.58-0.09,1.06-0.2,1.4-0.31c6.04-1.96,4-5.78,4-5.78l-36.54-23.82l-16.65,7.53
				c0,0-27.3,4.56-31.21-3.18l0.55,20.25C701,1691.84,699.01,1698.33,714.96,1698.18z"/>
		</g>
	</g>
	<g>
		<g>
			<path class="st10" d="M452.33,1503.81l-0.43,64.49c0.08,0.58,0.17,1.06,0.28,1.41c1.82,6.08,5.69,4.13,5.69,4.13l24.64-36
				l-7.16-16.82c0,0-3.95-27.39,3.88-31.13l-20.25,0.1C458.98,1489.99,452.53,1487.86,452.33,1503.81z"/>
		</g>
	</g>
	<g>
		<path class="st8" d="M606.56,1476.78c-0.51,0-1-0.28-1.26-0.76l-10.37-19.87c-0.36-0.69-0.09-1.55,0.6-1.91
			c0.69-0.36,1.55-0.09,1.91,0.6l10.37,19.87c0.36,0.69,0.09,1.55-0.6,1.91C607,1476.73,606.78,1476.78,606.56,1476.78z"/>
	</g>
	<g>
		<path d="M825.85,1203.3l-0.57,0c-43.42-0.19-69.23-11.83-69.48-11.95c-0.43-0.2-0.61-0.7-0.42-1.13c0.2-0.43,0.7-0.61,1.13-0.42
			c0.25,0.12,25.52,11.5,68.2,11.79c1.44-3.82,9.98-28.1,10.14-68.06l-27.6-5.59c-0.46-0.09-0.76-0.54-0.66-1
			c0.09-0.46,0.54-0.76,1-0.66l28.96,5.87l0,0.7c-0.08,44.23-10.37,69.68-10.48,69.93L825.85,1203.3z"/>
	</g>
	<g>
		<path d="M759.41,1201.66c-0.39,0-0.75-0.27-0.83-0.67c-0.1-0.46,0.2-0.91,0.66-1l17.68-3.7c0.45-0.09,0.91,0.2,1,0.66
			c0.1,0.46-0.2,0.91-0.66,1l-17.68,3.7C759.53,1201.66,759.47,1201.66,759.41,1201.66z"/>
	</g>
	<g>
		<path d="M794.23,1347.62c-0.01,0-0.01,0-0.02,0c-0.47-0.01-0.84-0.4-0.83-0.87l3.29-146.15c0.01-0.47,0.41-0.85,0.87-0.83
			c0.47,0.01,0.84,0.4,0.83,0.87l-3.29,146.15C795.07,1347.26,794.69,1347.62,794.23,1347.62z"/>
	</g>
	<g>
		<path d="M677.05,1254.64c-0.09,0-0.17-0.01-0.26-0.04c-0.45-0.14-0.69-0.62-0.55-1.07l34.4-108.07
			c5.04-15.83,11.13-17.73,11.39-17.81c0.45-0.13,0.92,0.13,1.05,0.58c0.13,0.45-0.13,0.91-0.57,1.05c-0.12,0.04-5.57,2-10.25,16.69
			l-34.4,108.07C677.74,1254.41,677.41,1254.64,677.05,1254.64z"/>
	</g>
	<g>
		<path d="M672.83,1219.7c-0.22,0-0.43-0.08-0.6-0.25c-0.72-0.72-17.56-17.65-18.78-28.42l-0.04-0.35l0.22-0.28l43.66-54.64
			c0.29-0.37,0.83-0.43,1.19-0.13s0.43,0.83,0.13,1.19l-43.44,54.36c1.49,10.21,18.08,26.89,18.25,27.06c0.33,0.33,0.33,0.87,0,1.2
			C673.27,1219.62,673.05,1219.7,672.83,1219.7z"/>
	</g>
	<g>
		<path d="M644.87,1386.91c-0.36,0-0.7-0.23-0.81-0.6l-3.77-12.27c-2.08-37.16,17.52-62.79,17.72-63.05
			c0.29-0.37,0.82-0.44,1.19-0.15c0.37,0.29,0.44,0.82,0.15,1.19c-0.19,0.25-19.37,25.36-17.37,61.81l3.7,11.96
			c0.14,0.45-0.11,0.92-0.56,1.06C645.03,1386.9,644.95,1386.91,644.87,1386.91z"/>
	</g>
	<g>
		<path d="M596.19,1435.93c-0.17,0-0.35-0.05-0.5-0.17c-0.38-0.28-0.46-0.81-0.18-1.19l44.94-61.09c0.28-0.38,0.81-0.46,1.19-0.18
			c0.38,0.28,0.46,0.81,0.18,1.19l-44.94,61.09C596.71,1435.81,596.45,1435.93,596.19,1435.93z"/>
	</g>
	<g>
		<path d="M758.39,1528.52c-25.5,0-56.37-11.4-79.48-21.94c-29.73-13.57-53.35-28.68-53.58-28.83l-0.69-0.45l21.25-35.23
			c0.24-0.4,0.76-0.53,1.17-0.29c0.4,0.24,0.53,0.76,0.29,1.17l-20.4,33.82c4.11,2.59,25.91,16.06,52.69,28.28
			c27.27,12.44,65.42,26.1,92.31,20.49c0.46-0.1,0.91,0.2,1,0.66s-0.2,0.91-0.66,1C767.92,1528.1,763.25,1528.52,758.39,1528.52z"/>
	</g>
	<g>
		<g>
			<path d="M819.86,1152.24c-0.29,0-0.58-0.15-0.74-0.43l-4.83-8.44c-0.23-0.41-0.09-0.93,0.31-1.16c0.41-0.23,0.93-0.09,1.16,0.31
				l4.83,8.44c0.23,0.41,0.09,0.93-0.31,1.16C820.15,1152.21,820,1152.24,819.86,1152.24z"/>
		</g>
		<g>
			<path d="M819.45,1157.17c-0.28,0-0.56-0.14-0.72-0.4l-5.4-8.54c-0.25-0.4-0.13-0.92,0.26-1.17c0.4-0.25,0.92-0.13,1.17,0.26
				l5.4,8.54c0.25,0.4,0.13,0.92-0.26,1.17C819.76,1157.13,819.61,1157.17,819.45,1157.17z"/>
		</g>
	</g>
	<g>
		<g>
			<path d="M666.83,1351.39c-0.29,0-0.58-0.15-0.74-0.43l-4.83-8.44c-0.23-0.41-0.09-0.93,0.31-1.16c0.41-0.23,0.93-0.09,1.16,0.31
				l4.83,8.44c0.23,0.41,0.09,0.93-0.31,1.16C667.12,1351.36,666.98,1351.39,666.83,1351.39z"/>
		</g>
		<g>
			<path d="M666.42,1356.32c-0.28,0-0.56-0.14-0.72-0.4l-5.4-8.54c-0.25-0.4-0.13-0.92,0.26-1.17c0.4-0.25,0.92-0.13,1.17,0.26
				l5.4,8.54c0.25,0.4,0.13,0.92-0.26,1.17C666.74,1356.28,666.58,1356.32,666.42,1356.32z"/>
		</g>
	</g>
	<g>
		<path class="st7" d="M754.62,1055.01c0,0-0.12,4.68-2.38,12.15c0,0,28.27,46.91-10.8,66.65l-4.33,0.43
			c-21.43,2.15-25.62-29.7-4.34-33.01c0.25-0.04,0.5-0.08,0.75-0.11c0.42-0.05,0.34-1.27,0.52-0.89c0.47,0.96-8.86-11.84-11.3-36.46
			c-1.53-15.41,15.36-33.17,28.59-25.19C764.55,1046.57,754.62,1055.01,754.62,1055.01z"/>
	</g>
	<g>
		<path d="M780.39,1057.82c-15.54,0-24.86-9.05-25.27-9.46c-0.33-0.33-0.33-0.87,0-1.2c0.33-0.33,0.87-0.33,1.2-0.01
			c0.1,0.1,10.54,10.21,27.25,8.84c0.46-0.03,0.88,0.31,0.92,0.78c0.04,0.47-0.31,0.88-0.78,0.92
			C782.57,1057.78,781.46,1057.82,780.39,1057.82z"/>
	</g>
	<g>
		<g>
			<g>
				<polygon class="st4" points="2236.45,990.97 2277,994.65 2282.58,981 2282.48,937.97 2235.38,940.35 				"/>
			</g>
		</g>
		<g>
			<g>
				<path class="st11" d="M2268.53,1007.83l-64.49,0.11c-0.58-0.08-1.06-0.18-1.41-0.28c-6.08-1.85-4.1-5.71-4.1-5.71l30.85-19.22
					l0.58-2.8c0.94-4.5,6.49-6.1,10.65-3.07l10.82,7.87c0,0,27.38,4.08,31.14-3.73l-0.2,20.25
					C2282.38,1001.25,2284.48,1007.71,2268.53,1007.83z"/>
			</g>
		</g>
	</g>
	<g>
		<g>
			<g>
				<polygon class="st4" points="2637.07,893.85 2654.43,878.98 2640.61,848.56 2637.26,846.65 2595.22,837.49 2587.41,883.99 				
					"/>
			</g>
		</g>
		<g>
			<g>
				<path class="st11" d="M2660.44,866.15l-13.78,63c-0.21,0.55-0.4,1-0.58,1.31c-3.12,5.54-6.46,2.77-6.46,2.77l-12.13-34.27
					l-2.61-1.17c-4.19-1.88-4.56-7.65-0.71-11.06l10.02-8.87c0,0,9.88-25.85,3.06-31.22l19.74,4.55
					C2657,851.2,2663.75,850.54,2660.44,866.15z"/>
			</g>
		</g>
	</g>
	<g>
		<path class="st12" d="M2278.88,627.54l-19.98,32.29l-43.46,70.22c0,0-15.55,30.24-9.86,63.03
			c5.69,32.79,24.25,154.15,24.25,154.15s36.6,3.01,59.18-1.03c0,0-2.8-139.55-2.7-154.35c0.11-14.8,65.76-116.26,70.05-121.27
			l33.91,121.1c0,0,17.04,65.48,48.89,68.76c31.85,3.28,151.87,32.98,151.87,32.98s14.63-41.37,10.93-64.87l-111.3-32.59
			c0,0-28.01-128.33-38.53-165.96c-10.52-37.64-99.79-32.79-99.79-32.79L2278.88,627.54z"/>
	</g>
	<g>
		<path d="M2454.52,672.84c-16.57,0-26.83-8.9-32.73-16.99c-7.33-10.05-9.59-20.73-9.69-21.18c-0.09-0.46,0.2-0.91,0.66-1
			c0.45-0.1,0.91,0.2,1,0.66c0.02,0.11,2.29,10.81,9.43,20.57c9.5,12.99,22.67,18.24,39.16,15.6c0.47-0.07,0.9,0.24,0.97,0.7
			c0.07,0.46-0.24,0.9-0.7,0.97C2459.77,672.63,2457.07,672.84,2454.52,672.84z"/>
	</g>
	<g>
		<path class="st4" d="M2470.67,451.33c0,0,47.38,28.96,56.34,39.76c8.96,10.81,8.47,129.95,8.47,129.95l-36.77,0.64l-15.33-96.94
			l-45.63-28.25L2470.67,451.33z"/>
	</g>
	<g>
		<g>
			<path class="st4" d="M2537.53,663c-1.79,0.57-3.71-0.45-4.39-2.2l-4.23-10.9c-0.13-0.34-0.47-0.56-0.83-0.55l0,0
				c-0.54,0.02-0.92,0.53-0.8,1.06l4.06,16.78c0.46,1.92-0.77,3.56-2.75,3.64l0,0c-1.98,0.08-3.97-1.43-4.44-3.35l-4.14-17.11
				c-0.1-0.4-0.46-0.67-0.87-0.65l-0.29,0.01c-0.47,0.02-0.84,0.42-0.82,0.89l0.8,19.51c0.08,1.88-1.27,3.57-3.14,3.77
				c-2.05,0.22-3.82-1.34-3.9-3.36l-0.8-19.63c-0.02-0.47-0.42-0.84-0.89-0.82l-0.92,0.04c-0.43,0.02-0.78,0.35-0.82,0.78
				l-1.63,18.18c-0.17,1.87-1.73,3.38-3.6,3.33c-2.06-0.05-3.61-1.82-3.43-3.84c0,0,1-27.86,0.8-32.23l-8.19,6.08
				c-1.32,1.43-3.55,1.52-4.98,0.2l0,0c-1.43-1.32-1.52-3.55-0.2-4.98l13.35-18.38c0.86-0.93,3.4-1.05,5.46-0.65
				c20.67-2.43,23.88-2.64,29.51-2.78l0.16,22.25c0.04,6.42,1.26,12.78,3.58,18.76l0.58,1.5
				C2540.49,660.25,2539.49,662.38,2537.53,663z"/>
		</g>
	</g>
	<g>
		<path class="st4" d="M2258.26,585.85c0,0-17.79,51.25-26.96,61.87c-9.17,10.63-126.75,29.87-126.75,29.87l-6.72-36.16l93.06-31.17
			l20.31-49.67L2258.26,585.85z"/>
	</g>
	<g>
		<g>
			<path class="st4" d="M2063.5,686.56c-0.85-1.67-0.17-3.73,1.45-4.69l10.05-5.97c0.31-0.19,0.48-0.55,0.4-0.91l0,0
				c-0.11-0.53-0.68-0.82-1.17-0.61l-15.88,6.78c-1.82,0.78-3.64-0.17-4.05-2.11l0,0c-0.41-1.94,0.75-4.16,2.57-4.93l16.19-6.91
				c0.38-0.16,0.59-0.56,0.5-0.96l-0.06-0.28c-0.1-0.46-0.55-0.76-1.01-0.66l-19.11,4.02c-1.84,0.39-3.74-0.66-4.24-2.47
				c-0.55-1.98,0.69-3.99,2.67-4.41l19.23-4.04c0.46-0.1,0.76-0.55,0.66-1.01l-0.19-0.9c-0.09-0.42-0.47-0.71-0.9-0.68l-18.2,1.4
				c-1.87,0.14-3.62-1.14-3.88-3c-0.29-2.04,1.2-3.87,3.22-4.02c0,0,27.64-3.63,31.92-4.55l-7.35-7.07
				c-1.63-1.07-2.09-3.25-1.03-4.88l0,0c1.07-1.63,3.25-2.09,4.88-1.03l20.33,10.12c1.06,0.69,1.59,3.18,1.54,5.28
				c5.82,19.99,6.55,23.11,7.63,28.65l-21.92,3.84c-6.32,1.11-12.39,3.36-17.91,6.64l-1.39,0.82
				C2066.71,689.03,2064.44,688.39,2063.5,686.56z"/>
		</g>
	</g>
	<g>
		<path class="st13" d="M2238.05,455.22l60.79-33.1c23.02-12.53,49-18.79,75.18-17.64c9.46,0.42,19.22,1.8,28.4,4.75
			c36.75,11.78,79.71,44.65,79.71,44.65s-25.55,43.57-39.33,49.66l-41.33-12.67c0,0,49.19,85.98,50.67,139.13
			c0,0-72.9,31.42-173.26-2.45c0,0-11.71-39.32-13.33-48.06l-1.95,13.68c0,0-48.8-4.26-64.89-19.09c0,0,16.52-84.54,19.33-92.91
			C2221.86,469.75,2231.8,458.4,2238.05,455.22z"/>
	</g>
	<g>
		<path class="st8" d="M2210.21,623.15c-0.24,0-0.49-0.06-0.71-0.19l-19.37-11.27c-0.67-0.39-0.9-1.26-0.51-1.93
			c0.39-0.68,1.26-0.9,1.93-0.51l19.37,11.27c0.67,0.39,0.9,1.26,0.51,1.93C2211.17,622.9,2210.69,623.15,2210.21,623.15z"/>
	</g>
	<g>
		<path d="M2342.66,642.51c-0.04,0-0.08,0-0.12-0.01c-38.41-5.21-63.69-14.08-63.94-14.17l-0.42-0.15l-0.12-0.43
			c-0.23-0.84-22.74-84.68-28.38-103.42c-7.55-25.06,2.18-43.67,2.28-43.85c0.22-0.41,0.73-0.57,1.15-0.35
			c0.41,0.22,0.57,0.73,0.35,1.15c-0.1,0.18-9.49,18.21-2.15,42.56c5.44,18.06,26.51,96.44,28.28,103.03
			c3.44,1.17,27.65,9.12,63.18,13.94c0.46,0.06,0.79,0.49,0.73,0.96C2343.44,642.21,2343.08,642.51,2342.66,642.51z"/>
	</g>
	<g>
		<path d="M2263.61,594c-0.03,0-0.06,0-0.1,0c-56.2-6.31-65.15-18.93-65.51-19.46l-0.2-0.29l0.07-0.35l18.29-89.05
			c0.04-0.19,4.2-18.07,20.08-29.56c0.38-0.28,0.91-0.19,1.19,0.19c0.28,0.38,0.19,0.91-0.19,1.19
			c-15.34,11.1-19.37,28.37-19.41,28.55l-18.21,88.64c1.6,1.78,13.34,12.77,64.08,18.47c0.47,0.05,0.8,0.47,0.75,0.94
			C2264.4,593.68,2264.03,594,2263.61,594z"/>
	</g>
	<g>
		<path d="M2263.61,594c-0.04,0-0.08,0-0.12-0.01c-0.46-0.06-0.79-0.49-0.73-0.96l2.01-14.69c0.06-0.46,0.48-0.79,0.96-0.73
			c0.46,0.06,0.79,0.49,0.73,0.96l-2.01,14.69C2264.39,593.69,2264.02,594,2263.61,594z"/>
	</g>
	<g>
		<path d="M2442.97,504.47l-67.03-20.54c-0.45-0.14-0.7-0.61-0.56-1.06c0.14-0.45,0.61-0.7,1.06-0.56l66.2,20.29
			c2.64-2.08,20.44-16.8,38.76-49.13c0.23-0.41,0.75-0.55,1.16-0.32c0.41,0.23,0.55,0.75,0.32,1.16
			c-19.95,35.2-39.37,49.78-39.56,49.92L2442.97,504.47z"/>
	</g>
	<g>
		<path d="M2429.47,549.07c-0.33,0-0.64-0.19-0.78-0.5c-0.2-0.45-20.14-45.16-28.2-57.32c-0.26-0.39-0.15-0.92,0.24-1.18
			c0.39-0.26,0.92-0.15,1.18,0.24c8.14,12.28,27.52,55.72,28.34,57.57c0.19,0.43,0,0.93-0.43,1.12
			C2429.7,549.05,2429.59,549.07,2429.47,549.07z"/>
	</g>
	<g>
		<path d="M2386.59,779.35c-0.37,0-0.71-0.25-0.82-0.62l-30.19-107.83l-9.92-19.13c-0.22-0.42-0.05-0.93,0.36-1.14
			c0.42-0.22,0.93-0.05,1.14,0.36l10,19.29l0.02,0.08l30.22,107.91c0.13,0.45-0.14,0.92-0.59,1.05
			C2386.75,779.34,2386.67,779.35,2386.59,779.35z"/>
	</g>
	<g>
		<path d="M2275.39,790.86c-0.46,0-0.84-0.37-0.85-0.83c-0.01-0.47,0.37-0.86,0.83-0.86c8.38-0.15,10.76-1.67,11.14-1.97
			l21.57-41.75c0.22-0.42,0.73-0.58,1.14-0.36c0.42,0.22,0.58,0.73,0.37,1.14l-21.68,41.97l-0.06,0.07
			c-0.34,0.4-2.52,2.42-12.45,2.6C2275.4,790.86,2275.4,790.86,2275.39,790.86z"/>
	</g>
	<g>
		<path d="M2281.38,795.51c-0.33,0-0.64-0.19-0.78-0.51c-0.19-0.43,0.01-0.93,0.43-1.12c4.71-2.07,5.32-6.23,5.33-6.27
			c0.06-0.46,0.49-0.79,0.96-0.73c0.46,0.06,0.79,0.49,0.73,0.96c-0.03,0.21-0.76,5.15-6.33,7.6
			C2281.61,795.49,2281.49,795.51,2281.38,795.51z"/>
	</g>
	<g>
		<path d="M2254.8,949.57c-2.22,0-4.33-0.06-6.24-0.19c-0.47-0.03-0.82-0.44-0.79-0.9c0.03-0.47,0.44-0.82,0.91-0.79
			c13.01,0.89,35.13-1.7,39.48-2.23l-2.5-155.62c-0.01-0.47,0.37-0.85,0.83-0.86c0.47-0.02,0.85,0.37,0.86,0.84l2.53,157.14
			l-0.75,0.1C2288.91,947.07,2269.46,949.57,2254.8,949.57z"/>
	</g>
	<g>
		<path d="M2257.91,940.75c-16.68,0-30.57-1.99-30.8-2.02c-0.46-0.07-0.79-0.5-0.72-0.96c0.07-0.46,0.5-0.78,0.96-0.72
			c0.35,0.05,35.82,5.13,61.31-1.06c0.45-0.11,0.91,0.17,1.03,0.62c0.11,0.46-0.17,0.91-0.63,1.03
			C2279.3,940.01,2268.09,940.75,2257.91,940.75z"/>
	</g>
	<g>
		<path d="M2481.69,805.65c-0.29,0-0.57-0.15-0.73-0.41c-0.24-0.4-0.11-0.92,0.29-1.16c5.18-3.11,7.88-7.2,8.52-8.26l-15.65-70.33
			c-0.1-0.46,0.19-0.91,0.64-1.01c0.46-0.1,0.91,0.19,1.01,0.64l15.79,70.96l-0.15,0.28c-0.11,0.22-2.9,5.34-9.29,9.18
			C2481.99,805.61,2481.84,805.65,2481.69,805.65z"/>
	</g>
	<g>
		<path d="M2597.76,871.22c-0.08,0-0.15-0.01-0.23-0.03c-0.45-0.13-0.71-0.59-0.59-1.05c4.17-15.03,4.22-37,4.19-40.96
			l-109.59-32.09c-0.05,1.64-0.38,4.88-1.96,9.33c-0.16,0.44-0.64,0.67-1.08,0.52c-0.44-0.16-0.67-0.64-0.52-1.08
			c2.16-6.08,1.85-9.79,1.85-9.82l-0.11-1.24l1.2,0.35l111.89,32.76l0.01,0.62c0,0.25,0.4,25.33-4.25,42.07
			C2598.47,870.97,2598.13,871.22,2597.76,871.22z"/>
	</g>
	<g>
		<path d="M2580.74,892.64c-0.06,0-0.13-0.01-0.19-0.02c-0.46-0.11-0.74-0.56-0.63-1.02c0.1-0.45,10.43-45.16,9.61-66.42
			c-0.02-0.47,0.35-0.86,0.82-0.88c0.47-0.02,0.86,0.35,0.88,0.82c0.83,21.48-9.55,66.42-9.65,66.87
			C2581.47,892.38,2581.12,892.64,2580.74,892.64z"/>
	</g>
	<g>
		<path d="M2269.27,663.7c-6.28,0-10.63-3.01-10.86-3.18c-0.38-0.27-0.47-0.8-0.2-1.18c0.27-0.38,0.8-0.47,1.18-0.2l0,0
			c0.07,0.05,6.76,4.65,15.21,2.06c9-2.76,16.66-12.31,22.77-28.37c0.17-0.44,0.66-0.66,1.09-0.49c0.44,0.17,0.66,0.66,0.49,1.09
			c-6.3,16.6-14.34,26.49-23.89,29.4C2273.01,663.45,2271.06,663.7,2269.27,663.7z"/>
	</g>
	<g>
		<g>
			<path d="M2259.82,461.76c-0.13,0-0.26-0.03-0.39-0.09c-0.42-0.21-0.58-0.73-0.37-1.14l4.44-8.65c0.21-0.42,0.73-0.58,1.14-0.37
				c0.42,0.21,0.58,0.73,0.37,1.14l-4.44,8.65C2260.42,461.6,2260.13,461.76,2259.82,461.76z"/>
		</g>
		<g>
			<path d="M2255.46,464.1c-0.12,0-0.24-0.02-0.35-0.08c-0.43-0.2-0.61-0.7-0.42-1.13l4.22-9.18c0.2-0.43,0.7-0.61,1.13-0.42
				c0.43,0.2,0.61,0.7,0.42,1.13l-4.22,9.18C2256.09,463.92,2255.79,464.1,2255.46,464.1z"/>
		</g>
	</g>
	<g>
		<g>
			<path d="M2440.88,621.35c-0.04,0-0.08,0-0.11-0.01c-0.46-0.06-0.79-0.49-0.73-0.95l1.29-9.64c0.06-0.46,0.49-0.79,0.95-0.73
				c0.46,0.06,0.79,0.49,0.73,0.95l-1.29,9.64C2441.66,621.04,2441.3,621.35,2440.88,621.35z"/>
		</g>
		<g>
			<path d="M2437.56,625.01c-0.03,0-0.05,0-0.08,0c-0.47-0.04-0.81-0.45-0.77-0.92l0.91-10.06c0.04-0.47,0.46-0.81,0.92-0.77
				c0.47,0.04,0.81,0.45,0.77,0.92l-0.91,10.06C2438.36,624.68,2437.99,625.01,2437.56,625.01z"/>
		</g>
	</g>
	<g>
		<g>
			<g>
				<path class="st4" d="M2248.89,384.27l11.09,31.72c0,0,3.31,10.88,13.03,8.98l2.3,10.45c2.13,9.7,12.21,15.44,21.62,12.26
					c0.1-0.04,0.21-0.07,0.32-0.11c10.58-3.7,13.5-13.74,12.97-18.07c-0.52-4.33-9.89-22.61-9.89-22.61l-2.98-9.55l-14-36.15
					L2248.89,384.27z"/>
			</g>
		</g>
		<g>
			<g>
				<path class="st11" d="M2279.98,391.19c0.11-0.04,0.21-0.12,0.26-0.23c0.12-0.23,0.02-0.52-0.21-0.64
					c-0.08-0.04-8.34-4.21-12.3,2.25c-0.14,0.22-0.07,0.51,0.15,0.65c0.22,0.14,0.51,0.07,0.64-0.15
					c3.51-5.72,10.78-2.07,11.08-1.91C2279.73,391.23,2279.87,391.23,2279.98,391.19z"/>
			</g>
		</g>
		<g>
			<g>
				<path class="st11" d="M2260.87,394.87c0.12-0.04,0.23-0.14,0.28-0.27c0.09-0.24-0.02-0.52-0.26-0.61
					c-0.23-0.09-5.71-2.27-7.56,0.97c-0.13,0.23-0.05,0.51,0.17,0.65c0.22,0.13,0.51,0.06,0.64-0.17c1.45-2.54,6.36-0.59,6.41-0.57
					C2260.66,394.9,2260.77,394.9,2260.87,394.87z"/>
			</g>
		</g>
		<g>
			<g>
				<path d="M2271.7,396.12c0.26,0.74,1.06,1.13,1.79,0.88c0.73-0.26,1.11-1.06,0.85-1.8c-0.26-0.74-1.06-1.13-1.79-0.88
					S2271.44,395.38,2271.7,396.12z"/>
			</g>
		</g>
		<g>
			<g>
				<path d="M2257.17,399.69c0.26,0.74,1.06,1.13,1.79,0.88c0.73-0.26,1.11-1.06,0.85-1.8c-0.26-0.74-1.06-1.13-1.79-0.88
					C2257.3,398.14,2256.92,398.95,2257.17,399.69z"/>
			</g>
		</g>
		<g>
			<g>
				<path class="st8" d="M2270.2,406.79c0.09-0.03,0.16-0.12,0.16-0.23c0-0.13-0.11-0.24-0.24-0.23l-4.94,0.06l-2.29-11.03
					c-0.03-0.13-0.15-0.21-0.28-0.18c-0.13,0.02-0.21,0.15-0.18,0.28l2.37,11.41l5.32-0.07
					C2270.15,406.8,2270.17,406.79,2270.2,406.79z"/>
			</g>
		</g>
		<g>
			<g>
				<path class="st9" d="M2275.47,409.57c-0.16,0.03-9.4,3.29-9.4,3.29s2.61,3.41,6.05,2.2
					C2275.55,413.85,2275.47,409.57,2275.47,409.57z"/>
			</g>
		</g>
		<g>
			<g>
				<path class="st11" d="M2282.75,363.37l-3.67,13.17c0,0-25.42,12.27-40.53,5.86c-15.11-6.41-9.67-17.9-3.06-19.43
					c6.61-1.53,12.92,0.18,15.46-5.45c2.54-5.63,7.55-7.95,14.97-6.53c7.42,1.42,16.87,5.06,16.91,7.79
					C2282.87,361.51,2282.75,363.37,2282.75,363.37z"/>
			</g>
		</g>
		<g>
			<g>
				<path class="st11" d="M2280.74,359.06c0,0,10-4.06,16.32,4.88c6.31,8.93,4.31,15.47,5.25,18.46c0.94,2.99,9.9,22.25-4.45,25.6
					l-15.26-31.65l0.22-14.8L2280.74,359.06z"/>
			</g>
		</g>
		<g>
			<g>
				<path class="st4" d="M2282.46,391.83c1.55,4.44,6.37,6.8,10.75,5.27c4.38-1.53,6.67-6.38,5.12-10.82
					c-1.55-4.44-6.36-6.8-10.75-5.27C2283.2,382.55,2280.9,387.39,2282.46,391.83z"/>
			</g>
		</g>
		<g>
			<g>
				<path class="st8" d="M2292.7,393.78c1.65-0.58,2.31-2.22,2.23-3.6c-0.09-1.63-1.09-2.9-2.54-3.24
					c-2.14-0.49-3.49,0.78-4.11,1.61c0.02-1.03,0.33-1.88,0.91-2.54c1.26-1.42,3.42-1.46,3.44-1.46c0.13,0,0.23-0.11,0.23-0.24
					c0-0.13-0.11-0.23-0.24-0.23c-0.1,0-2.38,0.04-3.78,1.61c-0.81,0.91-1.14,2.13-1,3.64l0.08,0.85l0.36-0.76
					c0.05-0.11,1.29-2.63,4.01-2.01c1.51,0.34,2.11,1.72,2.17,2.8c0.06,1.12-0.41,2.6-1.92,3.13c-0.01,0-0.03,0.01-0.04,0.02
					c-0.12,0.04-0.18,0.17-0.14,0.3c0.04,0.12,0.17,0.19,0.3,0.15C2292.67,393.79,2292.69,393.78,2292.7,393.78z"/>
			</g>
		</g>
		<g>
			<g>
				<path class="st8" d="M2291.29,408.35c0,0,4.84,14.44-16.67,23.89l-1.6-7.28C2273.02,424.96,2288.38,422.87,2291.29,408.35z"/>
			</g>
		</g>
	</g>
	<g>
		<path d="M2305.87,454.12c-0.31,0-0.62-0.18-0.76-0.48c-0.21-0.42-0.03-0.93,0.39-1.14c15.08-7.37,7.88-29.39,7.8-29.61
			c-0.15-0.44,0.09-0.93,0.53-1.07c0.44-0.15,0.93,0.09,1.08,0.53c0.08,0.24,7.76,23.65-8.67,31.68
			C2306.12,454.09,2305.99,454.12,2305.87,454.12z"/>
	</g>
	<g>
		<path class="st8" d="M2483,526.16c-0.47,0-0.93-0.23-1.2-0.66c-0.42-0.66-0.22-1.53,0.44-1.95l18.97-11.93
			c0.66-0.42,1.53-0.22,1.95,0.44c0.42,0.66,0.22,1.53-0.44,1.95l-18.97,11.94C2483.52,526.09,2483.26,526.16,2483,526.16z"/>
	</g>
	<g>
		<path class="st4" d="M1491.75,904.01c0,0-33.98,28.47-39.46,31.39c-12.39,6.61-130.85,37.78-130.85,37.78l-8.27-35.83l91.64-35.14
			l54.88-36.36L1491.75,904.01z"/>
	</g>
	<g>
		<g>
			<path class="st4" d="M1280.82,983.91c-0.92-1.64-0.33-3.72,1.24-4.75l9.78-6.4c0.31-0.2,0.45-0.57,0.36-0.93l0,0
				c-0.13-0.52-0.71-0.79-1.2-0.56l-15.57,7.45c-1.78,0.85-3.64-0.02-4.13-1.93l0,0c-0.49-1.92,0.57-4.18,2.35-5.04l15.88-7.6
				c0.37-0.18,0.56-0.59,0.46-0.98l-0.07-0.28c-0.12-0.46-0.58-0.73-1.04-0.62l-18.92,4.83c-1.82,0.47-3.76-0.5-4.34-2.29
				c-0.64-1.96,0.52-4.02,2.48-4.52l19.04-4.86c0.46-0.12,0.74-0.58,0.62-1.04l-0.23-0.89c-0.11-0.42-0.51-0.69-0.93-0.64
				l-18.12,2.18c-1.87,0.22-3.66-0.99-4.01-2.83c-0.38-2.02,1.03-3.91,3.04-4.16c0,0,27.46-4.81,31.69-5.91l-7.65-6.75
				c-1.68-0.99-2.23-3.16-1.23-4.83l0,0c0.99-1.68,3.16-2.23,4.83-1.23l20.75,9.24c1.09,0.65,1.73,3.11,1.77,5.21
				c6.68,19.72,7.54,22.81,8.85,28.29l-21.73,4.78c-6.27,1.38-12.24,3.89-17.61,7.4l-1.35,0.88
				C1284.13,986.24,1281.83,985.7,1280.82,983.91z"/>
		</g>
	</g>
	<g>
		<path class="st4" d="M1727.23,870.91c0,0,50.8,19.03,64.83,18.76c14.03-0.28,103.92-78.48,103.92-78.48l-23.53-28.26l-83.41,51.72
			l-51.2-16.09L1727.23,870.91z"/>
	</g>
	<g>
		<g>
			<path class="st4" d="M1929.09,785.33c-0.74-1.73-2.76-2.51-4.53-1.88l-11.01,3.92c-0.34,0.12-0.73,0.01-0.96-0.27l0,0
				c-0.34-0.42-0.2-1.05,0.28-1.29l15.36-7.89c1.76-0.9,2.19-2.91,0.96-4.46l0,0c-1.23-1.55-3.68-2.08-5.43-1.17l-15.66,8.05
				c-0.36,0.19-0.81,0.09-1.06-0.23l-0.18-0.23c-0.29-0.37-0.23-0.91,0.14-1.2l15.29-12.14c1.47-1.17,1.87-3.3,0.8-4.84
				c-1.17-1.69-3.51-2.02-5.1-0.76l-15.39,12.22c-0.37,0.29-0.91,0.23-1.2-0.14l-0.57-0.72c-0.27-0.34-0.24-0.82,0.06-1.13
				l12.7-13.11c1.31-1.35,1.43-3.51,0.17-4.91c-1.38-1.52-3.74-1.54-5.15-0.09c0,0-20.44,18.96-23.88,21.66l-0.75-10.17
				c0.22-1.94-1.17-3.68-3.1-3.91l0,0c-1.94-0.22-3.68,1.17-3.91,3.1l-5.2,22.11c-0.15,1.26,1.43,3.26,3.08,4.56
				c11.66,17.24,13.6,19.8,17.18,24.16l16.95-14.41c4.89-4.16,10.5-7.39,16.55-9.55l1.52-0.54
				C1928.94,789.38,1929.9,787.22,1929.09,785.33z"/>
		</g>
	</g>
	<g>
		<path class="st8" d="M1785.53,858.26c-0.08,0-0.16-0.01-0.23-0.02c-0.77-0.13-1.29-0.86-1.16-1.63l3.7-22.1
			c0.13-0.77,0.86-1.29,1.63-1.16c0.77,0.13,1.29,0.86,1.16,1.63l-3.7,22.1C1786.81,857.77,1786.21,858.26,1785.53,858.26z"/>
	</g>
	<g>
		<g>
			<g>
				<polygon class="st4" points="1445.54,1370.11 1495.14,1371.04 1511.32,1328.33 1460.01,1318.51 				"/>
			</g>
		</g>
		<g>
			<g>
				<path class="st11" d="M1483.56,1386.51h-63.92c-0.58-0.09-1.06-0.18-1.4-0.29c-6.07-1.9-4.2-5.84-4.2-5.84l30.11-19.6l0.51-2.86
					c0.82-4.59,6.28-6.22,10.48-3.12l10.92,8.07c0,0,28.99,0.11,33.25-2.79l-2.17,19.73
					C1497.13,1379.81,1499.37,1386.41,1483.56,1386.51z"/>
			</g>
		</g>
	</g>
	<g>
		<g>
			<g>
				<polygon class="st4" points="1823.26,1304.25 1772.03,1303.12 1765.83,1257.31 1816.23,1253.06 				"/>
			</g>
		</g>
		<g>
			<g>
				<path class="st11" d="M1783.8,1318.74l66.02,2.63c0.6-0.06,1.09-0.14,1.45-0.23c6.29-1.61,4.41-5.54,4.41-5.54l-30.86-20.42
					l-0.49-2.82c-0.79-4.53-6.41-6.35-10.78-3.48l-11.38,7.45c0,0-28.18,3.01-31.74-4.94l-0.57,20.25
					C1769.87,1311.62,1767.47,1317.99,1783.8,1318.74z"/>
			</g>
		</g>
	</g>
	<g>
		<path class="st3" d="M1524.63,1011.77c0,0-50.42,176.29-72.35,309.48c0,0,26.86,13.7,63.03,11.51l98.84-259.24
			c0,0,86.96,28.5,116.92,31.42l27.77,160.77c0,0,53.35,2.19,63.58-4.38c0,0-13.88-191.46-19.73-205.34
			c-5.85-13.88-118.63-66.86-118.63-66.86L1524.63,1011.77z"/>
	</g>
	<g>
		<path d="M1714.21,1013c-15.61,0-34.13-14.01-35.12-14.78c-0.37-0.28-0.44-0.82-0.16-1.19c0.28-0.37,0.82-0.44,1.19-0.16
			c0.3,0.23,30.3,22.94,45.08,10.84c0.36-0.3,0.9-0.24,1.19,0.12c0.3,0.36,0.24,0.9-0.12,1.19
			C1722.79,1011.88,1718.61,1013,1714.21,1013z"/>
	</g>
	<g>
		<path d="M1521.65,1051.81c-5.04,0-8.45-1.35-8.68-1.45c-0.43-0.18-0.64-0.67-0.46-1.11c0.18-0.43,0.67-0.64,1.11-0.46
			c0.13,0.05,9.15,3.59,19.42-1.25c10.21-4.8,18.13-15.91,23.54-33.02c0.14-0.45,0.62-0.7,1.06-0.55c0.45,0.14,0.69,0.62,0.55,1.07
			c-5.57,17.6-13.8,29.06-24.48,34.06C1529.27,1051.18,1525.08,1051.81,1521.65,1051.81z"/>
	</g>
	<g>
		<path class="st12" d="M1594.42,789.25c0,0-43.11,3.65-58.46,7.31s-95,65.77-95,65.77s13.52,46.77,43.85,56.63l42.02-40.56
			l-2.19,133.36c0,0,98.29,25.21,169.54-17.9l-8.4-136.29l43.85,20.83c0,0,23.38-38,20.46-62.48c0,0-62.84-25.94-80.38-26.67
			C1652.15,788.52,1594.42,789.25,1594.42,789.25z"/>
	</g>
	<g>
		<path d="M1594.17,1019.76c-36.03,0-69.31-7.07-69.72-7.16l-0.68-0.15l0.01-0.7l2.16-131.32l-40.91,39.49l-0.49-0.16
			c-15.93-5.18-27.16-20.49-33.77-32.41c-7.13-12.86-10.59-24.68-10.62-24.79l-0.16-0.55l0.45-0.35
			c3.26-2.54,79.97-62.27,95.32-65.92l0.06-0.01l21.47-3.45c0.46-0.07,0.9,0.24,0.97,0.7c0.07,0.46-0.24,0.9-0.7,0.97l-21.44,3.45
			c-14.46,3.5-87.65,60.17-94.18,65.25c1.63,5.22,15.17,46,42.64,55.35l43.12-41.62l-2.21,134.71c6.14,1.25,52.38,10.23,93.17,5.72
			c0.47-0.05,0.88,0.28,0.94,0.75c0.05,0.47-0.28,0.89-0.75,0.94C1610.72,1019.39,1602.37,1019.76,1594.17,1019.76z"/>
	</g>
	<g>
		<path d="M1526.82,879.26c-0.23,0-0.46-0.09-0.63-0.28c-0.32-0.35-0.29-0.88,0.05-1.2l7.91-7.23c0.35-0.32,0.88-0.29,1.2,0.05
			c0.32,0.35,0.29,0.88-0.05,1.2l-7.91,7.23C1527.23,879.18,1527.03,879.26,1526.82,879.26z"/>
	</g>
	<g>
		<path d="M1602.61,820.35c-19.85,0-21.49-25.52-21.5-25.78c-0.03-0.47,0.33-0.87,0.8-0.89c0.47-0.03,0.87,0.33,0.89,0.8
			c0,0.06,0.38,6.35,3.14,12.45c3.62,8.01,9.46,11.96,17.33,11.72c0.48-0.01,0.86,0.35,0.87,0.82c0.01,0.47-0.35,0.86-0.82,0.87
			C1603.09,820.35,1602.85,820.35,1602.61,820.35z"/>
	</g>
	<g>
		<path d="M1689.26,915.14c-0.44,0-0.82-0.35-0.85-0.8c-2.29-37.04-6.57-92-6.61-92.55c-0.04-0.47,0.31-0.88,0.78-0.91
			c0.48-0.04,0.88,0.31,0.91,0.78c0.04,0.55,4.33,55.52,6.61,92.57c0.03,0.47-0.33,0.87-0.79,0.9
			C1689.29,915.14,1689.28,915.14,1689.26,915.14z"/>
	</g>
	<g>
		<path d="M1729.96,879.51l-44.56-21.16c-0.42-0.2-0.6-0.71-0.4-1.13c0.2-0.42,0.71-0.6,1.13-0.4l43.13,20.49
			c1.9-3.41,10.36-18.85,15.06-31.79c0.16-0.44,0.65-0.67,1.09-0.51c0.44,0.16,0.67,0.65,0.51,1.09
			c-5.34,14.71-15.46,32.56-15.57,32.74L1729.96,879.51z"/>
	</g>
	<g>
		<g>
			<path d="M1693.85,857.7c-0.3,0-0.6-0.16-0.75-0.45l-4.59-8.57c-0.22-0.41-0.07-0.93,0.35-1.15c0.41-0.22,0.93-0.07,1.15,0.35
				l4.59,8.57c0.22,0.41,0.07,0.93-0.35,1.15C1694.13,857.66,1693.99,857.7,1693.85,857.7z"/>
		</g>
		<g>
			<path d="M1698.25,859.96c-0.32,0-0.62-0.18-0.77-0.48l-4.38-9.1c-0.2-0.42-0.03-0.93,0.4-1.13c0.42-0.2,0.93-0.03,1.13,0.4
				l4.38,9.1c0.2,0.42,0.03,0.93-0.4,1.13C1698.5,859.93,1698.37,859.96,1698.25,859.96z"/>
		</g>
	</g>
	<g>
		<g>
			<path d="M1544.68,998.4c-0.29,0-0.58-0.15-0.74-0.43l-4.83-8.44c-0.23-0.41-0.09-0.93,0.31-1.16c0.41-0.23,0.93-0.09,1.16,0.31
				l4.83,8.44c0.23,0.41,0.09,0.93-0.31,1.16C1544.97,998.37,1544.83,998.4,1544.68,998.4z"/>
		</g>
		<g>
			<path d="M1544.27,1003.33c-0.28,0-0.56-0.14-0.72-0.4l-5.4-8.54c-0.25-0.4-0.13-0.92,0.26-1.17c0.4-0.25,0.92-0.13,1.17,0.26
				l5.4,8.54c0.25,0.4,0.13,0.92-0.26,1.17C1544.59,1003.29,1544.43,1003.33,1544.27,1003.33z"/>
		</g>
	</g>
	<g>
		<path d="M1595.64,1122.91c-0.1,0-0.21-0.02-0.31-0.06c-0.44-0.17-0.65-0.67-0.48-1.1l26.31-66.4v-25.6c0-0.47,0.38-0.85,0.85-0.85
			s0.85,0.38,0.85,0.85v25.92l-26.43,66.71C1596.3,1122.71,1595.98,1122.91,1595.64,1122.91z"/>
	</g>
	<g>
		<path d="M1464.48,1326.96c-0.07,0-0.14-0.01-0.22-0.03c-0.45-0.12-0.72-0.58-0.61-1.04l19.94-76.04c0.12-0.45,0.58-0.72,1.04-0.61
			c0.45,0.12,0.72,0.58,0.61,1.04l-19.94,76.04C1465.21,1326.71,1464.86,1326.96,1464.48,1326.96z"/>
	</g>
	<g>
		<path d="M1771.46,1266.78c-0.41,0-0.77-0.3-0.84-0.72l-12.49-82.18c-0.07-0.46,0.25-0.9,0.71-0.97c0.46-0.07,0.9,0.25,0.97,0.71
			l12.49,82.18c0.07,0.46-0.25,0.9-0.71,0.97C1771.55,1266.78,1771.5,1266.78,1771.46,1266.78z"/>
	</g>
	<g>
		<g>
			<g>
				<path class="st4" d="M1581.57,731.1v34.25c0,0-0.48,11.58,9.65,13.03l-1.89,15.45c-0.7,5.74,2.73,11.24,8.25,12.99
					c2.7,0.85,5.92,1.48,9.57,1.48c11.58,0,17.85-8.68,18.81-13.03c0.96-4.34-1.93-25.09-1.93-25.09l0.35-10.19l-1.32-39.5
					L1581.57,731.1z"/>
			</g>
		</g>
		<g>
			<g>
				<path class="st11" d="M1609.52,748.22c0.12,0,0.24-0.04,0.33-0.13c0.19-0.18,0.2-0.49,0.01-0.68c-0.07-0.07-6.7-6.86-12.77-1.97
					c-0.21,0.17-0.24,0.47-0.07,0.68c0.17,0.21,0.47,0.24,0.68,0.07c5.37-4.33,11.22,1.63,11.46,1.89
					C1609.27,748.17,1609.4,748.22,1609.52,748.22z"/>
			</g>
		</g>
		<g>
			<g>
				<path class="st11" d="M1589.64,745.33c0.13,0,0.27-0.06,0.36-0.17c0.17-0.2,0.15-0.51-0.05-0.68c-0.19-0.17-4.8-4.1-7.71-1.61
					c-0.2,0.17-0.23,0.48-0.05,0.68c0.17,0.2,0.48,0.23,0.68,0.05c2.28-1.95,6.4,1.57,6.45,1.61
					C1589.41,745.29,1589.52,745.33,1589.64,745.33z"/>
			</g>
		</g>
		<g>
			<g>
				<path d="M1599.77,750.17c0,0.8,0.65,1.45,1.45,1.45s1.45-0.65,1.45-1.45c0-0.8-0.65-1.45-1.45-1.45
					S1599.77,749.37,1599.77,750.17z"/>
			</g>
		</g>
		<g>
			<g>
				<path d="M1584.38,748.73c0,0.8,0.65,1.45,1.45,1.45c0.8,0,1.45-0.65,1.45-1.45c0-0.8-0.65-1.45-1.45-1.45
					C1585.03,747.28,1584.38,747.93,1584.38,748.73z"/>
			</g>
		</g>
		<g>
			<g>
				<path class="st11" d="M1621.71,722.39l-8.08,11.44c0,0-24.47,9.5-37.01-1.75c-12.54-11.26-8.68-16.66-5.01-22.3
					c1.81-2.78,10.47-8.43,21.08-3.72c5.79,2.57,10.08-5.1,16.83-1.24c6.75,3.86,14.72,10.54,13.83,13.19
					C1622.46,720.64,1621.71,722.39,1621.71,722.39z"/>
			</g>
		</g>
		<g>
			<g>
				<path class="st11" d="M1621.22,717.56c0,0,11.14-0.54,14.25,10.18c3.11,10.72-1.07,16.34-1.18,19.53
					c-0.11,3.2,2.06,24.74-13.07,23.14l-4.09-35.59l5.27-14.17L1621.22,717.56z"/>
			</g>
		</g>
		<g>
			<g>
				<path class="st4" d="M1611.72,749.67c0,4.8,3.89,8.68,8.68,8.68c4.79,0,8.68-3.89,8.68-8.68c0-4.8-3.89-8.68-8.68-8.68
					C1615.61,740.99,1611.72,744.88,1611.72,749.67z"/>
			</g>
		</g>
		<g>
			<g>
				<path class="st8" d="M1621.05,754.99c1.8,0,3.01-1.36,3.41-2.71c0.47-1.6-0.07-3.16-1.37-3.97c-1.92-1.19-3.67-0.43-4.56,0.16
					c0.37-0.99,0.96-1.7,1.75-2.14c1.71-0.94,3.83-0.26,3.85-0.25c0.13,0.04,0.26-0.03,0.31-0.15c0.04-0.13-0.03-0.26-0.15-0.3
					c-0.09-0.03-2.34-0.76-4.24,0.28c-1.1,0.6-1.84,1.67-2.22,3.16l-0.21,0.84l0.61-0.61c0.09-0.09,2.15-2.09,4.59-0.58
					c1.35,0.84,1.47,2.37,1.16,3.42c-0.32,1.09-1.28,2.36-2.94,2.36c-0.02,0-0.03,0-0.05,0c-0.13,0-0.24,0.11-0.24,0.24
					c0,0.13,0.1,0.24,0.24,0.24C1621.01,754.99,1621.03,754.99,1621.05,754.99z"/>
			</g>
		</g>
		<g>
			<g>
				<path class="st8" d="M1614.7,768.54c0,0-0.68,19.38-24.88,21.23l1.4-11.39C1591.22,778.38,1606.91,781.53,1614.7,768.54z"/>
			</g>
		</g>
		<g>
			<path class="st11" d="M1579.89,759.9c0,0-3.15,23.2,12.25,24.02c22.04,1.18,24.17-11.4,25.48-21.69l0.22-21.24l-0.71-6.16l0,0
				c-1.56,1.76-2.51,3.97-2.72,6.31c-0.46,5.09-1.59,18.82-2.86,19.42C1609.76,761.42,1583.32,757.67,1579.89,759.9z"/>
		</g>
		<g>
			<g>
				<path class="st8" d="M1594.66,759.94c0.1,0,0.2-0.06,0.23-0.17c0.04-0.13-0.03-0.26-0.15-0.3l-4.84-1.6l1.53-11.38
					c0.02-0.13-0.07-0.25-0.21-0.27c-0.13-0.02-0.25,0.08-0.27,0.21l-1.58,11.78l5.22,1.72
					C1594.61,759.93,1594.64,759.94,1594.66,759.94z"/>
			</g>
		</g>
		<g>
			<g>
				<path class="st9" d="M1598.41,764.63c-0.15-0.03-9.55-0.25-9.55-0.25s1.18,3.89,4.68,3.98
					C1597.02,768.46,1598.41,764.63,1598.41,764.63z"/>
			</g>
		</g>
	</g>
	<rect x="417.3" y="1695.99" class="st14" width="622.6" height="149.07"/>
	<rect x="933.58" y="1695.99" class="st15" width="106.33" height="149.07"/>
	<rect x="1202.13" y="1383.59" class="st14" width="622.61" height="461.47"/>
	<rect x="2024.96" y="1006.52" class="st14" width="622.61" height="838.54"/>
	<rect x="1718.41" y="1383.59" class="st15" width="106.33" height="461.47"/>
	<rect x="2541.24" y="1006.52" class="st15" width="106.33" height="838.54"/>
	<path d="M417.3,1845.91c-0.47,0-0.85-0.38-0.85-0.85v-149.92h576.97c0.47,0,0.85,0.38,0.85,0.85s-0.38,0.85-0.85,0.85H418.15
		v148.23C418.15,1845.53,417.77,1845.91,417.3,1845.91z"/>
	<path d="M933.58,1797.66c-0.47,0-0.85-0.38-0.85-0.85v-100.82c0-0.47,0.38-0.85,0.85-0.85c0.47,0,0.85,0.38,0.85,0.85v100.82
		C934.43,1797.28,934.05,1797.66,933.58,1797.66z"/>
	<g>
		<path d="M470.28,1755.78c-0.29,0-0.58-0.15-0.74-0.43l-15.3-26.7c-0.23-0.41-0.09-0.93,0.31-1.16c0.41-0.23,0.93-0.09,1.16,0.31
			l15.3,26.7c0.23,0.41,0.09,0.92-0.31,1.16C470.57,1755.75,470.43,1755.78,470.28,1755.78z"/>
	</g>
	<g>
		<path d="M468.99,1771.37c-0.28,0-0.56-0.14-0.72-0.4l-17.09-27.04c-0.25-0.4-0.13-0.92,0.26-1.17c0.4-0.25,0.92-0.13,1.17,0.26
			l17.09,27.04c0.25,0.4,0.13,0.92-0.26,1.17C469.3,1771.33,469.14,1771.37,468.99,1771.37z"/>
	</g>
	<g>
		<path d="M983.36,1780.06c-0.45,0-0.82-0.35-0.85-0.8l-1.67-30.73c-0.03-0.47,0.33-0.87,0.8-0.89c0.45-0.04,0.87,0.33,0.89,0.8
			l1.67,30.73c0.03,0.47-0.33,0.87-0.8,0.89C983.39,1780.06,983.37,1780.06,983.36,1780.06z"/>
	</g>
	<g>
		<path d="M975.19,1793.41c-0.43,0-0.8-0.33-0.84-0.77l-3.12-31.83c-0.05-0.47,0.3-0.88,0.76-0.93c0.46-0.05,0.88,0.29,0.93,0.76
			l3.12,31.83c0.04,0.47-0.3,0.88-0.76,0.93C975.25,1793.41,975.22,1793.41,975.19,1793.41z"/>
	</g>
	<g>
		<path d="M1256.15,1450.88c-0.29,0-0.58-0.15-0.74-0.43l-15.3-26.7c-0.23-0.41-0.09-0.92,0.31-1.16c0.41-0.23,0.93-0.09,1.16,0.31
			l15.3,26.7c0.23,0.41,0.09,0.92-0.31,1.16C1256.44,1450.84,1256.29,1450.88,1256.15,1450.88z"/>
	</g>
	<g>
		<path d="M1254.85,1466.47c-0.28,0-0.56-0.14-0.72-0.4l-17.09-27.04c-0.25-0.4-0.13-0.92,0.26-1.17c0.4-0.25,0.92-0.13,1.17,0.26
			l17.09,27.04c0.25,0.4,0.13,0.92-0.26,1.17C1255.16,1466.43,1255.01,1466.47,1254.85,1466.47z"/>
	</g>
	<g>
		<path d="M1769.22,1475.16c-0.45,0-0.82-0.35-0.85-0.8l-1.67-30.73c-0.03-0.47,0.33-0.87,0.8-0.89c0.47-0.04,0.87,0.33,0.89,0.8
			l1.67,30.73c0.03,0.47-0.33,0.87-0.8,0.89C1769.25,1475.16,1769.24,1475.16,1769.22,1475.16z"/>
	</g>
	<g>
		<path d="M1761.06,1488.51c-0.43,0-0.8-0.33-0.84-0.77l-3.12-31.83c-0.05-0.47,0.29-0.88,0.76-0.93c0.46-0.05,0.88,0.29,0.93,0.76
			l3.12,31.83c0.04,0.47-0.3,0.88-0.76,0.93C1761.11,1488.5,1761.09,1488.51,1761.06,1488.51z"/>
	</g>
	<g>
		<g>
			<path d="M2088.92,1071.29c-0.29,0-0.58-0.15-0.74-0.43l-15.3-26.7c-0.23-0.41-0.09-0.93,0.31-1.16c0.41-0.23,0.93-0.09,1.16,0.31
				l15.3,26.7c0.23,0.41,0.09,0.93-0.31,1.16C2089.21,1071.26,2089.06,1071.29,2088.92,1071.29z"/>
		</g>
		<g>
			<path d="M2087.63,1086.88c-0.28,0-0.56-0.14-0.72-0.4l-17.09-27.04c-0.25-0.4-0.13-0.92,0.26-1.17c0.4-0.25,0.92-0.13,1.17,0.26
				l17.09,27.04c0.25,0.4,0.13,0.92-0.26,1.17C2087.94,1086.84,2087.78,1086.88,2087.63,1086.88z"/>
		</g>
	</g>
	<g>
		<g>
			<path d="M2731.79,494.08c0.22,0.19,0.35,0.49,0.29,0.8l-5.42,30.3c-0.08,0.46-0.52,0.77-0.99,0.69
				c-0.46-0.08-0.77-0.52-0.69-0.98l5.42-30.3c0.08-0.46,0.52-0.77,0.99-0.69C2731.55,493.92,2731.68,493.98,2731.79,494.08z"/>
		</g>
		<g>
			<path d="M2742.8,482.96c0.22,0.18,0.34,0.46,0.3,0.76l-4.26,31.7c-0.06,0.47-0.49,0.79-0.95,0.73c-0.46-0.06-0.79-0.49-0.73-0.95
				l4.26-31.7c0.06-0.46,0.49-0.79,0.95-0.73C2742.53,482.79,2742.68,482.86,2742.8,482.96z"/>
		</g>
	</g>
	<g>
		<g>
			<path d="M989.86,1341.13c0.09,0.28,0.04,0.6-0.17,0.83L969.28,1365c-0.31,0.35-0.85,0.38-1.2,0.07c-0.35-0.31-0.38-0.85-0.07-1.2
				l20.41-23.03c0.31-0.35,0.85-0.38,1.2-0.07C989.73,1340.87,989.81,1341,989.86,1341.13z"/>
		</g>
		<g>
			<path d="M1005.05,1337.38c0.09,0.27,0.05,0.57-0.15,0.81l-20.16,24.83c-0.29,0.36-0.83,0.42-1.19,0.13
				c-0.36-0.3-0.42-0.83-0.12-1.19l20.16-24.83c0.3-0.36,0.83-0.42,1.19-0.13C1004.91,1337.1,1005,1337.23,1005.05,1337.38z"/>
		</g>
	</g>
	<g>
		<g>
			<path d="M1899.86,1099.13c0.09,0.28,0.04,0.6-0.17,0.83l-20.41,23.03c-0.31,0.35-0.85,0.38-1.2,0.07
				c-0.35-0.31-0.38-0.85-0.07-1.2l20.41-23.03c0.31-0.35,0.85-0.38,1.2-0.07C1899.73,1098.87,1899.81,1099,1899.86,1099.13z"/>
		</g>
		<g>
			<path d="M1915.05,1095.38c0.09,0.27,0.04,0.57-0.15,0.81l-20.16,24.83c-0.3,0.36-0.83,0.42-1.19,0.13
				c-0.36-0.3-0.42-0.83-0.12-1.19l20.16-24.83c0.29-0.36,0.83-0.42,1.19-0.13C1914.91,1095.1,1915,1095.23,1915.05,1095.38z"/>
		</g>
	</g>
	<g>
		<path d="M2601.99,1095.58c-0.45,0-0.82-0.35-0.85-0.8l-1.67-30.73c-0.03-0.47,0.33-0.87,0.8-0.89c0.46-0.03,0.87,0.33,0.89,0.8
			l1.67,30.73c0.03,0.47-0.33,0.87-0.8,0.89C2602.03,1095.58,2602.01,1095.58,2601.99,1095.58z"/>
	</g>
	<g>
		<path d="M2593.83,1108.92c-0.43,0-0.8-0.33-0.84-0.77l-3.12-31.83c-0.04-0.47,0.3-0.88,0.76-0.93c0.46-0.05,0.88,0.3,0.93,0.76
			l3.12,31.83c0.04,0.47-0.3,0.88-0.76,0.93C2593.89,1108.92,2593.86,1108.92,2593.83,1108.92z"/>
	</g>
	<path d="M1202.13,1699.03c-0.47,0-0.85-0.38-0.85-0.85v-315.44h570.29c0.47,0,0.85,0.38,0.85,0.85s-0.38,0.85-0.85,0.85h-568.59
		v313.74C1202.98,1698.65,1202.6,1699.03,1202.13,1699.03z"/>
	<path d="M1718.41,1615.17c-0.47,0-0.85-0.38-0.85-0.85v-230.74c0-0.47,0.38-0.85,0.85-0.85c0.47,0,0.85,0.38,0.85,0.85v230.74
		C1719.26,1614.79,1718.88,1615.17,1718.41,1615.17z"/>
	<path d="M2024.96,1466.47c-0.47,0-0.85-0.38-0.85-0.85v-459.95l577.87,1.43c0.47,0,0.85,0.38,0.85,0.85c0,0.47-0.38,0.85-0.85,0.85
		c0,0,0,0,0,0l-576.17-1.42v458.25C2025.81,1466.09,2025.43,1466.47,2024.96,1466.47z"/>
	<path d="M2541.24,1354.05c-0.47,0-0.85-0.38-0.85-0.85v-346.69c0-0.47,0.38-0.85,0.85-0.85c0.47,0,0.85,0.38,0.85,0.85v346.69
		C2542.09,1353.67,2541.71,1354.05,2541.24,1354.05z"/>
	<path class="st2" d="M996.28,1847.31c7.31-7.31,64.31-109.61,103.77-57c0,0,64.49-148.34,146.15-119.3
		c0,0,52.07,30.14,14.25,105.23c0,0,126.06-8.04,124.41,71.07H996.28z"/>
	<g>
		<path class="st3" d="M2128.95,1848.71c3.65-2.92,63.58-119.84,103.04-65.04c0,0,59.19-200.96,140.31-191.46
			c81.11,9.5,12.42,158.57,12.42,158.57s69.42-28.5,53.35,46.77c0,0,88.42-16.08,81.84,47.5L2128.95,1848.71z"/>
	</g>
	<g>
		<path class="st3" d="M2461.13,1655.88c-10.82,13.05-13.92,28.33-6.93,34.12c6.99,5.79,21.43-0.09,32.25-13.14
			c10.82-13.05,13.92-28.33,6.93-34.12C2486.38,1636.95,2471.95,1642.83,2461.13,1655.88z"/>
	</g>
	<g>
		<path class="st3" d="M2477.63,1707.23c-6.4,7.73-8.24,16.77-4.1,20.2c4.14,3.43,12.68-0.05,19.09-7.78s8.24-16.77,4.1-20.2
			C2492.58,1696.03,2484.03,1699.51,2477.63,1707.23z"/>
	</g>
	<rect x="318.57" y="1841.41" class="st11" width="2424.29" height="7.31"/>
	<path d="M1207.17,1319.35c-0.27,0-0.53-0.13-0.7-0.36c-0.27-0.38-0.17-0.91,0.21-1.18c0.11-0.07,10.88-7.52,26.03-13.96
		c14.02-5.96,34.79-12.26,54.09-8.44c0.46,0.09,0.76,0.54,0.67,1c-0.09,0.46-0.54,0.76-1,0.67c-36.16-7.16-78.4,21.84-78.82,22.13
		C1207.51,1319.31,1207.34,1319.35,1207.17,1319.35z"/>
	<path d="M1230.74,1319.35c-0.27,0-0.54-0.13-0.7-0.37c-0.27-0.39-0.17-0.91,0.22-1.18c0.19-0.13,19.81-13.37,54.23-11.86
		c0.47,0.02,0.83,0.42,0.81,0.88c-0.02,0.47-0.41,0.83-0.89,0.81c-33.8-1.47-53,11.44-53.19,11.57
		C1231.07,1319.31,1230.9,1319.35,1230.74,1319.35z"/>
	<path d="M1833.85,1254.94c-0.27,0-0.53-0.13-0.7-0.36c-0.27-0.38-0.17-0.91,0.21-1.18c0.3-0.21,30.16-20.71,55.9-15.62
		c0.46,0.09,0.76,0.54,0.67,1c-0.09,0.46-0.54,0.76-1,0.67c-25.03-4.96-54.31,15.14-54.61,15.35
		C1834.19,1254.9,1834.02,1254.94,1833.85,1254.94z"/>
	<path d="M1853.72,1256.8c-0.27,0-0.54-0.13-0.7-0.37c-0.26-0.39-0.17-0.91,0.22-1.18c0.55-0.38,13.85-9.34,37.86-8.29
		c0.47,0.02,0.83,0.42,0.81,0.88s-0.4,0.83-0.88,0.81c-23.41-1.02-36.69,7.91-36.83,8
		C1854.06,1256.75,1853.89,1256.8,1853.72,1256.8z"/>
	<path d="M2341.68,1622.37c-0.21,0-0.42-0.08-0.59-0.24c-0.34-0.33-0.35-0.86-0.02-1.2c0.59-0.61,14.68-15.02,29.79-15.02
		c0,0,0,0,0.01,0c0.47,0,0.85,0.38,0.85,0.85c0,0.47-0.38,0.85-0.85,0.85c0,0,0,0-0.01,0c-14.39,0-28.43,14.36-28.57,14.51
		C2342.12,1622.28,2341.9,1622.37,2341.68,1622.37z"/>
	<path d="M2353,1621.21c-0.21,0-0.43-0.08-0.59-0.24c-0.34-0.33-0.34-0.86-0.02-1.2c0.27-0.28,6.8-6.84,20.47-8.93
		c0.47-0.07,0.9,0.25,0.97,0.71c0.07,0.46-0.25,0.9-0.71,0.97c-13.11,2-19.44,8.37-19.51,8.44
		C2353.44,1621.13,2353.22,1621.21,2353,1621.21z"/>
	<path d="M2182.09,1799.58c-0.21,0-0.42-0.08-0.59-0.24c-0.34-0.33-0.35-0.86-0.02-1.2c0.59-0.61,14.68-15.02,29.79-15.02
		c0.49,0.01,0.86,0.38,0.86,0.85c0,0.47-0.38,0.85-0.85,0.85c0,0,0,0-0.01,0c-14.4,0-28.43,14.36-28.57,14.5
		C2182.53,1799.49,2182.31,1799.58,2182.09,1799.58z"/>
	<path d="M2193.41,1798.42c-0.21,0-0.43-0.08-0.59-0.24c-0.33-0.33-0.34-0.86-0.01-1.2c0.27-0.28,6.8-6.84,20.46-8.93
		c0.47-0.07,0.9,0.25,0.97,0.71c0.07,0.46-0.25,0.9-0.71,0.97c-13.06,1.99-19.44,8.37-19.51,8.44
		C2193.85,1798.33,2193.63,1798.42,2193.41,1798.42z"/>
	<path d="M1917.5,1653.66c-0.21,0-0.42-0.08-0.58-0.23c-0.34-0.32-0.36-0.86-0.04-1.2c0.64-0.68,15.83-16.67,32.35-16.9
		c0,0,0.01,0,0.01,0c0.46,0,0.84,0.37,0.85,0.84c0.01,0.47-0.37,0.85-0.84,0.86c-15.79,0.22-30.98,16.2-31.13,16.36
		C1917.95,1653.57,1917.72,1653.66,1917.5,1653.66z"/>
	<path d="M1929.88,1652.21c-0.21,0-0.42-0.08-0.58-0.23c-0.34-0.32-0.35-0.86-0.03-1.2c0.29-0.31,7.32-7.58,22.23-10.08
		c0.46-0.08,0.9,0.23,0.98,0.7c0.08,0.46-0.23,0.9-0.7,0.98c-14.31,2.39-21.21,9.5-21.28,9.57
		C1930.33,1652.12,1930.1,1652.21,1929.88,1652.21z"/>
	<path d="M1107.41,1577.89c-0.23,0-0.45-0.09-0.62-0.27c-0.32-0.34-0.3-0.88,0.04-1.2l26.01-24.31c0.34-0.32,0.88-0.3,1.2,0.04
		s0.3,0.88-0.04,1.2l-26.01,24.31C1107.82,1577.82,1107.61,1577.89,1107.41,1577.89z"/>
	<path d="M1104.56,1591.23c-0.27,0-0.54-0.13-0.71-0.38c-0.26-0.39-0.15-0.92,0.24-1.18c5.27-3.51,25.71-21.59,25.92-21.77
		c0.35-0.31,0.89-0.28,1.2,0.07c0.31,0.35,0.28,0.89-0.07,1.2c-0.84,0.75-20.73,18.33-26.1,21.91
		C1104.89,1591.18,1104.72,1591.23,1104.56,1591.23z"/>
	<path d="M653.75,1674.87c-0.33,0-0.63-0.19-0.78-0.5c-0.19-0.43,0-0.93,0.43-1.12l18.58-8.29c0.43-0.19,0.93,0,1.12,0.43
		c0.19,0.43,0,0.93-0.43,1.12l-18.58,8.29C653.98,1674.85,653.86,1674.87,653.75,1674.87z"/>
	<path d="M649.72,1681.54c-0.38,0-0.72-0.25-0.82-0.63c-0.12-0.45,0.15-0.92,0.61-1.04c3.48-0.91,17.86-6.86,18.01-6.92
		c0.43-0.18,0.93,0.03,1.11,0.46c0.18,0.43-0.03,0.93-0.46,1.11c-0.6,0.25-14.64,6.05-18.23,6.99
		C649.87,1681.54,649.8,1681.54,649.72,1681.54z"/>
	<path d="M1184.88,1699.03c-0.25,0-0.5-0.11-0.67-0.32c-0.29-0.37-0.23-0.9,0.14-1.19c0.84-0.66,20.86-16.27,39.15-18.47
		c0.47-0.06,0.89,0.28,0.94,0.74c0.06,0.47-0.28,0.89-0.74,0.94c-17.82,2.14-38.1,17.96-38.31,18.12
		C1185.25,1698.97,1185.06,1699.03,1184.88,1699.03z"/>
	<path d="M1184.88,1708.87c-0.25,0-0.49-0.11-0.66-0.31c-0.3-0.36-0.24-0.9,0.13-1.19c0.14-0.11,13.85-11.13,31.35-16.23
		c0.45-0.13,0.92,0.13,1.05,0.58c0.13,0.45-0.13,0.92-0.58,1.05c-17.16,5.01-30.63,15.81-30.76,15.92
		C1185.26,1708.81,1185.07,1708.87,1184.88,1708.87z"/>
	<path class="st16" d="M1480.06,235.04c-13.58,23.88-42.38,46.04-35.81,75.27c6.58,29.23,51.15,61.38,129.34,21.92
		c78.19-39.46,97.19-120.57,64.31-145.42C1605.02,161.97,1522.44,160.5,1480.06,235.04z"/>
	<path class="st16" d="M1260.14,306.7c-2.73-17.94,8.92-35.06,26.53-39.42c2.9-0.72,6.09-1.25,9.6-1.55
		c30.69-2.56,44.21,22.29,32.15,38s-44.21,26.67-58.09,18.27C1263.39,317.8,1261.01,312.41,1260.14,306.7z"/>
	<path class="st17" d="M1172.97,676.04c44.15-7.59,195.65-32,301.59-28.86c13.74,0.41,20.43-16.79,9.91-25.65
		c-6.15-5.18-16.03-8.82-31.84-8.06c0,0-6.08-97.84-80.26-95.6c-85.08,2.56-74.82,98.18-74.82,98.18s-42.56-31.81-64.73,17.51
		c0,0-50.96-21.94-69.01,31.83C1161.85,671.25,1166.88,677.09,1172.97,676.04z"/>
	<path class="st17" d="M459.83,1089.9c26.67-5.94,89.33-18.95,144.94-23.3c23.01-1.8,39.64-23.13,35.41-45.82
		c-1.73-9.29-6.85-19.58-17.51-30.45c-41.04-41.86-91.55,12.79-87.07,36.71c0,0-17.62-34.24-52.13-22.1
		c-34.52,12.14-13.34,62.67-13.34,62.67s-11.87-0.55-18.93,6.18C444.25,1080.41,450.47,1091.99,459.83,1089.9z"/>
	<path class="st17" d="M2027.61,291.37c49.45-8.3,170.25-26.8,244.5-23.06c10.73,0.54,16.53-12.55,8.8-20
		c-5.58-5.38-14.95-9.44-30.66-8.61c0,0,7.85-69.32-58.46-69.32c-68.15,0-62.12,71.52-62.12,71.52s-43.11-33.61-57.73,14.62
		c0,0-43.46-14.18-60.16,10.3C2003.92,278.34,2013.84,293.68,2027.61,291.37z"/>
	<path class="st16" d="M349.63,1218.85c0,13.92-11.29,25.21-25.21,25.21c-13.92,0-25.21-11.29-25.21-25.21s11.29-25.21,25.21-25.21
		C338.34,1193.64,349.63,1204.93,349.63,1218.85z"/>
	<path class="st16" d="M1758.97,535.38c0,13.92-11.29,25.21-25.21,25.21c-13.92,0-25.21-11.29-25.21-25.21
		c0-13.92,11.29-25.21,25.21-25.21C1747.68,510.17,1758.97,521.46,1758.97,535.38z"/>
	
		<ellipse transform="matrix(0.2298 -0.9732 0.9732 0.2298 934.1561 2086.8928)" class="st16" cx="1785.53" cy="453.27" rx="13.21" ry="13.21"/>
	<path class="st16" d="M2855.88,841.18c-13.87-9.02-17.81-27.57-8.8-41.44c9.01-13.87,27.57-17.81,41.44-8.8
		c13.87,9.02,17.81,27.57,8.8,41.44C2888.3,846.26,2869.75,850.2,2855.88,841.18z"/>
	<path class="st16" d="M2911.94,933.97c-7.27-4.72-9.33-14.45-4.61-21.72c4.72-7.27,14.45-9.33,21.72-4.61
		c7.27,4.72,9.33,14.45,4.61,21.72C2928.94,936.63,2919.21,938.7,2911.94,933.97z"/>
	
		<ellipse transform="matrix(0.2309 -0.973 0.973 0.2309 -915.5013 1373.6407)" class="st16" cx="411.16" cy="1265.93" rx="11.86" ry="11.86"/>
	<path class="st16" d="M274.6,1362.14c0,3.68-2.99,6.67-6.67,6.67c-3.68,0-6.67-2.99-6.67-6.67c0-3.68,2.99-6.67,6.67-6.67
		C271.61,1355.47,274.6,1358.46,274.6,1362.14z"/>
	<g>
		<path d="M2551.03,422.34c-0.07,0-0.14-0.01-0.22-0.02l-96.05-21.23l358.98-95.05c0.53-0.14,1.08,0.18,1.22,0.71
			c0.14,0.53-0.18,1.08-0.71,1.22l-351.02,92.95l88.01,19.45c0.54,0.12,0.88,0.65,0.76,1.19
			C2551.9,422.02,2551.49,422.34,2551.03,422.34z"/>
	</g>
	<g>
		<path d="M1900.82,1045.99c-0.28,0-0.55-0.11-0.75-0.34c-0.37-0.41-0.33-1.05,0.09-1.41l239.84-211.66
			c0.41-0.36,1.05-0.33,1.41,0.09c0.37,0.41,0.33,1.05-0.09,1.41l-239.84,211.66C1901.29,1045.91,1901.05,1045.99,1900.82,1045.99z"
			/>
	</g>
	<g>
		<path d="M1921.78,1193.74c-0.28,0-0.56-0.12-0.75-0.34c-0.36-0.42-0.32-1.05,0.1-1.41l104.03-90.8c0.42-0.37,1.05-0.32,1.41,0.1
			c0.36,0.42,0.32,1.05-0.1,1.41l-104.03,90.8C1922.25,1193.66,1922.01,1193.74,1921.78,1193.74z"/>
	</g>
	<g>
		<path d="M1077.48,1211.76c-0.24,0-0.47-0.08-0.66-0.25c-0.41-0.37-0.45-1-0.08-1.41l167.15-188.47l0.74,0.6l106.41,85.92
			c0.43,0.35,0.5,0.98,0.15,1.41c-0.35,0.43-0.98,0.5-1.41,0.15l-105.67-85.32l-165.89,187.04
			C1078.03,1211.65,1077.76,1211.76,1077.48,1211.76z"/>
	</g>
	<g>
		<path d="M1331.2,1259c-0.21,0-0.42-0.07-0.61-0.21l-89.2-68c-0.44-0.33-0.52-0.96-0.19-1.4c0.33-0.44,0.96-0.53,1.4-0.19l89.2,68
			c0.44,0.33,0.52,0.96,0.19,1.4C1331.8,1258.87,1331.5,1259,1331.2,1259z"/>
	</g>
</g>
</svg>
