<?xml version="1.0" encoding="utf-8"?>
<!-- Generator: Adobe Illustrator 24.0.2, SVG Export Plug-In . SVG Version: 6.00 Build 0)  -->
<svg version="1.1" id="Layer_1" xmlns="http://www.w3.org/2000/svg" xmlns:xlink="http://www.w3.org/1999/xlink" x="0px" y="0px"
	 viewBox="0 0 3271.11 2000" style="enable-background:new 0 0 3271.11 2000;" xml:space="preserve">
<style type="text/css">
	.st0{opacity:0.1;enable-background:new    ;}
	.st1{fill:#2DAAE1;}
	.st2{fill:#21233D;}
	.st3{fill:#FFB49E;}
	.st4{fill:#313651;}
	.st5{fill:#FEC786;}
	.st6{fill:#F07162;}
	.st7{fill:#FBFDFC;}
	.st8{opacity:0.5;}
	.st9{fill:#9EBEE5;}
	.st10{fill:#21111D;}
	.st11{fill:#FFFFFF;}
	.st12{fill:#BCBEC0;}
	.st13{opacity:0.4;enable-background:new    ;}
	.st14{fill:#4565AD;}
	.st15{fill:#8AC0CB;}
	.st16{fill:#61A3C5;}
	.st17{fill:#EA5942;}
	.st18{fill:#FEBAC7;}
</style>
<g>
	<g>
		<g class="st0">
			<g>
				<g>
					<g>
						<g>
							<path class="st1" d="M2030.61,1171.18c0,0,197.35-341.77,314.92-139.44c0,0,218.73-393.72,396.45-254.28
								c177.72,139.44-92.96,861.26-92.96,861.26s292.56-281.62,196.86,136.71c0,0,123.04-93.26,202.33-63.04
								c79.29,30.23,10.94,265.49,10.94,265.49H1861.92L2030.61,1171.18z"/>
						</g>
					</g>
				</g>
			</g>
		</g>
		<g>
			<g class="st0">
				<g>
					<g>
						<g>
							<g>
								<path class="st1" d="M1644.72,1980.49c-13.67-10.93-237.82-444.52-385.43-239.51c0,0-221.42-751.72-524.84-716.19
									c-303.42,35.54-46.47,593.18-46.47,593.18s-259.69-106.61-199.55,174.95c0,0-330.76-60.14-306.16,177.68L1644.72,1980.49z"
									/>
							</g>
						</g>
					</g>
				</g>
				<g>
					<g>
						<g>
							<g>
								
									<ellipse transform="matrix(0.7699 -0.6382 0.6382 0.7699 -749.3544 526.0573)" class="st1" cx="354.81" cy="1302.17" rx="61.5" ry="114.81"/>
							</g>
						</g>
					</g>
				</g>
				<g>
					<g>
						<g>
							<g>
								
									<ellipse transform="matrix(0.7699 -0.6382 0.6382 0.7699 -873.1947 540.1226)" class="st1" cx="312.4" cy="1480.93" rx="36.41" ry="67.96"/>
							</g>
						</g>
					</g>
				</g>
			</g>
			<g>
				<g>
					<g>
						<g>
							<g>
								<path class="st2" d="M700,1675.62c0.78-0.17,1.49-0.63,1.97-1.34c0.97-1.46,0.58-3.43-0.87-4.4
									c-2.65-1.77-65.59-43.28-120.83-31.29c-0.01,0-0.02,0-0.03,0.01c-1.71,0.37-2.8,2.06-2.43,3.78
									c0.37,1.71,2.06,2.8,3.78,2.43c0.01,0,0.02,0,0.03-0.01c52.59-11.41,115.33,29.95,115.96,30.37
									C698.31,1675.65,699.19,1675.79,700,1675.62z"/>
							</g>
						</g>
					</g>
				</g>
				<g>
					<g>
						<g>
							<g>
								<path class="st2" d="M657.7,1680.36c0.78-0.17,1.5-0.63,1.97-1.35c0.97-1.46,0.57-3.43-0.9-4.4
									c-1.21-0.8-30.28-19.62-81.9-16.41c-1.76,0.12-3.08,1.62-2.97,3.37c0.11,1.75,1.62,3.08,3.37,2.97
									c49.51-3.08,77.72,15.18,78,15.37C656.02,1680.4,656.89,1680.54,657.7,1680.36z"/>
							</g>
						</g>
					</g>
				</g>
			</g>
			<g>
				<g>
					<g>
						<g>
							<path class="st2" d="M1445.96,1803.14c0.79,0,1.59-0.3,2.21-0.89c1.26-1.22,1.3-3.23,0.08-4.49
								c-2.22-2.3-54.93-56.2-111.45-56.2c-1.83,0.04-3.21,1.41-3.21,3.18c0,1.75,1.42,3.17,3.18,3.17h0.03
								c53.86,0,106.36,53.72,106.88,54.26C1444.3,1802.81,1445.13,1803.14,1445.96,1803.14z"/>
						</g>
					</g>
				</g>
			</g>
			<g>
				<g>
					<g>
						<g>
							<path class="st2" d="M1403.61,1798.8c0.8,0,1.6-0.3,2.22-0.9c1.25-1.22,1.28-3.23,0.06-4.49
								c-1.01-1.04-25.43-25.59-76.56-33.4c-1.76-0.26-3.35,0.93-3.62,2.66c-0.26,1.73,0.93,3.35,2.66,3.62
								c48.87,7.46,72.74,31.32,72.97,31.56C1401.96,1798.48,1402.79,1798.8,1403.61,1798.8z"/>
						</g>
					</g>
				</g>
			</g>
		</g>
		<g>
			<g>
				<g>
					<g>
						<path class="st2" d="M2735.44,907.68c-0.23,1.59-1.6,2.8-3.25,2.81c-1.81,0-3.29-1.47-3.29-3.28
							c-0.04-46.03-26.81-73.47-27.08-73.74c-1.28-1.29-1.28-3.37,0.01-4.64c1.28-1.28,3.36-1.28,4.64,0
							c1.18,1.18,28.95,29.52,29,78.38C2735.48,907.36,2735.46,907.52,2735.44,907.68z"/>
					</g>
				</g>
			</g>
			<g>
				<g>
					<g>
						<path class="st2" d="M2718.02,944.14c-0.24,1.63-1.67,2.86-3.35,2.8c-1.81-0.06-3.24-1.57-3.18-3.39
							c1.5-47.48-19.13-80.29-19.34-80.61c-0.98-1.53-0.53-3.56,0.99-4.54c1.53-0.98,3.56-0.54,4.54,0.99
							c0.9,1.4,21.95,34.75,20.38,84.37C2718.05,943.89,2718.04,944.02,2718.02,944.14z"/>
					</g>
				</g>
			</g>
		</g>
	</g>
	<g>
		<g>
			<g>
				<g>
					<path class="st2" d="M3146.7,1981.08H124.41c-4.02,0-7.28-3.76-7.28-8.39s3.26-8.39,7.28-8.39H3146.7
						c4.02,0,7.28,3.76,7.28,8.39S3150.72,1981.08,3146.7,1981.08z"/>
				</g>
			</g>
		</g>
	</g>
	<g>
		<g>
			<g>
				<g>
					<g>
						<g>
							<g>
								<g>
									<g>
										<g>
											<g>
												<g>
													<g>
														<polygon class="st3" points="1588.34,1265.84 1653.42,1266.74 1654.45,1198.59 1589.63,1189.7 														"/>
													</g>
												</g>
											</g>
										</g>
									</g>
								</g>
							</g>
						</g>
					</g>
				</g>
			</g>
			<g>
				<g>
					<g>
						<g>
							<g>
								<g>
									<g>
										<g>
											<g>
												<g>
													<g>
														<polygon class="st3" points="1807.48,1248.03 1872.62,1235.09 1859.03,1168.26 1792.44,1173.33 														"/>
													</g>
												</g>
											</g>
										</g>
									</g>
								</g>
							</g>
						</g>
					</g>
				</g>
			</g>
			<g>
				<g>
					<g>
						<g>
							<g>
								<g>
									<g>
										<g>
											<g>
												<path class="st2" d="M1702.02,675.88c-2.43,70.38-12.98,345.67-35.18,525.79c-1.46,11.87-11.67,20.83-23.8,20.8
													c-13.43-0.04-32.11-1.61-52.81-7.84c-10-3.01-16.95-11.98-17.12-22.29l-9.02-548.05c-0.02-1.33,0.07-2.66,0.28-3.98
													l0.42-2.71c2.33-14.92,18.04-23.9,32.33-18.49l89.53,33.9C1696.19,656.62,1702.37,665.79,1702.02,675.88z"/>
											</g>
										</g>
									</g>
								</g>
							</g>
						</g>
					</g>
				</g>
			</g>
			<g>
				<g>
					<g>
						<g>
							<g>
								<g>
									<g>
										<g>
											<g>
												<path class="st4" d="M1796.2,644.14c0,0,1.21,139.83,21.23,294.03c11.12,85.61,42.89,174.53,48.02,249.11
													c0.68,9.89-6.07,18.73-15.88,20.88c-13.89,3.04-35.31,5.91-60.34,3.02c-8.49-0.98-15.46-7.1-17.4-15.31l-69.8-235.99
													l-42.3-238.6l-45.35-129.75L1796.2,644.14z"/>
											</g>
										</g>
									</g>
								</g>
							</g>
						</g>
					</g>
				</g>
			</g>
			<g>
				<g>
					<g>
						<g>
							<path class="st2" d="M1769.31,1188.35c0.1,0,0.19-0.01,0.29-0.04c0.54-0.16,0.86-0.72,0.7-1.26l-67.25-227.39l-31.53-177.87
								c-0.1-0.55-0.63-0.91-1.19-0.82c-0.56,0.1-0.93,0.62-0.83,1.17l31.55,177.98l0.02,0.05l67.27,227.44
								C1768.45,1188.06,1768.86,1188.35,1769.31,1188.35z"/>
						</g>
					</g>
				</g>
			</g>
			<g>
				<g>
					<g>
						<path class="st2" d="M1839.65,1050.85c0.08,0,0.15-0.01,0.23-0.03c0.55-0.13,0.9-0.67,0.77-1.22
							c-7.69-32.84-18.81-97.35-24.76-132.89c-0.17-1.03-0.29-1.73-0.41-2.2h0h0c0,0,0-0.01,0-0.01c0-0.46-0.06-1.12-0.13-2.06
							l-15.43-184.65c-0.05-0.56-0.55-0.98-1.11-0.93c-0.57,0.04-0.99,0.54-0.94,1.09c0.15,1.85,15.43,184.48,15.6,186.71
							c0,0.02,0,0.04,0.01,0.06l0.11,0.99l0.05,0c0.06,0.35,0.13,0.79,0.22,1.32c5.95,35.56,17.08,100.13,24.78,133.02
							C1838.76,1050.54,1839.19,1050.85,1839.65,1050.85z"/>
					</g>
				</g>
			</g>
			<g>
				<g>
					<g>
						<path class="st2" d="M1572.8,1174.75c0.01,0,0.01,0,0.02,0c0.57-0.01,1.02-0.47,1.01-1.03l-7.31-444.22
							c-0.01-0.56-0.44-1.03-1.05-1c-0.57,0.01-1.02,0.47-1.01,1.03l7.31,444.22C1571.78,1174.3,1572.24,1174.75,1572.8,1174.75z"/>
					</g>
				</g>
			</g>
			<g>
				<path class="st5" d="M1654.91,1274.88h-57.08l-23.14-24.85l-42.33,24.85h-9.12c-3.14,0-6.02,2.09-6.61,5.14
					c-0.8,4.09,2.36,7.67,6.37,7.67h132.71c0.98,0,1.77-0.78,1.77-1.74v-8.52C1657.49,1276.02,1656.34,1274.88,1654.91,1274.88z"/>
			</g>
			<g>
				<path class="st2" d="M1654.41,1274.96v-23.1c0,0-9.61-12.76-24.25-6.24c0,0-22.14,15.48-41.65-3.25l-48.46,21.19
					c0,0-13.29,4.38-16.88,11.4H1654.41z"/>
			</g>
			<g>
				<g>
					<g>
						<rect x="1653.92" y="1251.86" class="st2" width="0.97" height="22.98"/>
					</g>
				</g>
			</g>
			<g>
				<g>
					<g>
						<path class="st2" d="M1610.32,1252.11c-1.85,0-2.97-0.16-3.01-0.16l0.14-0.95c0.11,0.01,11.55,1.6,22.43-5.78l0.55,0.79
							C1622.64,1251.3,1614.56,1252.11,1610.32,1252.11z"/>
					</g>
				</g>
			</g>
			<g>
				<g>
					<g>
						<polygon class="st2" points="1642.61,1270.64 1642.07,1269.85 1648.26,1265.73 1648.8,1266.53 						"/>
					</g>
				</g>
			</g>
			<g>
				<g>
					<g>
						<polygon class="st2" points="1638.18,1269.48 1637.63,1268.68 1643.82,1264.57 1644.37,1265.36 						"/>
					</g>
				</g>
			</g>
			<g>
				<g>
					<g>
						<g>
							<g>
								<g>
									<g>
										<g>
											<g>
												<path class="st2" d="M1518.5,1286.58c-1.57-1.31-2.47-3.22-2.47-5.25c0-3.79,3.13-6.88,6.98-6.88h131.22
													c2.06,0,3.74,1.66,3.74,3.69v6.38h-0.97v-6.38c0-1.51-1.24-2.73-2.77-2.73h-131.22c-3.31,0-6.01,2.66-6.01,5.92
													c0,1.74,0.77,3.39,2.12,4.52L1518.5,1286.58z"/>
											</g>
										</g>
									</g>
								</g>
							</g>
						</g>
					</g>
				</g>
			</g>
			<g>
				<g>
					<g>
						<path class="st2" d="M1523.45,1275.13l-0.88-0.41c0.11-0.23,2.77-5.6,12.69-9.77c9.75-4.1,52.62-22.84,53.05-23.03l0.39,0.88
							c-0.43,0.19-43.31,18.94-53.06,23.04C1526.1,1269.85,1523.48,1275.08,1523.45,1275.13z"/>
					</g>
				</g>
			</g>
			<g>
				<path class="st5" d="M1875.73,1239.17l-54.85,15.56l-29.21-17.57l-33.7,35.42l-8.76,2.49c-3.02,0.86-5.2,3.65-4.91,6.74
					c0.38,4.15,4.42,6.73,8.28,5.63l127.53-36.19c0.94-0.27,1.48-1.23,1.21-2.15l-2.39-8.19
					C1878.53,1239.56,1877.1,1238.78,1875.73,1239.17z"/>
			</g>
			<g>
				<path class="st2" d="M1875.27,1239.38l-6.48-22.2c0,0-12.82-9.64-25.05,0.61c0,0-16.93,20.91-40.94,8.23l-40.62,33.58
					c0,0-11.54,7.83-13.03,15.56L1875.27,1239.38z"/>
			</g>
			<g>
				<g>
					<g>
						<polygon class="st2" points="1875.7,1239.14 1874.77,1239.4 1868.32,1217.31 1869.25,1217.05 						"/>
					</g>
				</g>
			</g>
			<g>
				<g>
					<g>
						<path class="st2" d="M1826.49,1229.45c-1.78,0.51-2.9,0.66-2.94,0.67l-0.13-0.95c0.11-0.02,11.55-1.62,19.93-11.67l0.75,0.61
							C1838.1,1225.3,1830.56,1228.29,1826.49,1229.45z"/>
					</g>
				</g>
			</g>
			<g>
				<g>
					<g>
						<polygon class="st2" points="1862.72,1238.45 1861.98,1237.83 1866.77,1232.19 1867.52,1232.81 						"/>
					</g>
				</g>
			</g>
			<g>
				<g>
					<g>
						<polygon class="st2" points="1858.13,1238.54 1857.39,1237.93 1862.18,1232.28 1862.92,1232.9 						"/>
					</g>
				</g>
			</g>
			<g>
				<g>
					<g>
						<g>
							<g>
								<g>
									<g>
										<g>
											<g>
												<path class="st2" d="M1747.92,1287.61c-1.87-0.83-3.27-2.43-3.84-4.37c-1.06-3.65,1.08-7.47,4.78-8.52l126.1-35.78
													c1.98-0.56,4.06,0.57,4.63,2.53l1.79,6.14l-0.93,0.26l-1.79-6.14c-0.42-1.45-1.96-2.29-3.43-1.87l-126.1,35.78
													c-3.18,0.9-5.03,4.19-4.11,7.33c0.49,1.67,1.69,3.05,3.31,3.76L1747.92,1287.61z"/>
											</g>
										</g>
									</g>
								</g>
							</g>
						</g>
					</g>
				</g>
			</g>
			<g>
				<g>
					<g>
						<path class="st2" d="M1749.47,1275.26l-0.96-0.15c0.04-0.25,1.09-6.13,9.45-12.85c8.22-6.6,44.16-36.3,44.52-36.6l0.63,0.73
							c-0.36,0.3-36.31,30.01-44.53,36.61C1750.53,1269.46,1749.48,1275.2,1749.47,1275.26z"/>
					</g>
				</g>
			</g>
			<g>
				<g>
					<g>
						<g>
							<path class="st3" d="M1568.63,343.89c0,0-31.85-53.03-34.69-61.22c-6.41-18.51-23.6-188.58-23.6-188.58l51.19-3.6
								l28.5,133.95l38.17,83.55L1568.63,343.89z"/>
						</g>
					</g>
				</g>
			</g>
			<g>
				<g>
					<g>
						<g>
							<g>
								<path class="st3" d="M1504.4,35.78c2.46-0.92,5.2,0.36,6.27,2.75l6.69,14.88c0.21,0.47,0.69,0.75,1.2,0.7l0,0
									c0.75-0.07,1.25-0.81,1.03-1.53l-6.89-23.09c-0.79-2.64,0.81-5.02,3.56-5.28l0,0c2.75-0.26,5.64,1.69,6.43,4.34l7.02,23.54
									c0.16,0.55,0.69,0.9,1.26,0.85l0.4-0.04c0.66-0.06,1.14-0.64,1.08-1.3l-2.55-27.13c-0.25-2.61,1.51-5.07,4.1-5.49
									c2.84-0.45,5.42,1.58,5.69,4.4l2.56,27.3c0.06,0.66,0.64,1.14,1.3,1.08l1.28-0.12c0.6-0.06,1.06-0.55,1.08-1.15l0.93-25.46
									c0.1-2.62,2.16-4.83,4.78-4.91c2.87-0.08,5.17,2.28,5.07,5.1c0,0,0.66,38.9,1.26,44.97l10.96-9.07
									c1.73-2.09,4.84-2.38,6.93-0.65h0c2.09,1.73,2.38,4.84,0.65,6.93l-17.24,26.59c-1.13,1.36-4.66,1.71-7.57,1.3
									c-28.63,4.91-33.08,5.43-40.92,6.05l-1.86-30.99c-0.54-8.94-2.7-17.71-6.37-25.88l-0.92-2.05
									C1500.47,39.84,1501.71,36.79,1504.4,35.78z"/>
							</g>
						</g>
					</g>
				</g>
			</g>
			<g>
				<g>
					<g>
						<g>
							<g>
								<path class="st3" d="M1858.85,376.58c0,0,41.23-46.11,45.56-53.62c9.77-16.98,58.57-180.8,58.57-180.8l-49.6-13.14
									l-53.13,126.22l-53.18,74.9L1858.85,376.58z"/>
							</g>
						</g>
					</g>
				</g>
				<g>
					<g>
						<g>
							<g>
								<g>
									<path class="st3" d="M1979.76,86c-2.24-1.36-5.17-0.63-6.68,1.52l-9.37,13.36c-0.29,0.42-0.82,0.6-1.31,0.46l0,0
										c-0.72-0.21-1.08-1.03-0.73-1.7l11.1-21.38c1.27-2.45,0.14-5.08-2.51-5.85l0,0c-2.65-0.77-5.86,0.61-7.13,3.06
										l-11.32,21.81c-0.26,0.51-0.85,0.76-1.39,0.6l-0.39-0.11c-0.63-0.18-1-0.85-0.81-1.48l7.59-26.17
										c0.73-2.52-0.53-5.27-3-6.16c-2.7-0.98-5.62,0.54-6.41,3.25l-7.64,26.33c-0.18,0.63-0.85,1-1.48,0.82l-1.23-0.36
										c-0.58-0.17-0.94-0.74-0.85-1.33l3.86-25.18c0.4-2.59-1.21-5.15-3.77-5.72c-2.81-0.62-5.5,1.27-5.93,4.06
										c0,0-7.95,38.08-9.67,43.93l-9.06-10.97c-1.31-2.38-4.3-3.25-6.68-1.94v0c-2.38,1.31-3.25,4.3-1.94,6.69l11.95,29.36
										c0.85,1.55,4.26,2.55,7.19,2.7c27.2,10.2,31.47,11.54,39.06,13.62l7.64-30.09c2.2-8.68,5.97-16.89,11.12-24.23l1.29-1.84
										C1982.87,90.72,1982.22,87.49,1979.76,86z"/>
								</g>
							</g>
						</g>
					</g>
				</g>
			</g>
			<g>
				<g>
					<g>
						<g>
							<g>
								<g>
									<path class="st3" d="M1712,252.07l-14.56,37.3c0,0-5.45,12.4,4.97,18.29l-12.48,23.6c-3.21,5.95,2.04,5.81,7.31,10.06
										c2.57,2.08,5.81,4.12,9.79,5.68c12.61,4.92,23.13-1.87,26.02-6.18c2.9-4.32,8.57-28.14,8.57-28.14l4.72-10.95l15.36-43.57
										L1712,252.07z"/>
								</g>
							</g>
						</g>
					</g>
				</g>
				<g>
					<g>
						<g>
							<g>
								<g>
									<path class="st2" d="M1735.16,282.6c0.13,0.05,0.28,0.05,0.42,0c0.29-0.12,0.42-0.45,0.31-0.74
										c-0.04-0.1-4.38-10.32-13.06-7.57c-0.3,0.09-0.46,0.41-0.37,0.71c0.09,0.3,0.41,0.46,0.71,0.37
										c7.69-2.43,11.52,6.55,11.68,6.93C1734.9,282.44,1735.02,282.55,1735.16,282.6z"/>
								</g>
							</g>
						</g>
					</g>
				</g>
				<g>
					<g>
						<g>
							<g>
								<g>
									<path class="st2" d="M1714.73,271c0.15,0.06,0.32,0.05,0.47-0.03c0.28-0.14,0.38-0.49,0.24-0.76
										c-0.14-0.27-3.48-6.51-7.71-5.03c-0.29,0.1-0.45,0.42-0.35,0.72c0.1,0.29,0.42,0.45,0.72,0.35
										c3.31-1.16,6.31,4.43,6.34,4.49C1714.51,270.86,1714.61,270.95,1714.73,271z"/>
								</g>
							</g>
						</g>
					</g>
				</g>
				<g>
					<g>
						<g>
							<g>
								<g>
									<path class="st2" d="M1723.71,280.58c-0.34,0.87,0.09,1.85,0.96,2.19c0.87,0.34,1.85-0.09,2.19-0.96
										c0.34-0.87-0.09-1.85-0.96-2.19C1725.03,279.28,1724.05,279.71,1723.71,280.58z"/>
								</g>
							</g>
						</g>
					</g>
				</g>
				<g>
					<g>
						<g>
							<g>
								<g>
									<path class="st2" d="M1707.57,272.46c-0.34,0.87,0.09,1.85,0.96,2.19c0.87,0.34,1.85-0.09,2.19-0.96
										c0.34-0.87-0.09-1.85-0.96-2.19S1707.91,271.59,1707.57,272.46z"/>
								</g>
							</g>
						</g>
					</g>
				</g>
				<g>
					<g>
						<g>
							<g>
								<g>
									<path class="st2" d="M1759.41,259.65l-13.66,9.02c0,0-30.68-0.06-39.56-17.65c-8.87-17.59-2.37-21.84,4.03-26.41
										c3.15-2.25,14.98-4.73,24.53,4.91c5.21,5.26,13.14-1.27,18.86,5.8c5.71,7.07,11.55,17.74,9.45,20.24
										S1759.41,259.65,1759.41,259.65z"/>
								</g>
							</g>
						</g>
					</g>
				</g>
				<g>
					<g>
						<g>
							<g>
								<g>
									<path class="st2" d="M1760.93,254.19c0,0,12.36,4.15,11.18,17.15c-1.17,12.99-8.11,17.33-9.59,20.77
										c-1.48,3.43-8.28,27.82-24.07,19.64l10.68-40.49l11.76-13.19L1760.93,254.19z"/>
								</g>
							</g>
						</g>
					</g>
				</g>
				<g>
					<g>
						<g>
							<g>
								<g>
									<path class="st3" d="M1736.94,285.11c-2.04,5.22,0.54,11.11,5.76,13.15c5.22,2.04,11.11-0.54,13.15-5.76
										c2.04-5.22-0.54-11.11-5.76-13.15C1744.86,277.31,1738.97,279.89,1736.94,285.11z"/>
								</g>
							</g>
						</g>
					</g>
				</g>
				<g>
					<g>
						<g>
							<g>
								<g>
									<path class="st6" d="M1744.83,294.87c1.96,0.77,3.85-0.2,4.86-1.5c1.19-1.55,1.27-3.47,0.2-4.9
										c-1.59-2.12-3.81-2.02-5.03-1.76c0.83-0.91,1.77-1.45,2.82-1.58c2.26-0.3,4.28,1.35,4.3,1.37c0.12,0.1,0.3,0.08,0.4-0.04
										c0.1-0.12,0.08-0.3-0.04-0.4c-0.09-0.07-2.22-1.82-4.73-1.49c-1.45,0.19-2.71,1.03-3.76,2.5l-0.59,0.83l0.93-0.4
										c0.13-0.06,3.23-1.37,5.25,1.32c1.11,1.49,0.59,3.2-0.19,4.22c-0.81,1.06-2.4,2.03-4.21,1.32
										c-0.02-0.01-0.03-0.02-0.05-0.02c-0.14-0.06-0.31,0.01-0.36,0.16c-0.06,0.14,0.01,0.31,0.16,0.37
										C1744.79,294.86,1744.81,294.87,1744.83,294.87z"/>
								</g>
							</g>
						</g>
					</g>
				</g>
				<g>
					<g>
						<g>
							<g>
								<g>
									<path class="st6" d="M1732.16,306.93c0,0-8.98,20.81-36.12,12.54l6.36-11.81C1702.41,307.65,1718.16,317.76,1732.16,306.93
										z"/>
								</g>
							</g>
						</g>
					</g>
				</g>
				<g>
					<g>
						<g>
							<g>
								<path class="st2" d="M1697.93,282.72c0,0-13.3,23.92,3.12,31.36c23.5,10.66,31.17-2.13,36.97-12.78l9.27-23.04l1.85-7.01
									l0,0c-2.45,1.26-4.42,3.26-5.65,5.72c-2.66,5.35-9.73,19.82-11.37,19.94C1729.81,297.07,1702.61,281.74,1697.93,282.72z"/>
							</g>
						</g>
					</g>
				</g>
				<g>
					<g>
						<g>
							<g>
								<g>
									<path class="st6" d="M1714,289.04c0.11,0.04,0.24,0.01,0.32-0.08c0.1-0.12,0.08-0.3-0.04-0.4l-4.59-3.8l6.5-11.74
										c0.08-0.14,0.03-0.31-0.11-0.38c-0.14-0.08-0.31-0.03-0.38,0.11l-6.73,12.15l4.95,4.1
										C1713.94,289.01,1713.97,289.03,1714,289.04z"/>
								</g>
							</g>
						</g>
					</g>
				</g>
				<g>
					<g>
						<g>
							<g>
								<g>
									<path class="st7" d="M1716.08,295.75c-0.15-0.09-10.29-4.33-10.29-4.33s-0.37,4.74,3.4,6.32
										C1712.95,299.32,1716.08,295.75,1716.08,295.75z"/>
								</g>
							</g>
						</g>
					</g>
				</g>
			</g>
			<g>
				<g>
					<g>
						<path class="st2" d="M1752.56,684.87c0.26,0.02,0.54-0.06,0.75-0.25l22.88-20.68c0.4-0.36,0.43-0.99,0.07-1.39
							c-0.36-0.4-0.99-0.43-1.39-0.07L1752,683.16c-0.4,0.36-0.43,0.99-0.07,1.39C1752.1,684.74,1752.33,684.85,1752.56,684.87z"/>
					</g>
				</g>
			</g>
			<g>
				<g>
					<g>
						<path class="st2" d="M1751.47,696.49c0.26,0.02,0.53-0.06,0.75-0.24l17.27-15.35c0.41-0.36,0.44-0.98,0.08-1.39
							c-0.36-0.41-0.98-0.44-1.39-0.08l-17.27,15.35c-0.41,0.36-0.44,0.98-0.08,1.39C1750.99,696.35,1751.23,696.46,1751.47,696.49z
							"/>
					</g>
				</g>
			</g>
			<g>
				<g>
					<path class="st1" d="M1564.12,92.61c0,0,29.02,132.81,28,131.44c-1.02-1.37,52.69,95.01,61.11,99.01
						c8.42,4,122.97,10.91,122.97,10.91l81.11-76.63l52.66-125.81c13.66,0.34,53.01,19.12,53.01,19.12l-52.71,166.46
						c-2.16,6.81-5.87,13.02-10.84,18.15c-21.58,22.24-82.3,85.24-87.19,95.28c-5.96,12.24-14.28,271.45-14.28,271.45
						c-194.24-0.82-236.73-47.52-236.73-47.52s23.22-254.43,23.7-267.59c0,0-31.33-56.26-41.54-78.05l0,0
						c0,0-7.61-14.79-12.39-27.64c-4.78-12.85-23.22-184.15-23.22-184.15C1523.83,91.24,1564.12,92.61,1564.12,92.61z"/>
				</g>
			</g>
			<g>
				<g>
					<path class="st2" d="M1776.51,334.86l0.27-0.26l80.67-76.22l9.45,4.68c0.43,0.21,0.95,0.04,1.16-0.39
						c0.21-0.43,0.04-0.95-0.39-1.16l-10.53-5.22l-0.44,0.41l-80.84,76.38l-35.31-2.31c-0.46-0.03-0.89,0.33-0.92,0.81
						c-0.03,0.48,0.33,0.89,0.81,0.92L1776.51,334.86z"/>
				</g>
			</g>
			<g>
				<g>
					<path class="st2" d="M1857.3,258.2c0.34,0,0.66-0.2,0.8-0.53l52.66-125.81c0.18-0.44-0.02-0.95-0.46-1.13
						c-0.44-0.18-0.95,0.02-1.13,0.46L1856.51,257c-0.18,0.44,0.02,0.95,0.46,1.13C1857.08,258.18,1857.19,258.2,1857.3,258.2z"/>
				</g>
			</g>
			<g>
				<g>
					<path class="st2" d="M1801.03,616.91c0.46,0,0.84-0.36,0.86-0.83c3.03-74.52,11.12-184.37,11.2-185.47
						c0.04-0.48-0.32-0.89-0.8-0.93c-0.5-0.03-0.89,0.32-0.93,0.8c-0.08,1.1-8.18,110.98-11.21,185.53
						c-0.02,0.48,0.35,0.88,0.83,0.9C1801.01,616.91,1801.02,616.91,1801.03,616.91z"/>
				</g>
			</g>
			<g>
				<g>
					<path class="st2" d="M1566.64,591.54c0.45,0,0.83-0.35,0.86-0.81c9.07-136.69,19.9-210.15,20.01-210.88
						c0.07-0.47-0.26-0.91-0.73-0.98c-0.46-0.07-0.91,0.25-0.98,0.73c-0.11,0.73-10.94,74.25-20.02,211.02
						c-0.03,0.48,0.33,0.89,0.8,0.92C1566.6,591.54,1566.62,591.54,1566.64,591.54z"/>
				</g>
			</g>
			<g>
				<g>
					<path class="st2" d="M1584.94,387.74c0.15,0,0.29-0.04,0.43-0.11c0.42-0.24,0.56-0.77,0.32-1.18
						c-0.37-0.64-36.61-64.05-45.63-86.39c-1.25-3.08-2.38-5.78-3.43-8.26c-6.67-15.85-9.44-22.41-12.65-62.06
						c-0.04-0.48-0.46-0.82-0.93-0.79c-0.48,0.04-0.83,0.46-0.79,0.93c3.23,39.93,6.22,47.03,12.78,62.59
						c1.04,2.47,2.18,5.16,3.42,8.24c9.07,22.44,45.37,85.96,45.73,86.6C1584.35,387.59,1584.64,387.74,1584.94,387.74z"/>
				</g>
			</g>
			<g>
				<g>
					<g class="st8">
						<path class="st4" d="M1643.08,682.57c12.55-157.24,65.41-349.55,65.94-351.48l-3.33-0.92
							c-0.53,1.93-53.48,194.55-66.06,352.12L1643.08,682.57z"/>
					</g>
				</g>
			</g>
			<g>
				<g>
					<g>
						<path class="st2" d="M1710.09,330.39c-3.3,4.5-7.22,7.84-10.94,11.36c-61.57,58.18-174.67-8.47-149.17,97.26
							c8.03-14.97,8.9-37.92,25.68-48c2.36-1.42,4.98-2.35,7.69-2.8C1627.36,380.97,1689.49,391.63,1710.09,330.39z"/>
					</g>
				</g>
				<g>
					<g>
						<polygon class="st2" points="1710.92,339.53 1704.27,343.24 1699.44,341.52 1697.52,332.11 1704.76,327.31 1711.8,329.42 
													"/>
					</g>
				</g>
				<g>
					<g>
						<polygon class="st9" points="1708.53,325.45 1696.28,319.03 1690.35,327.75 1697.61,338.42 1707.36,330.63 1710.92,341.75 
							1740.51,331.64 1738.94,323.18 						"/>
					</g>
				</g>
			</g>
			<g>
				<g>
					<path class="st10" d="M1797.97,691.44c0,0-169.68,3.01-235.91-47.14l-0.94,10.97c0,0,24.64,25.54,102.07,38.2
						c77.43,12.66,134.78,8.39,134.78,8.39V691.44z"/>
				</g>
			</g>
			<g>
				<g>
					<path class="st11" d="M1660.72,680.22l-3.15,12.32c-0.29,1.15-1.45,1.86-2.6,1.6l-31.32-6.98c-1.24-0.28-1.99-1.55-1.63-2.77
						l3.61-12.16c0.33-1.1,1.45-1.77,2.58-1.52l30.87,6.82C1660.28,677.8,1661.03,679.02,1660.72,680.22z"/>
				</g>
			</g>
			<g>
				<g>
					<path class="st2" d="M1589.95,213.5c0.06,0,0.12-0.01,0.18-0.02c0.47-0.1,0.76-0.56,0.66-1.03l-25.97-120.67l-0.66-0.04
						c-0.36-0.02-36.62-1.9-56.64,4.48c-0.45,0.15-0.71,0.63-0.56,1.09c0.14,0.45,0.63,0.71,1.09,0.56
						c18.24-5.81,50.37-4.65,55.37-4.43l25.69,119.37C1589.19,213.22,1589.55,213.5,1589.95,213.5z"/>
				</g>
			</g>
		</g>
		<g>
			<g>
				<path class="st11" d="M1683.77,1375.44c0,0,12.23,102.73-57.89,170.41c-70.12,67.67-109.26,64.41-115.78,90.5h206v-277.22
					L1683.77,1375.44z"/>
			</g>
			<g>
				<path class="st12" d="M1748.43,1375.44c0,0-12.23,102.73,57.89,170.41c70.12,67.67,109.26,64.41,115.78,90.5h-206v-277.22
					L1748.43,1375.44z"/>
			</g>
			<g>
				<g>
					<path class="st1" d="M1573.13,1312.57c-87.5-18.17-160.93-80.35-212.36-179.81c-38.04-73.57-50.73-141.12-51.25-143.96
						c-1.08-5.89,0.51-11.96,4.34-16.56c3.83-4.6,9.51-7.26,15.5-7.26h142.41v40.36h-116.92c6.68,25.03,19.82,66.68,42.23,109.79
						c46.27,89.01,108.25,142.15,184.25,157.93L1573.13,1312.57z"/>
				</g>
			</g>
			<g>
				<g>
					<path class="st1" d="M1859.07,1312.57l-8.21-39.52c75.99-15.78,137.98-68.91,184.25-157.93
						c22.41-43.11,35.55-84.76,42.23-109.79h-116.92v-40.36h142.41c5.99,0,11.67,2.66,15.5,7.26c3.83,4.6,5.42,10.67,4.34,16.56
						c-0.52,2.84-13.21,70.39-51.25,143.96C2020,1232.23,1946.57,1294.4,1859.07,1312.57z"/>
				</g>
			</g>
			<g>
				<path class="st11" d="M1716.1,897.65h-265.52c0,0,19,485.94,265.52,502.25V897.65L1716.1,897.65z"/>
			</g>
			<g>
				<path class="st12" d="M1981.62,897.65H1716.1v502.25C1962.61,1383.59,1981.62,897.65,1981.62,897.65L1981.62,897.65z"/>
			</g>
			<g>
				<path class="st11" d="M1716.1,1395.01h-42.69c-5.85,0-10.59,4.74-10.59,10.59s4.74,10.59,10.59,10.59h42.69V1395.01z"/>
			</g>
			<g>
				<path class="st12" d="M1716.1,1395.01h42.69c5.85,0,10.59,4.74,10.59,10.59s-4.74,10.59-10.59,10.59h-42.69V1395.01z"/>
			</g>
			<g class="st13">
				<rect x="1450.09" y="1636.34" class="st1" width="532.01" height="38.05"/>
			</g>
			<g>
				<rect x="1432.08" y="897.65" class="st1" width="568.04" height="40.77"/>
			</g>
			<g>
				<path class="st2" d="M2000.12,939.03h-568.66v-42h28.93c0.34,0,0.62,0.28,0.62,0.62s-0.28,0.62-0.62,0.62h-27.7v39.53h567.43
					c0.34,0,0.62,0.28,0.62,0.62C2000.73,938.75,2000.46,939.03,2000.12,939.03z"/>
			</g>
			<g>
				<rect x="1460.34" y="1674.39" class="st12" width="511.51" height="209.81"/>
			</g>
			<g class="st13">
				<rect x="1369.74" y="1931.5" class="st1" width="692.71" height="36.69"/>
			</g>
			<g>
				<polygon class="st11" points="1993.6,1931.5 1438.6,1931.5 1460.34,1884.21 1971.85,1884.21 				"/>
			</g>
			<g>
				<polygon class="st1" points="1716.1,1041.15 1747.82,1105.42 1818.75,1115.73 1767.42,1165.76 1779.54,1236.41 1716.1,1203.05 
					1652.65,1236.41 1664.77,1165.76 1613.44,1115.73 1684.38,1105.42 				"/>
			</g>
			<g>
				<path class="st1" d="M1943.17,1604.82h-455.75c-2.63,0-4.77,2.13-4.77,4.77v21.99c0,2.63,2.13,4.77,4.77,4.77h455.75
					c2.63,0,4.77-2.13,4.77-4.77v-21.99C1947.94,1606.95,1945.8,1604.82,1943.17,1604.82z"/>
			</g>
			<g>
				<path class="st1" d="M1913.32,1819.49v-66.59c-12.58,0-22.78-10.2-22.78-22.78l0,0h-345.22l0,0c0,12.58-10.2,22.78-22.78,22.78
					v66.59c12.58,0,22.78,10.2,22.78,22.78h345.22C1890.54,1829.69,1900.74,1819.49,1913.32,1819.49z"/>
			</g>
			<g>
				<path class="st14" d="M1913.32,1735.8c0,3.03-2.45,5.48-5.48,5.48c-3.03,0-5.48-2.45-5.48-5.48c0-3.03,2.45-5.48,5.48-5.48
					C1910.87,1730.32,1913.32,1732.77,1913.32,1735.8z"/>
			</g>
			<g>
				<path class="st14" d="M1913.32,1836.79c0,3.03-2.45,5.48-5.48,5.48c-3.03,0-5.48-2.45-5.48-5.48c0-3.03,2.45-5.48,5.48-5.48
					C1910.87,1831.31,1913.32,1833.77,1913.32,1836.79z"/>
			</g>
			<g>
				<path class="st14" d="M1533.5,1735.8c0,3.03-2.45,5.48-5.48,5.48c-3.03,0-5.48-2.45-5.48-5.48c0-3.03,2.45-5.48,5.48-5.48
					C1531.05,1730.32,1533.5,1732.77,1533.5,1735.8z"/>
			</g>
			<g>
				<path class="st14" d="M1533.5,1836.79c0,3.03-2.45,5.48-5.48,5.48c-3.03,0-5.48-2.45-5.48-5.48c0-3.03,2.45-5.48,5.48-5.48
					C1531.05,1831.31,1533.5,1833.77,1533.5,1836.79z"/>
			</g>
			<g>
				<rect x="1608.25" y="1759.66" class="st14" width="205.25" height="5.36"/>
			</g>
			<g>
				<rect x="1585.85" y="1779.3" class="st14" width="250.05" height="5.36"/>
			</g>
			<g>
				<rect x="1608.25" y="1798.95" class="st14" width="205.25" height="5.36"/>
			</g>
			<g>
				<path class="st2" d="M1496.58,1605.56c-0.34,0-0.62-0.28-0.62-0.62c0-0.34,0.28-0.62,0.62-0.62l435.37-0.13
					c0.34,0,0.62,0.28,0.62,0.62c0,0.34-0.28,0.62-0.62,0.62L1496.58,1605.56z"/>
			</g>
			<g>
				<path class="st2" d="M1758.78,1395.63h-85.37c-0.34,0-0.62-0.28-0.62-0.62c0-0.34,0.28-0.62,0.62-0.62h85.37
					c0.34,0,0.62,0.28,0.62,0.62C1759.4,1395.35,1759.12,1395.63,1758.78,1395.63z"/>
			</g>
			<g>
				<path class="st2" d="M1758.78,1416.82h-85.37c-0.34,0-0.62-0.28-0.62-0.62c0-0.34,0.28-0.62,0.62-0.62h85.37
					c0.34,0,0.62,0.28,0.62,0.62C1759.4,1416.54,1759.12,1416.82,1758.78,1416.82z"/>
			</g>
			<g>
				<path class="st2" d="M1611.66,1559.61c-0.21,0-0.41-0.11-0.53-0.3c-0.18-0.29-0.08-0.67,0.21-0.85
					c0.15-0.09,15.16-9.29,31.4-31.32c14.99-20.34,34.14-56.08,40.18-110.86c0.04-0.34,0.35-0.59,0.68-0.54
					c0.34,0.04,0.58,0.34,0.54,0.68c-6.08,55.1-25.36,91.05-40.46,111.52c-16.39,22.2-31.56,31.5-31.71,31.59
					C1611.88,1559.58,1611.77,1559.61,1611.66,1559.61z"/>
			</g>
			<g>
				<path class="st2" d="M1884.97,1605.56c-0.09,0-0.17-0.02-0.26-0.06c-0.26-0.12-26.99-12.69-72.4-53.13
					c-0.25-0.23-0.28-0.62-0.05-0.87c0.23-0.25,0.61-0.28,0.87-0.05c45.24,40.3,71.83,52.81,72.09,52.93
					c0.31,0.14,0.44,0.51,0.3,0.82C1885.43,1605.43,1885.21,1605.56,1884.97,1605.56z"/>
			</g>
			<g>
				<path class="st2" d="M1800.47,1586.19c-0.15,0-0.31-0.06-0.43-0.17l-12.66-12.17c-0.25-0.24-0.25-0.63-0.02-0.87
					c0.24-0.25,0.63-0.25,0.87-0.02l12.66,12.17c0.25,0.24,0.25,0.63,0.02,0.87C1800.79,1586.12,1800.63,1586.19,1800.47,1586.19z"
					/>
			</g>
			<g>
				<path class="st2" d="M1800.47,1595.43c-0.15,0-0.31-0.06-0.43-0.17l-12.66-12.17c-0.25-0.24-0.25-0.63-0.02-0.87
					c0.24-0.25,0.63-0.25,0.87-0.02l12.66,12.17c0.25,0.24,0.25,0.63,0.02,0.87C1800.79,1595.37,1800.63,1595.43,1800.47,1595.43z"
					/>
			</g>
			<g>
				<path class="st2" d="M1583.34,1330.74c-0.18,0-0.35-0.08-0.48-0.22c-26.82-32.61-50.3-73.52-69.79-121.59
					c-15.59-38.44-28.68-81.53-38.9-128.06c-17.41-79.22-20.5-141.8-20.53-142.43c-0.02-0.34,0.25-0.63,0.59-0.64
					c0.34-0.01,0.63,0.25,0.64,0.59c0.03,0.62,3.12,63.12,20.51,142.24c16.04,72.99,47.88,175.46,108.44,249.11
					c0.22,0.26,0.18,0.65-0.08,0.87C1583.62,1330.69,1583.48,1330.74,1583.34,1330.74z"/>
			</g>
			<g>
				<path class="st2" d="M1936.86,1158.17c-0.07,0-0.14-0.01-0.21-0.04c-0.32-0.12-0.48-0.47-0.37-0.79
					c24.38-66.91,41.54-217.49,41.72-219c0.04-0.34,0.35-0.58,0.68-0.54c0.34,0.04,0.58,0.34,0.54,0.68
					c-0.17,1.51-17.35,152.23-41.78,219.28C1937.35,1158.02,1937.11,1158.17,1936.86,1158.17z"/>
			</g>
			<g>
				<path class="st2" d="M2096.47,1005.95h-86.25c-0.34,0-0.62-0.28-0.62-0.62c0-0.34,0.28-0.62,0.62-0.62h86.25
					c0.34,0,0.62,0.28,0.62,0.62C2097.08,1005.68,2096.81,1005.95,2096.47,1005.95z"/>
			</g>
			<g>
				<path class="st2" d="M2002.89,1168.46c-0.13,0-0.25-0.04-0.36-0.12c-0.27-0.2-0.33-0.59-0.13-0.86
					c0.52-0.71,52.03-71.7,74.34-162.28c0.08-0.33,0.42-0.53,0.75-0.45c0.33,0.08,0.53,0.42,0.45,0.75
					c-22.38,90.83-74.03,162.01-74.55,162.72C2003.27,1168.37,2003.08,1168.46,2002.89,1168.46z"/>
			</g>
			<g>
				<path class="st2" d="M1404.22,1005.95h-66.1c-0.34,0-0.62-0.28-0.62-0.62c0-0.34,0.28-0.62,0.62-0.62h66.1
					c0.34,0,0.62,0.28,0.62,0.62C1404.83,1005.68,1404.56,1005.95,1404.22,1005.95z"/>
			</g>
			<g>
				<path class="st2" d="M1409.33,1137.83c-0.21,0-0.41-0.1-0.52-0.29c-0.37-0.59-36.88-59.78-54.54-132.05
					c-0.08-0.33,0.12-0.66,0.45-0.75c0.33-0.08,0.66,0.12,0.74,0.45c17.61,72.07,54.03,131.11,54.39,131.7
					c0.18,0.29,0.09,0.67-0.2,0.85C1409.55,1137.8,1409.44,1137.83,1409.33,1137.83z"/>
			</g>
			<g>
				<path class="st2" d="M1569.19,1312.34c-0.03,0-0.06,0-0.09-0.01c-0.52-0.08-52.48-8.22-106.43-50.88
					c-0.27-0.21-0.31-0.6-0.1-0.87c0.21-0.27,0.6-0.31,0.86-0.1c53.7,42.46,105.34,50.55,105.85,50.62c0.34,0.05,0.57,0.36,0.52,0.7
					C1569.76,1312.12,1569.49,1312.34,1569.19,1312.34z"/>
			</g>
			<g>
				<path class="st2" d="M1938.46,1282.45c-0.22,0-0.43-0.12-0.54-0.32c-0.16-0.3-0.05-0.67,0.25-0.84
					c0.43-0.24,43.64-24.08,71.57-59.06c0.21-0.27,0.6-0.31,0.87-0.1c0.27,0.21,0.31,0.6,0.1,0.87
					c-28.09,35.18-71.5,59.14-71.94,59.38C1938.66,1282.43,1938.56,1282.45,1938.46,1282.45z"/>
			</g>
			<g>
				<path class="st2" d="M1929.76,1020.59c-0.17,0-0.35-0.07-0.47-0.21l-28.55-33.12c-0.22-0.26-0.19-0.65,0.06-0.87
					c0.26-0.22,0.65-0.19,0.87,0.06l28.55,33.12c0.22,0.26,0.19,0.65-0.07,0.87C1930.04,1020.55,1929.9,1020.59,1929.76,1020.59z"/>
			</g>
			<g>
				<path class="st2" d="M1932.1,1045.07c-0.17,0-0.35-0.07-0.47-0.21l-28.55-33.12c-0.22-0.26-0.19-0.65,0.06-0.87
					c0.26-0.22,0.65-0.19,0.87,0.06l28.55,33.12c0.22,0.26,0.19,0.65-0.07,0.87C1932.39,1045.02,1932.25,1045.07,1932.1,1045.07z"/>
			</g>
			<g>
				<path class="st2" d="M1652.65,1237.02c-0.03,0-0.07,0-0.1-0.01c-0.34-0.06-0.56-0.38-0.5-0.71l12.12-70.65
					c0.06-0.34,0.37-0.56,0.71-0.5c0.34,0.06,0.56,0.38,0.5,0.71l-12.12,70.65C1653.21,1236.81,1652.95,1237.02,1652.65,1237.02z"/>
			</g>
			<g>
				<path class="st2" d="M1613.44,1116.34c-0.3,0-0.56-0.22-0.61-0.53c-0.05-0.34,0.18-0.65,0.52-0.7l70.93-10.31
					c0.33-0.05,0.65,0.18,0.7,0.52c0.05,0.34-0.18,0.65-0.52,0.7l-70.93,10.31C1613.5,1116.34,1613.47,1116.34,1613.44,1116.34z"/>
			</g>
			<g>
				<path class="st2" d="M1747.82,1106.04c-0.23,0-0.45-0.13-0.55-0.34l-31.72-64.28c-0.15-0.31-0.02-0.67,0.28-0.83
					c0.3-0.15,0.67-0.03,0.83,0.28l31.72,64.28c0.15,0.31,0.02,0.67-0.28,0.83C1748.01,1106.02,1747.91,1106.04,1747.82,1106.04z"/>
			</g>
			<g>
				<path class="st2" d="M1767.42,1166.38c-0.16,0-0.32-0.06-0.44-0.19c-0.24-0.24-0.23-0.63,0.01-0.87l51.33-50.03
					c0.24-0.24,0.63-0.23,0.87,0.01c0.24,0.24,0.23,0.63-0.01,0.87l-51.33,50.03C1767.74,1166.32,1767.58,1166.38,1767.42,1166.38z"
					/>
			</g>
			<g>
				<path class="st2" d="M1779.54,1237.02c-0.1,0-0.19-0.02-0.29-0.07l-63.44-33.35c-0.3-0.16-0.42-0.53-0.26-0.83
					c0.16-0.3,0.53-0.42,0.83-0.26l63.44,33.35c0.3,0.16,0.42,0.53,0.26,0.83C1779.98,1236.9,1779.76,1237.02,1779.54,1237.02z"/>
			</g>
			<g>
				<path class="st2" d="M1982.1,1675.01c-0.34,0-0.62-0.28-0.62-0.62v-37.43h-530.78v37.43c0,0.34-0.28,0.62-0.62,0.62
					c-0.34,0-0.62-0.28-0.62-0.62v-38.67h533.24v38.67C1982.72,1674.73,1982.44,1675.01,1982.1,1675.01z"/>
			</g>
			<g>
				<path class="st2" d="M1913.32,1753.52c-0.02,0-0.04,0-0.06,0c-21.44-1.94-23.2-19.22-23.33-22.78h-344.61
					c-0.34,0-0.62-0.28-0.62-0.62s0.28-0.62,0.62-0.62h345.85l-0.02,0.64c-0.03,0.82-0.4,20.09,22.22,22.15
					c0.34,0.03,0.59,0.33,0.56,0.67C1913.91,1753.28,1913.64,1753.52,1913.32,1753.52z"/>
			</g>
			<g>
				<path class="st2" d="M1832.61,1842.89h-287.29c-0.34,0-0.62-0.28-0.62-0.62s0.28-0.62,0.62-0.62h287.29
					c0.34,0,0.62,0.28,0.62,0.62S1832.95,1842.89,1832.61,1842.89z"/>
			</g>
			<g>
				<path class="st2" d="M1993.6,1932.11c-0.23,0-0.46-0.13-0.56-0.36l-21.58-46.93h-511.12c-0.34,0-0.62-0.28-0.62-0.62
					s0.28-0.62,0.62-0.62h511.91l0.17,0.36l21.74,47.29c0.14,0.31,0.01,0.68-0.3,0.82
					C1993.77,1932.1,1993.68,1932.11,1993.6,1932.11z"/>
			</g>
			<g>
				<path class="st2" d="M2017.24,1932.11H1613.1c-0.34,0-0.62-0.28-0.62-0.62s0.28-0.62,0.62-0.62h404.14
					c0.34,0,0.62,0.28,0.62,0.62S2017.58,1932.11,2017.24,1932.11z"/>
			</g>
			<g>
				<path class="st2" d="M1467.88,1908.09c-0.2,0-0.4-0.1-0.52-0.28c-0.19-0.28-0.11-0.67,0.18-0.85l19.97-13.09
					c0.29-0.19,0.67-0.11,0.85,0.18c0.19,0.29,0.11,0.67-0.18,0.85l-19.97,13.09C1468.12,1908.06,1468,1908.09,1467.88,1908.09z"/>
			</g>
			<g>
				<path class="st2" d="M1467.88,1918.92c-0.2,0-0.4-0.1-0.52-0.28c-0.19-0.29-0.11-0.67,0.18-0.85l19.97-13.09
					c0.29-0.19,0.67-0.11,0.85,0.18c0.19,0.28,0.11,0.67-0.18,0.85l-19.97,13.09C1468.12,1918.89,1468,1918.92,1467.88,1918.92z"/>
			</g>
			<g>
				<path class="st2" d="M2062.45,1932.11H1613.1c-0.34,0-0.62-0.28-0.62-0.62s0.28-0.62,0.62-0.62h449.35
					c0.34,0,0.62,0.28,0.62,0.62S2062.79,1932.11,2062.45,1932.11z"/>
			</g>
		</g>
	</g>
	<g>
		<g>
			<g>
				<path class="st3" d="M2618.33,1732.96l15.61,24.87l104.51,67.79l12.04,11.25l-10.57,27.95l-18.46,7.17
					c0,0-142.65-64.68-148.8-73.11c-6.15-8.43-15.76-32.15-15.76-32.15s-15.05-47.77-10.68-54.71c4.36-6.94,30.77-15.73,32.56-15.19
					C2580.59,1697.36,2618.33,1732.96,2618.33,1732.96z"/>
			</g>
			<g>
				<g>
					<path class="st14" d="M2761.01,1847.07l-18.07,63.76c-0.25,0.55-0.48,1-0.68,1.31c-3.54,5.48-6.8,2.44-6.8,2.44l-13.99-42.59
						l11.89-14.54c0,0,11.75-25.9,5.09-31.82l19.96,5.9C2758.41,1831.52,2765.38,1831.27,2761.01,1847.07z"/>
				</g>
			</g>
			<g>
				<path class="st3" d="M2499.29,1802.98l-19.74,21.74l-37.09,118.92l-7.58,14.63l-29.76-2.64l-11.88-15.84
					c0,0,23.8-154.81,30.27-163.01c6.46-8.2,26.71-23.85,26.71-23.85s41.94-27.38,49.8-25.05c7.86,2.33,23.45,25.38,23.41,27.26
					C2523.39,1757.03,2499.29,1802.98,2499.29,1802.98z"/>
			</g>
			<g>
				<g>
					<path class="st14" d="M2427.9,1971.14l-66.27-0.2c-0.6-0.09-1.09-0.19-1.45-0.3c-6.23-1.93-4.18-5.89-4.18-5.89l37.24-24.96
						l17.21,7.52c0,0,28.11,4.33,32.02-3.68l-0.3,20.81C2442.17,1964.45,2444.3,1971.09,2427.9,1971.14z"/>
				</g>
			</g>
			<g>
				<path class="st6" d="M2616.58,1776.16c0.5,0.15,1.07,0.01,1.46-0.39l15.93-16.63c0.56-0.58,0.54-1.5-0.05-2.05
					c-0.58-0.56-1.5-0.54-2.05,0.04l-15.93,16.63c-0.56,0.58-0.54,1.5,0.04,2.05C2616.16,1775.98,2616.36,1776.1,2616.58,1776.16z"
					/>
			</g>
			<g>
				<path class="st4" d="M2573.27,1343.39c1.45,0.04,2.93,0.11,4.3,0.59c2.83,1.01,4.73,3.6,6.46,6.05
					c2.84,4.03,5.77,8.34,6.08,13.26c0.3,4.78-1.8,10.16,1.02,14.02c1.07,1.47,2.69,2.41,4.24,3.37c2.15,1.33,4.24,2.75,6.26,4.27
					c1.14,0.86,2.29,1.77,3.08,2.96c1.11,1.67,1.42,3.73,1.7,5.72c0.48,3.38,0.96,6.77,1.45,10.15c0.27,1.92,0.54,3.9,0,5.76
					c-1.12,3.84-5.25,5.9-9.09,7.01c-3.84,1.11-8.06,1.84-10.92,4.64c-2.35,2.3-3.37,5.61-5.13,8.4c-2.7,4.26-7.16,7.21-11.97,8.73
					c-4.8,1.53-9.94,1.72-14.97,1.34c-1.44-0.11-2.91-0.28-4.19-0.94c-1.06-0.54-1.92-1.39-2.77-2.23
					c-6.97-6.87-14.22-14.23-16.65-23.71c-0.86-3.35-1.07-6.83-1.27-10.29c-0.68-11.41-1.35-22.82-2.03-34.23
					c-0.1-1.71-0.2-3.43,0.04-5.12c0.33-2.31,1.27-4.48,2.21-6.62c1.47-3.35,2.93-6.7,4.66-9.92c1.07-1.99,2.27-3.98,4.05-5.37
					c1.78-1.39,4.26-2.09,6.35-1.23c2.26,0.93,3.75,3.48,6.17,3.84c1.89,0.28,3.49-0.29,5.36,0.42c1.52,0.58,2.3,1.09,3.94,0.71
					C2565.65,1344.06,2569.08,1343.28,2573.27,1343.39z"/>
			</g>
			<g>
				<g>
					<g>
						<path class="st3" d="M2444.41,1458.59c0,0-42.06-12.46-47.47-15.38c-12.22-6.6-102.72-87.27-102.72-87.27l25.03-26.42
							l114.53,86.85L2444.41,1458.59z"/>
					</g>
				</g>
				<g>
					<g>
						<g>
							<path class="st3" d="M2263.16,1328.31c0.84-1.66,2.89-2.31,4.6-1.57l10.63,4.57c0.33,0.14,0.72,0.06,0.96-0.21l0,0
								c0.36-0.4,0.26-1.02-0.19-1.3l-14.66-8.77c-1.68-1-1.98-3.01-0.67-4.47l0,0c1.31-1.45,3.76-1.82,5.44-0.81l14.95,8.94
								c0.35,0.21,0.79,0.14,1.06-0.16l0.19-0.21c0.31-0.35,0.29-0.88-0.06-1.2l-14.34-12.96c-1.38-1.25-1.64-3.38-0.49-4.83
								c1.27-1.6,3.59-1.77,5.08-0.43l14.42,13.04c0.35,0.31,0.88,0.29,1.2-0.06l0.61-0.67c0.29-0.32,0.29-0.79,0.02-1.12
								l-11.71-13.76c-1.21-1.42-1.19-3.56,0.15-4.86c1.46-1.42,3.79-1.29,5.09,0.24c0,0,18.99,20.02,22.21,22.9l1.38-10
								c-0.1-1.93,1.39-3.57,3.31-3.66l0,0c1.93-0.1,3.56,1.39,3.66,3.31l3.73,22.17c0.06,1.26-1.62,3.13-3.33,4.31
								c-12.61,16.29-14.69,18.69-18.49,22.77l-15.83-15.31c-4.57-4.42-9.9-7.97-15.74-10.48l-1.47-0.63
								C2263.05,1332.31,2262.24,1330.12,2263.16,1328.31z"/>
						</g>
					</g>
				</g>
			</g>
			<g>
				<path class="st2" d="M2502.42,1383.56c-9.1-3.36-13.17-56.2,32.35-51.08c0,0,0.13,25.55,0,26.8
					C2534.64,1360.52,2502.42,1383.56,2502.42,1383.56z"/>
			</g>
			<g>
				<path class="st11" d="M2475.99,1422.27c0,0,89.9,4.31,99.75,6.77c2.82,7.58,2.66,40.87,28.94,151.48
					c0,0-78.17,15.48-74.47,27.18c0,0-60.02,8.06-88.03-53.04l4.67-34.45c0,0,9.09-69.33,15.38-96.02
					C2463.94,1423.36,2472.41,1422.15,2475.99,1422.27z"/>
				<path class="st11" d="M2464.41,1448.54c4.37-13.43,4.73-25.76,4.73-25.76c-28.9-12.52-84.81-46.6-84.81-46.6
					c-19.07,28.33-26.37,55.92-26.37,55.92c62.12,41.04,95.88,69.23,95.88,69.23C2459.88,1481.28,2464.41,1448.54,2464.41,1448.54z"
					/>
				<g>
					<g>
						<g>
							<path class="st3" d="M2594.44,1468.67c0,0,42.06-12.46,47.47-15.38c12.22-6.6,102.72-87.27,102.72-87.27l-25.03-26.42
								l-114.53,86.85L2594.44,1468.67z"/>
						</g>
					</g>
					<g>
						<g>
							<g>
								<path class="st3" d="M2775.69,1338.39c-0.84-1.66-2.89-2.31-4.6-1.57l-10.63,4.57c-0.33,0.14-0.72,0.06-0.96-0.21l0,0
									c-0.36-0.4-0.26-1.02,0.19-1.3l14.66-8.77c1.68-1,1.98-3.01,0.67-4.47l0,0c-1.31-1.45-3.76-1.82-5.44-0.81l-14.95,8.94
									c-0.35,0.21-0.79,0.14-1.06-0.16l-0.19-0.21c-0.31-0.35-0.29-0.88,0.06-1.2l14.33-12.96c1.38-1.25,1.64-3.38,0.49-4.83
									c-1.27-1.6-3.59-1.77-5.08-0.43l-14.42,13.04c-0.35,0.31-0.88,0.29-1.2-0.06l-0.61-0.67c-0.29-0.32-0.29-0.79-0.02-1.12
									l11.71-13.76c1.21-1.42,1.19-3.56-0.15-4.86c-1.46-1.42-3.79-1.29-5.09,0.24c0,0-18.99,20.02-22.21,22.9l-1.38-10
									c0.1-1.93-1.39-3.57-3.31-3.66l0,0c-1.93-0.1-3.56,1.39-3.66,3.31l-3.73,22.17c-0.06,1.26,1.62,3.13,3.33,4.31
									c12.61,16.29,14.69,18.69,18.49,22.77l15.82-15.31c4.57-4.42,9.9-7.97,15.74-10.48l1.47-0.63
									C2775.8,1342.4,2776.62,1340.21,2775.69,1338.39z"/>
							</g>
						</g>
					</g>
				</g>
				<path class="st11" d="M2578.8,1454.51c-4.37-13.43-4.65-25.77-4.65-25.77c28.9-12.52,84.73-46.59,84.73-46.59
					c19.07,28.33,26.37,55.92,26.37,55.92c-62.12,41.04-95.88,69.23-95.88,69.23C2583.33,1487.25,2578.8,1454.51,2578.8,1454.51z"/>
			</g>
			<g>
				<g>
					<g>
						<g>
							<path class="st3" d="M2513.11,1347.62c0,0-21.9,40.47-2.68,55.8l-5.51,24.72l30.53,2.59l15.19-70.4c0,0-5-19.16-5.15-18.45
								C2545.33,1342.59,2513.11,1347.62,2513.11,1347.62z"/>
						</g>
					</g>
				</g>
			</g>
			<g>
				<g>
					<g>
						<g>
							<path class="st6" d="M2513.88,1382.16c0.12,0.03,0.25-0.04,0.31-0.16c0.06-0.14,0-0.3-0.14-0.36
								c-1.65-0.75-2.29-3.12-2.45-3.88c2.75-0.78,4.62-2.17,5.56-4.12c1.54-3.18,0.07-6.68,0.01-6.82
								c-0.06-0.14-0.22-0.2-0.36-0.14c-0.14,0.06-0.2,0.22-0.14,0.36c0.01,0.03,1.44,3.42,0,6.37c-0.9,1.86-2.74,3.17-5.45,3.89
								l-0.24,0.06l0.04,0.24c0.02,0.14,0.57,3.53,2.81,4.54C2513.84,1382.15,2513.86,1382.16,2513.88,1382.16z"/>
						</g>
					</g>
				</g>
			</g>
			<g>
				<g>
					<g>
						<g>
							<path class="st6" d="M2508.61,1411.84l1.82-8.42c0,0,14.42,2.23,24.34-1.39C2534.76,1402.03,2520.45,1410.87,2508.61,1411.84
								z"/>
						</g>
					</g>
				</g>
			</g>
			<g>
				<g>
					<g>
						<g>
							<path class="st2" d="M2522.43,1372.27c-0.2,0.94,0.4,1.87,1.34,2.08c0.94,0.2,1.87-0.4,2.08-1.34
								c0.2-0.94-0.4-1.87-1.34-2.08C2523.57,1370.73,2522.64,1371.33,2522.43,1372.27z"/>
						</g>
					</g>
				</g>
			</g>
			<g>
				<g>
					<g>
						<g>
							<path class="st2" d="M2508.98,1369.82c-0.2,0.94,0.4,1.87,1.34,2.08c0.94,0.2,1.87-0.4,2.08-1.34
								c0.2-0.94-0.4-1.87-1.34-2.08C2510.12,1368.27,2509.19,1368.87,2508.98,1369.82z"/>
						</g>
					</g>
				</g>
			</g>
			<g>
				<g>
					<g>
						<path class="st2" d="M2507.42,1367.38c0.14,0.06,0.32,0.05,0.46-0.04c0.03-0.02,3.52-2.22,7.1-1.11
							c0.26,0.08,0.54-0.06,0.62-0.32c0.08-0.26-0.06-0.54-0.32-0.62c-4.02-1.25-7.77,1.12-7.92,1.22
							c-0.23,0.15-0.29,0.45-0.15,0.68C2507.25,1367.28,2507.33,1367.35,2507.42,1367.38z"/>
					</g>
				</g>
			</g>
			<g>
				<g>
					<g>
						<path class="st2" d="M2529.04,1372.14c0.14,0.06,0.32,0.05,0.46-0.04c0.23-0.15,0.3-0.45,0.15-0.68
							c-0.1-0.16-2.53-3.87-6.7-4.4c-0.27-0.03-0.52,0.16-0.55,0.43c-0.03,0.27,0.16,0.52,0.43,0.55c3.72,0.48,5.97,3.92,6,3.95
							C2528.88,1372.04,2528.96,1372.1,2529.04,1372.14z"/>
					</g>
				</g>
			</g>
			<g>
				<g>
					<path class="st3" d="M2509.29,1439.92c-17.89-3.25-30.55-9.5-40.15-17.14c23.1-2.96,67.53-2.65,67.53-2.65
						s5.47,0.86,37.48,8.61C2566.47,1434.59,2543.37,1446.12,2509.29,1439.92z"/>
				</g>
			</g>
			<g>
				<g>
					<g>
						<path class="st7" d="M2510.08,1385.49c0.17-0.04,10.97-0.98,10.97-0.98s-1.07,4.56-5.09,4.92
							C2511.95,1389.79,2510.08,1385.49,2510.08,1385.49z"/>
					</g>
				</g>
			</g>
			<g>
				<path class="st2" d="M2512.44,1346.35c0,0,12.99,26.31,34.27,32.16l-5.69,26.38c0,0,15.8-3.8,20.31-19.5
					c4.51-15.7,6.95-47.04-19.86-52.1C2515.56,1328.4,2512.44,1346.35,2512.44,1346.35z"/>
			</g>
			<g>
				<g>
					<g>
						<g>
							<g>
								<path class="st3" d="M2539.14,1385.07c-1,4.64,1.95,9.22,6.59,10.22c4.64,1,9.22-1.95,10.22-6.59
									c1-4.64-1.95-9.22-6.59-10.22C2544.72,1377.48,2540.14,1380.43,2539.14,1385.07z"/>
							</g>
						</g>
					</g>
				</g>
				<g>
					<g>
						<g>
							<g>
								<path class="st6" d="M2547.05,1392.21c1.76,0.38,3.23-0.69,3.9-1.93c0.8-1.47,0.6-3.11-0.5-4.17
									c-1.57-1.52-3.36-1.21-4.38-0.84c0.55-0.82,1.25-1.35,2.06-1.6c1.84-0.55,3.73,0.55,3.75,0.56c0.13,0.08,0.3,0.03,0.38-0.1
									c0.08-0.13,0.03-0.3-0.1-0.38c-0.09-0.05-2.12-1.23-4.19-0.62c-1.2,0.36-2.15,1.24-2.83,2.62l-0.44,0.89l0.83-0.53
									c0.1-0.07,2.5-1.56,4.52,0.39c1.12,1.08,0.92,2.57,0.4,3.51c-0.54,0.99-1.73,2.01-3.35,1.65c-0.14-0.04-0.3,0.06-0.33,0.21
									c-0.03,0.15,0.06,0.3,0.21,0.33C2547.01,1392.2,2547.03,1392.2,2547.05,1392.21z"/>
							</g>
						</g>
					</g>
				</g>
			</g>
			<g>
				<g>
					<path class="st15" d="M2563.97,1372c-0.04,0-0.09,0-0.14-0.01c-0.77-0.07-1.33-0.76-1.26-1.53c1.35-14-4.17-24.07-4.22-24.17
						c-0.38-0.67-0.14-1.53,0.54-1.9c0.67-0.38,1.52-0.14,1.9,0.53c0.25,0.44,6.01,10.9,4.57,25.81
						C2565.29,1371.46,2564.68,1372,2563.97,1372z"/>
				</g>
			</g>
			<g>
				<path class="st1" d="M2604.68,1580.52c0,0-24.63-20.94-29.84-22.52c-5.21-1.58-10.39-124.38-10.87-131.72
					c-4.69-3.83-12.15-2.86-12.15-2.86c-1.8,24.9-9.32,105.98-9.32,105.98h-56.04l0.82-108.12c-6.86-1.74-11.02,0.66-11.02,0.66
					s-15.05,106.84-16.9,126.55l-17.18,6.17l-29.61,240.14c121.31,66.5,257.35-18.59,257.35-18.59
					C2624.95,1704.16,2604.68,1580.52,2604.68,1580.52z"/>
			</g>
		</g>
		<g>
			<path class="st10" d="M2487.1,1444.38L2487.1,1444.38c-0.37,0-0.67-0.3-0.67-0.67l0.17-21.9c-1.64-0.42-7.06-1.55-9.93,0.67
				c-0.29,0.23-0.71,0.17-0.94-0.12c-0.23-0.29-0.17-0.71,0.12-0.94c3.94-3.05,11.31-0.86,11.62-0.77l0.48,0.15l-0.17,22.91
				C2487.77,1444.08,2487.47,1444.38,2487.1,1444.38z"/>
		</g>
		<path class="st10" d="M2413.31,1794.23l37.98-302.12c0.05-0.37-0.21-0.7-0.58-0.75c-0.36-0.04-0.7,0.21-0.75,0.58L2412,1794.01
			C2411.84,1794.92,2413.15,1795.14,2413.31,1794.23z"/>
		<g>
			<path class="st10" d="M2613.93,1626.85c-0.31,0-0.59-0.22-0.65-0.53l-29.44-141.29c-0.08-0.36,0.16-0.72,0.52-0.79
				c0.36-0.07,0.72,0.16,0.79,0.52l29.44,141.29c0.08,0.36-0.16,0.71-0.52,0.79C2614.02,1626.85,2613.98,1626.85,2613.93,1626.85z"
				/>
		</g>
		<g>
			<path class="st10" d="M2548.79,1530.02h-67.02c-0.37,0-0.67-0.3-0.67-0.67c0-0.37,0.3-0.67,0.67-0.67h67.02
				c0.37,0,0.67,0.3,0.67,0.67C2549.46,1529.72,2549.16,1530.02,2548.79,1530.02z"/>
		</g>
		<g>
			<path class="st12" d="M2476.26,1548.84h76.04c0,0,2.62,46.47-38.01,46.42C2475.44,1595.21,2476.26,1548.84,2476.26,1548.84z"/>
		</g>
		<g>
			<path class="st10" d="M2514.35,1595.93c-0.02,0-0.05,0-0.07,0c-10.47-0.01-19.07-3.37-25.55-9.97
				c-13.4-13.66-13.15-36.9-13.15-37.13l0.01-0.66h77.33l0.04,0.63c0.01,0.23,1.14,22.96-11.85,36.68
				C2534.56,1592.42,2525.56,1595.93,2514.35,1595.93z M2476.93,1549.51c0.07,3.83,1,23.54,12.76,35.52
				c6.22,6.33,14.49,9.55,24.59,9.56c0.02,0,0.04,0,0.07,0c10.82,0,19.5-3.37,25.8-10.02c11.4-12.04,11.58-31.34,11.5-35.06H2476.93
				z"/>
		</g>
		<g>
			<path class="st10" d="M2566.67,1478.97c-0.35,0-0.65-0.28-0.67-0.63l-2.69-51.73c-3.9-3.26-9.25-2.83-10.87-2.6l-2.25,27.47
				c-0.03,0.37-0.35,0.65-0.72,0.61c-0.37-0.03-0.64-0.35-0.61-0.72l2.34-28.49l0.49-0.1c0.31-0.06,7.59-1.51,12.72,3.01l0.21,0.19
				l2.72,52.3c0.02,0.37-0.26,0.68-0.63,0.7C2566.7,1478.97,2566.68,1478.97,2566.67,1478.97z"/>
		</g>
		<g>
			<path class="st10" d="M2532.08,1802.34c-0.67,0.05-1.33,0.09-2,0.13c-62.7,3.95-115.65-16.98-116.18-17.19
				c-0.34-0.14-0.51-0.53-0.37-0.87c0.14-0.34,0.53-0.51,0.87-0.37c0.52,0.21,53.21,21.03,115.59,17.1
				c0.66-0.04,1.33-0.09,1.99-0.13c61.5-4.39,112.5-31.71,113.02-31.99c0.32-0.18,0.73-0.06,0.91,0.27
				c0.18,0.32,0.06,0.73-0.27,0.91C2645.13,1770.46,2593.88,1797.93,2532.08,1802.34z"/>
		</g>
	</g>
	<g>
		<g>
			<path class="st10" d="M606.49,1786.85c0.76,0,1.38-0.62,1.38-1.38V1345.2c0-47.56,38.69-86.25,86.25-86.25
				c41.28,0,76.89,29.37,84.69,69.83c0.14,0.75,0.88,1.24,1.62,1.1c0.75-0.14,1.24-0.87,1.09-1.62
				c-8.05-41.76-44.81-72.07-87.4-72.07c-49.08,0-89.01,39.93-89.01,89.01v440.27C605.11,1786.23,605.73,1786.85,606.49,1786.85z"/>
		</g>
		<g>
			<g>
				<path class="st10" d="M720.85,1158.91c0.12,0,0.24-0.02,0.36-0.05c0.74-0.2,1.17-0.96,0.97-1.69
					c-4.67-17.31,0.89-24.37,0.95-24.44c0.48-0.59,0.4-1.46-0.18-1.94c-0.58-0.49-1.44-0.42-1.94,0.16
					c-0.27,0.32-6.59,8.07-1.5,26.94C719.69,1158.5,720.24,1158.91,720.85,1158.91z"/>
			</g>
		</g>
		<g>
			<g>
				<path class="st10" d="M733.52,1165.69c0.18,0,0.37-0.04,0.55-0.12c0.7-0.3,1.02-1.12,0.72-1.82
					c-7.15-16.44-2.68-24.24-2.64-24.31c0.39-0.65,0.19-1.5-0.46-1.9c-0.65-0.39-1.49-0.2-1.89,0.45
					c-0.22,0.36-5.34,8.94,2.46,26.87C732.48,1165.38,732.99,1165.69,733.52,1165.69z"/>
			</g>
		</g>
		<g>
			<g>
				<path class="st10" d="M816.1,1582.96c0.42,0,0.84-0.19,1.11-0.56l26.26-35.49c0.45-0.61,0.32-1.48-0.29-1.93
					c-0.61-0.45-1.48-0.32-1.93,0.29l-26.26,35.49c-0.45,0.61-0.32,1.48,0.29,1.93C815.52,1582.87,815.81,1582.96,816.1,1582.96z"/>
			</g>
		</g>
		<g>
			<g>
				<path class="st10" d="M824.56,1602.81c0.42,0,0.84-0.19,1.11-0.56l26.26-35.49c0.45-0.61,0.32-1.48-0.29-1.93
					c-0.61-0.45-1.48-0.32-1.93,0.29l-26.26,35.49c-0.45,0.61-0.32,1.48,0.29,1.93C823.98,1602.72,824.27,1602.81,824.56,1602.81z"
					/>
			</g>
		</g>
		<g>
			<g>
				<path class="st10" d="M660.63,1355.29c0.44,0,0.87-0.21,1.13-0.59l24.73-35.49c0.44-0.63,0.28-1.49-0.34-1.92
					c-0.63-0.44-1.49-0.28-1.92,0.34l-24.73,35.49c-0.44,0.63-0.28,1.49,0.34,1.92C660.08,1355.21,660.36,1355.29,660.63,1355.29z"
					/>
			</g>
		</g>
		<g>
			<g>
				<path class="st10" d="M668.6,1375.15c0.44,0,0.87-0.21,1.13-0.59l24.73-35.49c0.44-0.63,0.28-1.49-0.34-1.92
					c-0.63-0.44-1.49-0.28-1.92,0.34l-24.73,35.49c-0.44,0.63-0.28,1.49,0.34,1.92C668.05,1375.07,668.33,1375.15,668.6,1375.15z"/>
			</g>
		</g>
		<g>
			<g>
				<g>
					<g>
						<g>
							<rect x="585.72" y="1558.06" class="st16" width="11.26" height="40.7"/>
						</g>
					</g>
				</g>
			</g>
		</g>
		<g>
			<g>
				<g>
					<g>
						<g>
							<g>
								<g>
									<g>
										<polygon class="st3" points="623.14,1932.33 551.84,1937.12 562.03,1839.29 638.72,1856.26 										"/>
									</g>
								</g>
							</g>
						</g>
					</g>
				</g>
			</g>
		</g>
		<g>
			<g>
				<g>
					<g>
						<g>
							<g>
								<g>
									<g>
										<polygon class="st3" points="963.84,1927.91 882.84,1937.12 881.69,1917.49 874.81,1848.3 940.7,1832.5 										"/>
									</g>
								</g>
							</g>
						</g>
					</g>
				</g>
			</g>
		</g>
		<g>
			<path class="st1" d="M817.35,1270.2c0,0,100.27,182.3,102.55,210.79c2.28,28.49,52.41,390.82,52.41,390.82
				s-61.16,26.17-106.22,13.63c0,0-66.18-326.82-79.88-351.59c-22.06-39.88-60.94-131.99-60.94-131.99s3.87,149.51-0.69,170.02
				c-4.56,20.51-67.02,298.29-67.02,298.29s-89.59-1.36-112.38-17.31l39.73-300.09c0,0-43.3-213.07,14.81-293.97
				C657.83,1177.91,817.35,1270.2,817.35,1270.2z"/>
		</g>
		<g>
			<g>
				<g>
					<g>
						<path class="st3" d="M434.98,831.51c1.92-2.02,5.14-2.08,7.29-0.3l13.34,11.11c0.42,0.35,1.01,0.39,1.48,0.11l0,0
							c0.69-0.42,0.82-1.36,0.27-1.95l-17.35-18.88c-1.99-2.16-1.56-5.18,0.95-6.71h0c2.51-1.53,6.19-1.01,8.18,1.15l17.7,19.25
							c0.41,0.45,1.08,0.54,1.6,0.23l0.37-0.22c0.6-0.37,0.79-1.15,0.42-1.75l-15.09-24.77c-1.45-2.38-0.92-5.56,1.36-7.16
							c2.5-1.76,5.93-1.01,7.49,1.56l15.18,24.93c0.37,0.6,1.15,0.79,1.75,0.42l1.17-0.71c0.55-0.33,0.76-1.02,0.5-1.6l-10.98-24.8
							c-1.13-2.55-0.19-5.63,2.28-6.92c2.71-1.42,6.01-0.23,7.23,2.52c0,0,18.77,36.91,22.17,42.44l6.26-13.79
							c0.68-2.81,3.52-4.54,6.33-3.85l0,0c2.81,0.68,4.54,3.52,3.85,6.33l-4.1,33.49c-0.45,1.83-3.66,3.81-6.63,4.77
							c-25.11,18.05-29.12,20.62-36.34,24.87l-16.23-28.79c-4.68-8.31-10.84-15.69-18.17-21.8l-1.84-1.53
							C433.11,837.23,432.88,833.73,434.98,831.51z"/>
					</g>
				</g>
			</g>
			<g>
				<g>
					<path class="st3" d="M574.55,1055.05c-19.42-7.59-106.68-170.51-106.68-170.51l47.3-27.31L624,989.89
						C624,989.89,593.97,1062.64,574.55,1055.05z"/>
				</g>
			</g>
		</g>
		<g>
			<g>
				<g>
					<g>
						<path class="st3" d="M1057.91,831.51c-1.92-2.02-5.14-2.08-7.29-0.3l-13.34,11.11c-0.42,0.35-1.01,0.39-1.48,0.11l0,0
							c-0.69-0.42-0.82-1.36-0.28-1.95l17.35-18.88c1.99-2.16,1.56-5.18-0.95-6.71h0c-2.51-1.53-6.19-1.01-8.18,1.15l-17.7,19.25
							c-0.41,0.45-1.08,0.54-1.6,0.23l-0.37-0.22c-0.6-0.37-0.79-1.15-0.43-1.75l15.09-24.77c1.45-2.38,0.92-5.56-1.36-7.16
							c-2.5-1.76-5.93-1.01-7.49,1.56l-15.18,24.93c-0.37,0.6-1.15,0.79-1.75,0.42l-1.17-0.71c-0.55-0.33-0.76-1.02-0.5-1.6
							l10.98-24.8c1.13-2.55,0.19-5.63-2.28-6.92c-2.71-1.42-6.01-0.23-7.23,2.52c0,0-18.77,36.91-22.17,42.44l-6.26-13.79
							c-0.68-2.81-3.52-4.54-6.33-3.85l0,0c-2.81,0.68-4.54,3.52-3.85,6.33l4.1,33.49c0.45,1.83,3.66,3.81,6.63,4.77
							c25.11,18.05,29.12,20.62,36.34,24.87l16.23-28.79c4.68-8.31,10.84-15.69,18.17-21.8l1.84-1.53
							C1059.78,837.23,1060.02,833.73,1057.91,831.51z"/>
					</g>
				</g>
			</g>
			<g>
				<g>
					<path class="st3" d="M918.35,1055.05c19.42-7.59,106.68-170.51,106.68-170.51l-47.3-27.31L868.9,989.89
						C868.9,989.89,898.93,1062.64,918.35,1055.05z"/>
				</g>
			</g>
		</g>
		<g>
			<path class="st11" d="M858.37,1040.04c0,0,4.56,76.91,0,92.29s-41.02,137.87-41.02,137.87s-129.89,29.05-217.63-11.39
				c0,0,35.96-91.16,34.25-106.88c-1.71-15.72,18.13-115.32,18.13-115.32L858.37,1040.04z"/>
		</g>
		<g>
			<path class="st11" d="M665.88,1036.84c0,0-36.72-54.12-50.96-71.21c0,0-55.34,39.65-69.01,70.98c0,0,62.53,82.03,106.03,100.27
				C695.43,1155.12,665.88,1036.84,665.88,1036.84z"/>
		</g>
		<g>
			<path class="st11" d="M832.51,1035.99c0,0,28.16-46,39.44-65.18c0,0,73.6,18.37,92.18,47.07c0,0-60.31,80.72-113.26,151.86
				C822.71,1207.57,832.51,1035.99,832.51,1035.99z"/>
		</g>
		<g>
			<g>
				<g>
					<path class="st2" d="M793.61,946c0,0,8.76-20.29-14.48-37.01c-23.24-16.72-26.75,12.06-35.68,14.81
						c-8.93,2.75-25.13-0.32-30.95,16.47c-5.82,16.79-2.31,29.02-11.7,31.75c-9.39,2.72-40.04,27.03-31.64,58.31
						c8.39,31.28,38.93,29.16,38.93,29.16s120.02,3.44,127.69-27.87c7.67-31.31-4.11-44.65-19.48-54.97
						C806.84,970.29,787.97,965.18,793.61,946z"/>
				</g>
			</g>
			<g>
				<g>
					<g>
						<path class="st3" d="M845.22,1041.29c-33.19-3.47-71.92-4.26-71.92-4.26s-73.54-4.97-112.63,1.18
							c11.76,11.41,49.27,42.77,104.42,40.47C805.87,1076.98,831.42,1056.79,845.22,1041.29z"/>
					</g>
				</g>
			</g>
			<g>
				<g>
					<g>
						<g>
							<path class="st3" d="M781.32,955.93c0,0,10.7,42.53,4.39,52.82c0,0-3.05,5.45-11.52,6.44l2.67,27.01l-38.12,3.77l-8.77-88.63
								L781.32,955.93z"/>
						</g>
					</g>
				</g>
				<path class="st11" d="M764.1,995.71c4.83,7.04,14.79,4.11,14.79-2.46C770.32,995.01,764.1,995.71,764.1,995.71z"/>
				<g>
					<g>
						<g>
							<path class="st6" d="M772.22,991.06c-0.16,0.02-0.32-0.08-0.37-0.24c-0.06-0.18,0.04-0.38,0.23-0.44
								c2.19-0.7,3.33-3.59,3.64-4.53c-3.34-1.38-5.5-3.4-6.41-5.99c-1.48-4.23,0.88-8.42,0.98-8.59c0.1-0.17,0.31-0.22,0.48-0.13
								c0.17,0.1,0.22,0.31,0.13,0.48c-0.02,0.04-2.3,4.1-0.92,8.02c0.87,2.47,2.99,4.38,6.31,5.69l0.29,0.12l-0.08,0.3
								c-0.05,0.18-1.23,4.36-4.2,5.31C772.27,991.05,772.24,991.06,772.22,991.06z"/>
						</g>
					</g>
				</g>
				<g>
					<g>
						<g>
							<path class="st6" d="M775.27,1026.06l-1.07-10.87c0,0-18.48,0.74-30.45-5.25C743.75,1009.94,760.49,1023.14,775.27,1026.06z"
								/>
						</g>
					</g>
				</g>
				<g>
					<g>
						<g>
							<path class="st2" d="M749.13,974.85c-0.17,0.02-0.35-0.03-0.5-0.15c-0.3-0.24-0.36-0.68-0.12-0.98
								c0.08-0.1,8.08-10.09,16.87-4.33c0.32,0.21,0.41,0.64,0.2,0.97c-0.21,0.32-0.64,0.41-0.97,0.2
								c-7.72-5.05-14.71,3.66-15.01,4.03C749.48,974.75,749.31,974.84,749.13,974.85z"/>
						</g>
					</g>
				</g>
				<g>
					<g>
						<g>
							<path class="st2" d="M773.12,970.95c-0.19,0.02-0.4-0.04-0.55-0.19c-0.28-0.26-0.29-0.71-0.03-0.99
								c0.24-0.25,5.9-6.15,10.15-3.18c0.32,0.22,0.39,0.66,0.17,0.97c-0.22,0.32-0.66,0.39-0.97,0.17
								c-3.27-2.28-8.29,2.94-8.34,2.99C773.44,970.86,773.28,970.93,773.12,970.95z"/>
						</g>
					</g>
				</g>
				<g>
					<g>
						<g>
							<path class="st2" d="M763.4,977.35c0.11,1.07-0.67,2.02-1.74,2.13c-1.07,0.11-2.02-0.67-2.13-1.74
								c-0.11-1.07,0.67-2.02,1.74-2.13C762.34,975.5,763.29,976.28,763.4,977.35z"/>
						</g>
					</g>
				</g>
				<g>
					<g>
						<g>
							<path class="st2" d="M781.6,975.55c0.11,1.07-0.67,2.02-1.74,2.13c-1.07,0.11-2.02-0.67-2.13-1.74
								c-0.11-1.07,0.67-2.02,1.74-2.13C780.54,973.7,781.49,974.48,781.6,975.55z"/>
						</g>
					</g>
				</g>
				<g>
					<g>
						<g>
							<path class="st3" d="M740.68,987.96c0.59,5.99-3.78,11.33-9.77,11.92c-5.99,0.59-11.33-3.78-11.92-9.77
								c-0.59-5.99,3.78-11.33,9.77-11.92C734.75,977.59,740.08,981.97,740.68,987.96z"/>
						</g>
					</g>
				</g>
				<g>
					<g>
						<g>
							<path class="st6" d="M729.69,995.8c-2.28,0.23-3.97-1.33-4.64-2.99c-0.79-1.96-0.31-4,1.24-5.18
								c2.2-1.68,4.41-1.05,5.64-0.43c-0.58-1.11-1.37-1.88-2.37-2.31c-2.24-0.96-4.78,0.16-4.8,0.17c-0.18,0.08-0.38,0-0.46-0.18
								c-0.08-0.18,0-0.38,0.18-0.46c0.12-0.05,2.84-1.25,5.36-0.17c1.46,0.62,2.53,1.87,3.18,3.71l0.42,1.18l-0.97-0.79
								c-0.12-0.1-2.92-2.33-5.75-0.16c-1.56,1.2-1.52,3.1-1.01,4.36c0.53,1.33,1.89,2.79,3.97,2.55c0.19-0.02,0.36,0.12,0.39,0.31
								c0.02,0.19-0.12,0.36-0.31,0.39C729.73,995.8,729.71,995.8,729.69,995.8z"/>
						</g>
					</g>
				</g>
			</g>
			<g>
				<g>
					<path class="st3" d="M781.32,955.93c0,0-4.95-16.37-27.47-16c-22.52,0.37-23.87,17.42-23.87,17.42l26,2.65l23.68-4.02
						L781.32,955.93z"/>
				</g>
			</g>
			<g>
				<g>
					<path class="st2" d="M779.92,941.79c0,0-12.55,14.98-30.88,13.68c0,0-3.84,22.62-16.98,22.89
						c-13.15,0.27-9.06-30.94-9.06-30.94s23.41-12.35,24.95-12.5c1.54-0.15,27.26-4.26,27.26-4.26L779.92,941.79z"/>
				</g>
			</g>
			<g>
				<g>
					<g>
						<path class="st17" d="M765.76,983.35c-0.55,0.05-0.64-0.81-0.09-0.86C766.23,982.43,766.31,983.29,765.76,983.35
							L765.76,983.35z"/>
					</g>
				</g>
			</g>
			<g>
				<g>
					<g>
						<path class="st17" d="M763.3,985.16c-0.55,0.05-0.64-0.81-0.09-0.86C763.77,984.24,763.85,985.1,763.3,985.16L763.3,985.16z"
							/>
					</g>
				</g>
			</g>
			<g>
				<g>
					<g>
						<path class="st17" d="M758.25,982.53c-0.55,0.05-0.64-0.81-0.09-0.86C758.71,981.61,758.8,982.47,758.25,982.53L758.25,982.53
							z"/>
					</g>
				</g>
			</g>
			<g>
				<g>
					<g>
						<path class="st17" d="M754.48,986.03c-0.55,0.05-0.64-0.81-0.09-0.86C754.95,985.11,755.04,985.97,754.48,986.03
							L754.48,986.03z"/>
					</g>
				</g>
			</g>
			<g>
				<g>
					<g>
						<path class="st17" d="M749.81,982.28c-0.55,0.05-0.64-0.81-0.09-0.86C750.28,981.37,750.37,982.23,749.81,982.28
							L749.81,982.28z"/>
					</g>
				</g>
			</g>
			<g>
				<g>
					<g>
						<path class="st17" d="M748.88,988.63c-0.55,0.05-0.64-0.81-0.09-0.86C749.34,987.72,749.43,988.58,748.88,988.63
							L748.88,988.63z"/>
					</g>
				</g>
			</g>
			<g>
				<g>
					<g>
						<path class="st17" d="M774.13,979.98c-0.55,0.05-0.64-0.81-0.09-0.86C774.6,979.06,774.68,979.92,774.13,979.98L774.13,979.98
							z"/>
					</g>
				</g>
			</g>
			<g>
				<g>
					<g>
						<path class="st17" d="M777.67,983.15c-0.55,0.05-0.64-0.81-0.09-0.86C778.14,982.23,778.22,983.09,777.67,983.15
							L777.67,983.15z"/>
					</g>
				</g>
			</g>
			<g>
				<g>
					<g>
						<path class="st17" d="M781.39,981.21c-0.55,0.05-0.64-0.81-0.09-0.86C781.86,980.3,781.94,981.16,781.39,981.21L781.39,981.21
							z"/>
					</g>
				</g>
			</g>
			<g>
				<g>
					<g>
						<path class="st17" d="M782.28,987.29c-0.55,0.05-0.64-0.81-0.09-0.86C782.75,986.37,782.84,987.23,782.28,987.29
							L782.28,987.29z"/>
					</g>
				</g>
			</g>
			<g>
				<g>
					<g>
						<path class="st17" d="M784.83,983.42c-0.55,0.05-0.64-0.81-0.09-0.86C785.3,982.5,785.39,983.36,784.83,983.42L784.83,983.42z
							"/>
					</g>
				</g>
			</g>
			<g>
				<g>
					<g>
						<path class="st17" d="M783.63,978.16c-0.55,0.05-0.64-0.81-0.09-0.86C784.1,977.24,784.18,978.1,783.63,978.16L783.63,978.16z
							"/>
					</g>
				</g>
			</g>
			<g>
				<g>
					<g>
						<path class="st17" d="M760.47,988.17c-0.55,0.05-0.64-0.81-0.09-0.86C760.94,987.26,761.02,988.12,760.47,988.17
							L760.47,988.17z"/>
					</g>
				</g>
			</g>
		</g>
		<g>
			<path class="st18" d="M645.77,1133.89c0,0,6.21,8.21,6.37,13.29c0.16,5.08,16.79-11.64,16.62-13.29
				c-0.17-1.65-8.48-11.15-8.48-11.15L645.77,1133.89z"/>
		</g>
		<g>
			<path class="st11" d="M621.99,1117.66c0,0,10.99,10.16,11.49,40.8c0.5,30.63,52.37-23.02,42.21-30.55
				c-10.16-7.53-21.36-20.26-26.19-23.82C644.66,1100.51,621.99,1117.66,621.99,1117.66z"/>
		</g>
		<g>
			<path class="st11" d="M845.04,1174.83c0,0-18.5,82.48,0,132.2c0,0-62.58,41.18-119.77,38.22
				c-57.19-2.95-142.71-27.68-157.98-38.22l62.18-132.2H845.04z"/>
		</g>
		<g>
			<path class="st11" d="M854.5,1033.1c0,0-30.63,2.77-59.91,2.39c0,0-12.08,11.88-30.36,11.32c-27.43-0.84-37.61-12.77-37.61-12.77
				s-52.97-0.1-64.92-3.33c-11.95-3.24-1.26,35.63,9.94,43.81c11.2,8.18,7.44,30.11,56.92,29.07c49.47-1.04,57.36,1.51,90.7-9.95
				c33.34-11.45,34.36-10.76,39.45-19.13C863.8,1066.15,854.5,1033.1,854.5,1033.1z"/>
		</g>
		<g>
			<path class="st2" d="M724.79,1346.41c-12.95,0-26.56-1.38-40.49-4.75c-0.61-0.15-0.99-0.77-0.84-1.38
				c0.15-0.61,0.77-0.99,1.38-0.84c44.23,10.69,85.22,1.07,111.83-8.88c25.83-9.66,43.47-21.49,47.03-23.98
				c-14.91-48.78-2.77-126.85,0.35-132.31c2.72-4.77,70.8-92.44,73.69-96.17c0.39-0.5,1.11-0.59,1.61-0.2
				c0.5,0.39,0.59,1.11,0.2,1.61c-24.5,31.55-71.4,92.2-73.51,95.9c-1.05,1.85-4.96,21.61-6.6,49.13
				c-1.39,23.32-1.36,56.51,6.69,82.16l0.25,0.78l-0.66,0.48c-0.19,0.14-19.03,13.81-48.18,24.72
				C778.99,1339.62,753.51,1346.41,724.79,1346.41z"/>
		</g>
		<g>
			<path class="st2" d="M813.15,1316.47c-0.45,0-0.88-0.27-1.06-0.71c-0.24-0.59,0.04-1.25,0.63-1.49
				c7.89-3.21,17.32-10.7,17.41-10.78c0.49-0.4,1.21-0.31,1.61,0.18c0.39,0.49,0.31,1.21-0.18,1.61c-0.4,0.32-9.77,7.78-17.98,11.11
				C813.44,1316.44,813.29,1316.47,813.15,1316.47z"/>
		</g>
		<g>
			<path class="st2" d="M804.24,1314.69c-0.56,0-1.04-0.4-1.13-0.97c-0.1-0.63,0.33-1.21,0.96-1.31c6.26-0.96,17.14-8.88,17.25-8.96
				c0.51-0.37,1.23-0.26,1.6,0.25c0.37,0.51,0.26,1.23-0.25,1.6c-0.46,0.34-11.44,8.32-18.26,9.37
				C804.36,1314.69,804.3,1314.69,804.24,1314.69z"/>
		</g>
		<g>
			<path class="st2" d="M621.98,1118.8c-0.22,0-0.45-0.06-0.64-0.2c-12.69-8.66-33.47-31.17-48.68-48.52
				c-0.42-0.48-0.37-1.2,0.11-1.62c0.48-0.42,1.2-0.37,1.62,0.11c21.68,24.74,38.36,41.39,48.25,48.13c0.52,0.36,0.66,1.07,0.3,1.59
				C622.71,1118.63,622.35,1118.8,621.98,1118.8z"/>
		</g>
		<g>
			<path class="st2" d="M567.29,1308.18c-0.16,0-0.33-0.03-0.49-0.11c-0.57-0.27-0.82-0.95-0.55-1.52
				c0.53-1.13,53.36-113.46,62.96-134.99c9.38-21.03-8.06-53.03-8.23-53.35c-0.31-0.55-0.1-1.25,0.45-1.56
				c0.55-0.31,1.25-0.11,1.56,0.45c0.75,1.35,18.16,33.33,8.32,55.39c-9.62,21.55-62.45,133.9-62.98,135.03
				C568.13,1307.94,567.72,1308.18,567.29,1308.18z"/>
		</g>
		<g>
			<path class="st2" d="M704.89,1034.95c-9.07,0-40.5-0.34-45.04-4.93c-1.99-2.01-7.4-10-14.25-20.12
				c-10.11-14.93-22.63-33.42-30.85-42.73c-4.68,3.47-28.13,21.17-46.64,40.61c-0.44,0.46-1.16,0.48-1.62,0.04
				c-0.46-0.44-0.48-1.16-0.04-1.62c20.7-21.75,47.52-41.31,47.79-41.5l0.83-0.6l0.69,0.76c8.3,9.16,21.3,28.34,31.74,43.76
				c6.52,9.62,12.14,17.93,13.98,19.79c3.26,3.3,29.59,4.37,45.44,4.25c0,0,0.01,0,0.01,0c0.63,0,1.14,0.51,1.15,1.14
				c0,0.63-0.51,1.15-1.14,1.15C706.54,1034.94,705.83,1034.95,704.89,1034.95z"/>
		</g>
		<g>
			<path class="st2" d="M894.08,1890.02c-9.57,0-19.18-1-28.3-3.48c-0.61-0.17-0.97-0.8-0.8-1.41c0.17-0.61,0.79-0.98,1.41-0.8
				c43.02,11.69,97.5-10.22,104.67-13.24c-2.69-19.85-49.37-364.86-52.3-389.97c-2.98-25.5-79.66-168.3-80.43-169.74
				c-0.3-0.56-0.09-1.25,0.47-1.55c0.56-0.3,1.25-0.09,1.55,0.47c3.17,5.89,77.66,144.63,80.69,170.56
				c3,25.7,51.92,387.15,52.41,390.8l0.12,0.85l-0.79,0.35C972.29,1873.07,933.53,1890.02,894.08,1890.02z"/>
		</g>
		<g>
			<path class="st2" d="M896.12,1890.06c-0.55,0-1.04-0.4-1.13-0.97c-0.48-3.03-47.98-303.04-60.51-335.64
				c-12.55-32.64-49.45-99.46-49.82-100.14c-0.31-0.55-0.11-1.25,0.45-1.56c0.55-0.31,1.25-0.11,1.56,0.45
				c0.37,0.67,37.34,67.64,49.95,100.42c12.62,32.82,58.68,323.73,60.64,336.1c0.1,0.63-0.33,1.21-0.95,1.31
				C896.24,1890.05,896.18,1890.06,896.12,1890.06z"/>
		</g>
		<g>
			<path class="st2" d="M648.17,1871.46c-20.57,0-70.22-1.77-103.48-17.56c-0.57-0.27-0.81-0.95-0.54-1.53
				c0.27-0.57,0.96-0.82,1.53-0.54c39.55,18.78,102.8,17.48,110.97,17.23c3.87-17.23,63.08-280.72,66.83-297.43
				c3.82-17.06,0.7-168.22,0.66-169.74l-0.01-0.49l19.51-19.18c0.45-0.44,1.18-0.44,1.62,0.01c0.44,0.45,0.44,1.18-0.01,1.62
				l-18.81,18.49c0.23,11.18,3.08,152.79-0.73,169.8c-3.85,17.19-66.39,295.48-67.02,298.29l-0.19,0.86l-0.88,0.04
				C657.45,1871.32,653.97,1871.46,648.17,1871.46z"/>
		</g>
		<g>
			<path class="st2" d="M580.94,1865.02c-0.06,0-0.12,0-0.18-0.01c-0.63-0.1-1.05-0.68-0.96-1.31
				c0.46-2.97,46.27-296.91,48.43-309.66c2.14-12.6-10.89-159.75-11.02-161.24c-0.06-0.63,0.41-1.19,1.04-1.24
				c0.64-0.05,1.19,0.41,1.24,1.04c0.54,6.08,13.18,148.93,11,161.82c-2.16,12.74-47.96,306.67-48.42,309.63
				C581.99,1864.62,581.5,1865.02,580.94,1865.02z"/>
		</g>
		<path class="st2" d="M794.58,1036.64c-0.62,0-1.13-0.5-1.14-1.12c-0.01-0.63,0.49-1.16,1.12-1.17c0.36-0.01,34.25-0.77,38.41-0.91
			c2.98-3.27,24.18-39.28,37.98-63.2l0.38-0.66l0.75,0.09c25.77,3.18,56.4,20.22,56.71,20.39c0.55,0.31,0.75,1.01,0.44,1.56
			c-0.31,0.55-1.01,0.75-1.56,0.44c-0.3-0.17-29.95-16.66-55.12-20.02c-1.84,3.17-9.99,17.26-18.23,31.19
			c-19.14,32.38-19.95,32.43-20.88,32.47c-1.8,0.09-37.32,0.9-38.83,0.93C794.6,1036.64,794.59,1036.64,794.58,1036.64z"/>
		<path class="st1" d="M722.92,1093.37c23.7-5.93,34.74,10.89,34.86,11.08c0.12-0.19,11.16-17,34.86-11.08
			c23.84,5.96,16.63,37.28,15.8,40.74c-0.83,3.46-19.19,35.17-50.66,51.36v0.01c0,0,0,0-0.01,0c0,0,0,0-0.01,0v-0.01
			c-31.47-16.19-49.82-47.9-50.66-51.36C706.29,1130.64,699.09,1099.33,722.92,1093.37z"/>
		<g>
			<g>
				<g>
					<g>
						<g>
							<g>
								<g>
									<g>
										<g>
											<path class="st2" d="M709.32,1953.92l-160.19-0.3l0.06-32.68c0,0,11.68-15.66,29.41-7.62c0,0,26.8,19.09,50.5-3.9
												l58.69,26.17C687.78,1935.59,709.34,1942.81,709.32,1953.92z"/>
										</g>
									</g>
								</g>
							</g>
						</g>
					</g>
				</g>
			</g>
			<g>
				<g>
					
						<rect x="535.28" y="1934.23" transform="matrix(1.998397e-03 -1 1 1.998397e-03 -1386.7531 2480.1157)" class="st2" width="27.75" height="1.18"/>
				</g>
			</g>
			<g>
				<g>
					<path class="st2" d="M602.63,1921.36c2.25,0,3.6-0.19,3.65-0.19l-0.17-1.16c-0.14,0.02-14.01,1.94-27.17-7.16l-0.67,0.97
						C587.7,1920.33,597.49,1921.35,602.63,1921.36z"/>
				</g>
			</g>
			<g>
				<g>
					
						<rect x="559.44" y="1936.52" transform="matrix(0.5599 -0.8286 0.8286 0.5599 -1361.8394 1318.3771)" class="st2" width="1.18" height="9.05"/>
				</g>
			</g>
			<g>
				<g>
					
						<rect x="564.82" y="1935.1" transform="matrix(0.5609 -0.8279 0.8279 0.5609 -1357.5314 1319.8457)" class="st2" width="1.18" height="9.05"/>
				</g>
			</g>
			<g>
				<g>
					<g>
						<g>
							<g>
								<g>
									<g>
										<g>
											<path class="st11" d="M549.01,1965.06l159.36,0.3c4.35,0.01,7.88-3.51,7.89-7.86v0c0.01-4.35-3.51-7.88-7.86-7.89
												l-159.36-0.3c-2.01,0-3.65,1.63-3.65,3.64l-0.02,8.45C545.37,1963.42,547,1965.05,549.01,1965.06z"/>
										</g>
									</g>
								</g>
							</g>
						</g>
					</g>
				</g>
			</g>
			<g>
				<g>
					<path class="st2" d="M707.87,1949.86l1.07-0.5c-0.13-0.28-3.34-6.89-15.35-12.04c-11.81-5.06-63.73-28.21-64.25-28.44
						l-0.48,1.08c0.52,0.23,52.46,23.39,64.27,28.45C704.68,1943.36,707.84,1949.8,707.87,1949.86z"/>
				</g>
			</g>
			<g>
				<g>
					<g>
						<g>
							<g>
								<g>
									<g>
										<g>
											<path class="st2" d="M713.85,1963.95c1.9-1.61,3-3.96,3-6.45c0.01-4.67-3.78-8.47-8.45-8.48l-159.06-0.3
												c-2.5,0-4.54,2.03-4.54,4.53l-0.01,7.85l1.18,0l0.01-7.85c0-1.85,1.51-3.36,3.36-3.35l159.06,0.3
												c4.02,0.01,7.28,3.28,7.27,7.3c0,2.14-0.95,4.17-2.58,5.55L713.85,1963.95z"/>
										</g>
									</g>
								</g>
							</g>
						</g>
					</g>
				</g>
			</g>
		</g>
		<g>
			<g>
				<g>
					<g>
						<g>
							<g>
								<g>
									<g>
										<g>
											<path class="st2" d="M1041.35,1953.27l-160.19,0.33l-0.07-32.68c0,0,11.62-15.71,29.38-7.74c0,0,26.87,18.98,50.48-4.1
												l58.79,25.93C1019.74,1935.02,1041.32,1942.16,1041.35,1953.27z"/>
										</g>
									</g>
								</g>
							</g>
						</g>
					</g>
				</g>
			</g>
			<g>
				<g>
					
						<rect x="880.53" y="1920.92" transform="matrix(1 -2.131907e-03 2.131907e-03 1 -4.1228 1.8829)" class="st2" width="1.18" height="27.75"/>
				</g>
			</g>
			<g>
				<g>
					<path class="st2" d="M934.53,1921.12c2.25,0,3.6-0.2,3.65-0.21l-0.18-1.16c-0.14,0.02-14,1.99-27.2-7.05l-0.67,0.97
						C919.6,1920.15,929.4,1921.13,934.53,1921.12z"/>
				</g>
			</g>
			<g>
				<g>
					
						<rect x="891.42" y="1936.45" transform="matrix(0.5566 -0.8308 0.8308 0.5566 -1217.0223 1601.7585)" class="st2" width="1.18" height="9.05"/>
				</g>
			</g>
			<g>
				<g>
					
						<rect x="896.8" y="1935.01" transform="matrix(0.5574 -0.8302 0.8302 0.5574 -1213.0914 1603.3936)" class="st2" width="1.18" height="9.05"/>
				</g>
			</g>
			<g>
				<g>
					<g>
						<g>
							<g>
								<g>
									<g>
										<g>
											<path class="st11" d="M881.09,1965.04l159.36-0.33c4.35-0.01,7.87-3.54,7.86-7.89l0,0c-0.01-4.35-3.54-7.87-7.89-7.86
												l-159.36,0.33c-2.01,0-3.64,1.64-3.64,3.66l0.02,8.45C877.44,1963.41,879.08,1965.04,881.09,1965.04z"/>
										</g>
									</g>
								</g>
							</g>
						</g>
					</g>
				</g>
			</g>
			<g>
				<g>
					<path class="st2" d="M1039.89,1949.21l1.06-0.5c-0.13-0.28-3.37-6.88-15.4-11.98c-11.83-5.01-63.84-27.96-64.37-28.19
						l-0.48,1.08c0.52,0.23,52.55,23.18,64.38,28.2C1036.67,1942.72,1039.86,1949.15,1039.89,1949.21z"/>
				</g>
			</g>
			<g>
				<g>
					<g>
						<g>
							<g>
								<g>
									<g>
										<g>
											<path class="st2" d="M1045.92,1963.28c1.9-1.62,2.98-3.97,2.98-6.46c-0.01-4.67-3.81-8.45-8.48-8.45l-159.06,0.33
												c-2.5,0.01-4.53,2.05-4.53,4.55l0.02,7.85l1.18,0l-0.02-7.85c0-1.85,1.5-3.36,3.35-3.37l159.06-0.33
												c4.02-0.01,7.29,3.25,7.3,7.27c0,2.14-0.93,4.17-2.56,5.56L1045.92,1963.28z"/>
										</g>
									</g>
								</g>
							</g>
						</g>
					</g>
				</g>
			</g>
		</g>
	</g>
	<g>
		<g>
			<path class="st11" d="M1280.87,509.73c0.33-4.42-1.04-9.03-4.65-12.87c-6.56-6.99-17.76-12.69-36.59-14.01
				c0,0,6.49-116.76-81.71-124.49c-101.15-8.87-102.37,105.84-102.37,105.84s-45.97-43.64-79.13,11.69c0,0-57.3-33.12-86.21,28.05
				c-0.91,1.93-1.11,3.93-0.78,5.79H1280.87z"/>
		</g>
	</g>
	<g>
		<g>
			<path class="st11" d="M2706.7,376.83c0.22-2.98-0.71-6.1-3.14-8.69c-4.43-4.72-11.99-8.57-24.7-9.46c0,0,4.38-78.8-55.15-84.02
				c-68.27-5.99-69.1,71.43-69.1,71.43s-31.03-29.46-53.41,7.89c0,0-38.68-22.35-58.19,18.93c-0.61,1.3-0.75,2.65-0.53,3.91H2706.7z
				"/>
		</g>
	</g>
	<g>
		<g>
			<path class="st11" d="M435.77,381.45c-0.2-2.69,0.64-5.51,2.84-7.85c4-4.27,10.83-7.74,22.32-8.54c0,0-3.96-71.21,49.84-75.93
				c61.69-5.41,62.44,64.55,62.44,64.55s28.04-26.62,48.26,7.13c0,0,34.95-20.2,52.58,17.11c0.55,1.17,0.68,2.39,0.48,3.53H435.77z"
				/>
		</g>
	</g>
	<g>
		<g>
			<path class="st11" d="M2000.06,691.75c-0.33-4.45,1.05-9.1,4.69-12.98c6.62-7.05,17.9-12.79,36.89-14.12
				c0,0-6.54-117.71,82.37-125.5c101.97-8.94,103.21,106.7,103.21,106.7s46.35-44,79.77,11.78c0,0,57.77-33.39,86.91,28.28
				c0.92,1.94,1.12,3.96,0.79,5.84H2000.06z"/>
		</g>
	</g>
</g>
</svg>
