<?xml version="1.0" encoding="utf-8"?>
<!-- Generator: Adobe Illustrator 24.0.2, SVG Export Plug-In . SVG Version: 6.00 Build 0)  -->
<svg version="1.1" id="Layer_1" xmlns="http://www.w3.org/2000/svg" xmlns:xlink="http://www.w3.org/1999/xlink" x="0px" y="0px"
	 viewBox="0 0 2630 2000" style="enable-background:new 0 0 2630 2000;" xml:space="preserve">
<style type="text/css">
	.st0{fill:#80C4A4;}
	.st1{fill:#20111D;}
	.st2{opacity:0.5;}
	.st3{fill:#FDEACF;}
	.st4{opacity:0.1;fill:#2DAAE1;}
	.st5{fill:#4A263E;}
	.st6{fill:#3E9795;}
	.st7{fill:#EA5942;}
	.st8{fill:#F39D75;}
	.st9{fill:#ED7163;}
	.st10{fill:#FBFDFC;}
	.st11{fill:#E95655;}
	.st12{fill:#683E46;}
	.st13{fill:#3AA1C9;}
	.st14{fill:#4CB7D8;}
	.st15{fill:#FBCB86;}
	.st16{fill:#F9BC73;}
	.st17{fill:#F2904A;}
	.st18{fill:#F49D63;}
	.st19{fill:#F7AB47;}
	.st20{fill:#E1F0F0;}
	.st21{fill:#F08868;}
	.st22{fill:#F08640;}
	.st23{fill:#EF3A4C;}
	.st24{fill:#FF424D;}
	.st25{fill:#F5B7C5;}
	.st26{fill:#F2926F;}
	.st27{fill:#959BA3;}
	.st28{fill:#828890;}
	.st29{fill:#FFFFFF;}
</style>
<path class="st0" d="M231.58,1680.29c10.27,12.39,13.21,26.89,6.58,32.39c-6.64,5.5-20.34-0.08-30.61-12.47
	c-10.27-12.39-13.21-26.89-6.58-32.39C207.61,1662.32,221.31,1667.9,231.58,1680.29z"/>
<path class="st0" d="M220.49,1630.98c6.45,7.78,8.29,16.88,4.13,20.33s-12.77-0.05-19.22-7.83c-6.45-7.78-8.29-16.88-4.13-20.33
	C205.44,1619.7,214.05,1623.2,220.49,1630.98z"/>
<path class="st1" d="M352.19,1675.71l-0.22-0.05c-0.24-0.12-0.33-0.42-0.21-0.65c0.19-0.36,4.69-8.91,12.93-11.39
	c0.25-0.08,0.53,0.07,0.6,0.32c0.08,0.26-0.07,0.53-0.32,0.6c-7.85,2.36-12.3,10.82-12.35,10.91
	C352.53,1675.61,352.36,1675.71,352.19,1675.71z"/>
<path class="st1" d="M226.6,1782.41c-0.22,0-0.41-0.14-0.47-0.36c-0.1-0.4-2.47-9.76,1.99-17.11c0.14-0.23,0.44-0.3,0.67-0.16
	c0.23,0.14,0.3,0.44,0.16,0.67c-4.24,7-1.9,16.27-1.88,16.37c0.07,0.26-0.09,0.52-0.35,0.59L226.6,1782.41z"/>
<path class="st1" d="M231.3,1784.19c-0.22,0-0.41-0.15-0.47-0.36c-0.1-0.4-2.47-9.76,1.99-17.11c0.14-0.23,0.44-0.3,0.67-0.16
	c0.23,0.14,0.3,0.44,0.16,0.67c-4.25,7-1.91,16.27-1.88,16.37c0.07,0.26-0.09,0.52-0.35,0.59L231.3,1784.19z"/>
<g class="st2">
	<path class="st3" d="M684.39,1878.28c6.11,15.89,0.61,9.78,26.06,26.79c35.11,2.78,22.47,3.33,55.47-1.56
		c33.77-15.14,26.53-9.39,33-22.32C692.62,1874.41,715.46,1874.4,684.39,1878.28z"/>
	<path class="st4" d="M626.81,1889.7l-175.58-4.28c0,0-404.96-158.62-376.59-760.29S652.58,109.03,996.03,89.15
		c418.98-24.26,324.08,218.86,784.64,258.72c215.31,18.63,487.82,117.92,660.33,426c128.48,229.45,226.43,552.74-188.24,1115.82
		H626.81L626.81,1889.7z"/>
	<path class="st0" d="M647.67,1812.65c0,0,22.57-32.25,35.47-15.05c12.9,17.2,12.44,54.96-2.15,91.37h-22.57l-10.75-1.08V1812.65z"
		/>
	<path class="st0" d="M584.1,1709.39c0,0,27.97-50.7,52.1-43.1c19.86,6.25,12.6,43.1,12.6,43.1s20.11-13.01,30.05-5.79
		c19.58,14.23-28.95,184.13-28.95,184.13l-191.9-8.82L584.1,1709.39z"/>
	<path class="st0" d="M398.66,1669.65c0,0-25.37-186.93,60.82-151.38c86.19,35.54,125.81,206.25,125.81,206.25l-104.09,84.62
		L398.66,1669.65z"/>
	<path class="st0" d="M242.05,1887.45c0,0-40.14-45.04,10.75-36.77c0,0-59.5-67.15-29.39-97.18c30.11-30.03,78.14,26.96,78.14,26.96
		s-10.39-48.39,16.13-21.15c0,0-9.68-129.68,81.72-103.37s205.06,99.63,205.06,99.63l16.93,135.81L242.05,1887.45z"/>
	<path class="st0" d="M814.27,1888.83c0,0,0.35-48.92,25.08-20.74c0,0-4.89-64.55,24.16-54.7c29.04,9.85,37.76,42.51,37.76,42.51
		s-11.3-99.96,46.21-83.86c0,0,18.16-102.17,71.19-70.35c53.03,31.82,85.26-104.63,85.26-104.63s33.92-47.92,57.5-13.25
		c23.58,34.67,13.23,68.6,13.23,68.6s29.91-31.06,27.61,30.48c0,0,58.66-51.19,75.92,21.85c17.25,73.04,4.6,121.57,4.6,121.57
		s65.56-44.9,46.59,61.41L814.27,1888.83L814.27,1888.83z"/>
	<path class="st0" d="M2019.94,1742.73c0,0-35.8-70.47,0-80.11c35.8-9.63,77.67,49.6,77.67,49.6s-12.52-40.28,13.83-38.53
		c26.35,1.75,40.68,24.16,40.68,24.16s53.58-59.19,57.97-57.49s64.2,55.28,64.2,55.28s72.78-99.01,133.88-78.31
		c61.09,20.71,0,132.67,0,132.67s36.94-25.87,57.07-9.68c20.13,16.19-19.55,78.88-19.55,78.88s20.13-17.25,36.23,0
		s-31.06,67.83-31.06,67.83l-423.29,0.7L2019.94,1742.73z"/>
	<path class="st5" d="M743.71,1819.21c-3.22,0-5.82-2.61-5.82-5.82v-492.6c0-3.22,2.61-5.82,5.82-5.82s5.82,2.61,5.82,5.82v492.6
		C749.53,1816.6,746.93,1819.21,743.71,1819.21z"/>
	<path class="st6" d="M811.84,1534.12c37.98-13.1,59.75-52.73,51.48-92.05c-13.11-62.33,37.24-78.03-18.72-165.7
		c-11.18-17.52-21.9-34.63-24.26-54.95c-6.57-56.46-56.04-63-97.81-36.69c-23.2,14.61-40.04,37.43-48.09,63.64
		c-21.44,69.8-56.88,79.24-52.37,120.64c0.03,0.24,0.04,0.48,0.05,0.72c0.63,18.41-2.58,42.08,8.99,55.47
		c24.45,28.27,7.49,54.14,24.48,87.43C678.69,1557.95,754.65,1553.84,811.84,1534.12z"/>
	<path class="st7" d="M659.16,1384.5c0,0-11.32,32.31-16.35,31.5c-5.03-0.81-5.6,39.95,11.91,23.95
		c6.13-5.61,15.97-49.27,7.14-61.13C653.03,1366.96,659.16,1384.5,659.16,1384.5z"/>
	<path class="st8" d="M662.87,1376.59c0,0-2.65,32.37-8.04,37c0,0-2.69,2.5-7.61,1.54l-3.85,18.5l-21.55-7.63l11.31-52.53
		c0,0,9.29-11.49,9.17-10.96C642.18,1363.05,662.87,1376.59,662.87,1376.59z"/>
	<path class="st9" d="M650.12,1401.17c-0.07-0.01-0.11-0.09-0.1-0.19c0.01-0.11,0.08-0.21,0.16-0.21c0.98-0.08,1.9-1.55,2.18-2.03
		c-1.09-1.26-1.61-2.71-1.55-4.3c0.11-2.6,1.72-4.62,1.79-4.71l0.21,0l-0.03,0.29c-0.02,0.02-1.58,1.98-1.67,4.39
		c-0.06,1.52,0.46,2.9,1.56,4.12l0.1,0.11l-0.08,0.16c-0.05,0.09-1.2,2.28-2.52,2.39L650.12,1401.17z"/>
	<path class="st9" d="M645.86,1421.41l1.35-6.28c0,0-10.49-2.91-16.12-8.42C631.1,1406.7,638.11,1417.11,645.86,1421.41z"/>
	<path class="st7" d="M640.43,1388.01c-0.1-0.02-0.19-0.08-0.25-0.17c-0.13-0.19-0.08-0.44,0.11-0.57c0.06-0.04,6.34-4.2,10.23,0.61
		c0.14,0.18,0.12,0.44-0.06,0.58c-0.18,0.14-0.43,0.12-0.58-0.06c-3.42-4.22-8.9-0.6-9.14-0.44
		C640.65,1388.01,640.54,1388.03,640.43,1388.01z"/>
	<path class="st7" d="M654.58,1390.14c-0.11-0.02-0.21-0.1-0.27-0.2c-0.11-0.2-0.04-0.45,0.16-0.56c0.18-0.1,4.41-2.39,6.26,0.05
		c0.14,0.18,0.1,0.44-0.08,0.58c-0.18,0.14-0.44,0.1-0.58-0.08c-1.42-1.87-5.17,0.16-5.21,0.18
		C654.77,1390.15,654.67,1390.16,654.58,1390.14z"/>
	<path d="M647.98,1391.97c-0.13,0.62-0.74,1.01-1.36,0.88c-0.62-0.13-1.01-0.74-0.88-1.36c0.13-0.62,0.74-1.01,1.36-0.88
		C647.72,1390.75,648.11,1391.36,647.98,1391.97z"/>
	<path d="M658.5,1394.24c-0.13,0.62-0.74,1.01-1.36,0.88c-0.62-0.13-1.01-0.74-0.88-1.36c0.13-0.62,0.74-1.01,1.36-0.88
		C658.24,1393.01,658.64,1393.62,658.5,1394.24z"/>
	<path class="st10" d="M641.85,1398.84c0.12,0.06,6.63,4.71,6.63,4.71s-2.79,2.04-5.22,0.32
		C640.84,1402.15,641.85,1398.84,641.85,1398.84z"/>
	<path class="st8" d="M653.14,1374.99l-3.66-8.69c0,0,7.39,7.39,6.62,7.45C655.33,1373.8,653.14,1374.99,653.14,1374.99z"/>
	<path class="st7" d="M637.82,1367.74c0,0-1.15,12.04,26.29,20.83c0,0,10.48-15.79-8.51-26.24c-18.99-10.46-24.42,4.7-23.98,4.65
		C632.07,1366.94,637.82,1367.74,637.82,1367.74z"/>
	<path class="st7" d="M640.54,1375.26c0,0-6.94,6.5-10.61,11.48c0,0-1.92,51.08-20.13,44l-3.36-0.82
		c-16.61-4.06,3.22-37.47,7.91-56.54c2.94-11.94,20.28-20.76,28.07-11.28C650.21,1371.58,640.54,1375.26,640.54,1375.26z"/>
	<path class="st8" d="M1034.71,1366.63l2.88,25.57c0,0,0.61,8.68,8.3,8.91l-0.15,16.04c-0.04,4.34,3.03,3.81,7.29,4.65
		c2.08,0.41,4.54,0.6,7.26,0.3c8.64-0.98,12.59-7.99,12.95-11.31c0.35-3.32-3.55-18.56-3.55-18.56l-0.59-7.64l-4.31-29.37
		L1034.71,1366.63z"/>
	<path d="M1057.02,1377.06l0.24-0.13c0.13-0.15,0.11-0.38-0.05-0.51c-0.05-0.05-5.58-4.55-9.69-0.4c-0.14,0.14-0.14,0.37,0,0.51
		c0.14,0.14,0.37,0.14,0.51,0c3.65-3.68,8.51,0.27,8.72,0.44C1056.83,1377.05,1056.92,1377.07,1057.02,1377.06z"/>
	<path d="M1041.93,1376.58c0.1-0.01,0.2-0.07,0.26-0.16c0.11-0.17,0.07-0.39-0.09-0.5c-0.16-0.11-3.93-2.66-5.89-0.55
		c-0.14,0.15-0.13,0.38,0.02,0.51s0.38,0.13,0.51-0.02c1.54-1.65,4.91,0.63,4.95,0.66L1041.93,1376.58z"/>
	<path d="M1049.9,1379.34c0.07,0.6,0.61,1.03,1.2,0.96s1.03-0.61,0.96-1.2c-0.07-0.6-0.61-1.03-1.2-0.96
		C1050.26,1378.2,1049.83,1378.74,1049.9,1379.34z"/>
	<path d="M1038.3,1379.55c0.07,0.6,0.61,1.03,1.2,0.96c0.6-0.07,1.03-0.61,0.96-1.2c-0.07-0.6-0.61-1.03-1.2-0.96
		S1038.23,1378.96,1038.3,1379.55z"/>
	<path d="M1063.94,1356.75l-5.06,9.22c0,0-17.46,9.15-27.77,1.81c-10.31-7.35-7.88-11.71-5.62-16.22c1.12-2.23,7.1-7.18,15.42-4.55
		c4.54,1.43,7.09-4.66,12.46-2.35s11.88,6.63,11.43,8.68C1064.35,1355.38,1063.94,1356.75,1063.94,1356.75z"/>
	<path d="M1063.17,1353.19c0,0,8.27-1.34,11.49,6.4s0.58,12.28,0.76,14.68c0.19,2.39,3.62,18.3-7.8,18.37l-6.05-26.22l2.74-11.02
		L1063.17,1353.19z"/>
	<path class="st8" d="M1058.78,1377.96c0.4,3.58,3.63,6.15,7.21,5.75c3.58-0.4,6.15-3.63,5.75-7.21c-0.4-3.58-3.63-6.15-7.21-5.75
		C1060.95,1371.15,1058.38,1374.38,1058.78,1377.96z"/>
	<path class="st9" d="M1066.19,1381.14c1.35-0.15,2.13-1.27,2.31-2.31c0.22-1.24-0.32-2.35-1.36-2.85c-1.54-0.73-2.77-0.01-3.39,0.5
		c0.2-0.77,0.58-1.35,1.13-1.74c1.2-0.85,2.84-0.51,2.86-0.51c0.1,0.02,0.19-0.04,0.21-0.14c0.02-0.1-0.04-0.19-0.14-0.21
		c-0.07-0.02-1.81-0.37-3.14,0.57c-0.77,0.54-1.23,1.4-1.39,2.55l-0.09,0.64l0.41-0.51c0.06-0.07,1.43-1.74,3.38-0.82
		c1.08,0.51,1.3,1.64,1.16,2.46c-0.15,0.84-0.76,1.87-2,2.01l-0.04,0c-0.1,0.01-0.17,0.1-0.16,0.2c0.01,0.1,0.1,0.17,0.2,0.16
		L1066.19,1381.14z"/>
	<path class="st9" d="M1062.6,1391.79c0,0,1.13,14.52-16.78,17.94l0.08-8.62C1045.9,1401.11,1057.88,1402.14,1062.6,1391.79z"/>
	<path d="M1035.88,1388.27c0,0-0.4,17.58,11.17,16.9c16.55-0.98,17.08-10.54,17.19-18.34l-1.62-15.88l-1.05-4.54
		c-1.01,1.45-1.54,3.18-1.5,4.94c0.09,3.84,0.4,14.18-0.5,14.74C1058.31,1386.89,1038.26,1386.32,1035.88,1388.27z"/>
	<path class="st9" d="M1046.91,1387.06l0.16-0.14c0.02-0.1-0.04-0.19-0.14-0.21l-3.74-0.79l0.18-8.62c0-0.1-0.08-0.18-0.18-0.18
		c-0.1,0-0.18,0.08-0.18,0.18l-0.19,8.92l4.04,0.85L1046.91,1387.06z"/>
	<path class="st10" d="M1050.1,1390.25c-0.11-0.01-7.15,0.62-7.15,0.62s1.21,2.8,3.83,2.58S1050.1,1390.25,1050.1,1390.25z"/>
	<polygon class="st8" points="1071.14,1876.22 1103.67,1876.83 1104.34,1848.72 1071.96,1844.82 	"/>
	<path class="st11" d="M1094.74,1886.38l-41.94-0.04c-0.38-0.05-0.69-0.12-0.92-0.18c-3.95-1.19-2.66-3.63-2.66-3.63l20.1-12.15
		l0.38-1.78c0.62-2.85,4.23-3.86,6.93-1.93l7.02,5.02c0,0,17.79,2.64,20.26-2.32l-0.16,12.85
		C1103.76,1882.23,1105.12,1886.33,1094.74,1886.38z"/>
	<polygon class="st8" points="1013.33,1876.22 1045.85,1876.83 1046.52,1848.72 1014.15,1844.82 	"/>
	<path class="st11" d="M1036.93,1886.38l-41.94-0.04c-0.38-0.05-0.69-0.12-0.92-0.18c-3.95-1.19-2.66-3.63-2.66-3.63l20.1-12.15
		l0.38-1.78c0.62-2.85,4.23-3.86,6.93-1.93l7.02,5.02c0,0,17.79,2.64,20.26-2.32l-0.16,12.85
		C1045.95,1882.23,1047.3,1886.33,1036.93,1886.38z"/>
	<polygon class="st8" points="631.93,1876.06 599.41,1876.67 598.74,1848.56 631.11,1844.66 	"/>
	<path class="st12" d="M608.33,1886.22l41.94-0.04c0.38-0.05,0.69-0.12,0.91-0.18c3.95-1.18,2.66-3.63,2.66-3.63l-20.1-12.15
		l-0.38-1.78c-0.62-2.85-4.23-3.86-6.93-1.93l-7.02,5.02c0,0-17.79,2.64-20.26-2.32l0.16,12.85
		C599.31,1882.07,597.96,1886.17,608.33,1886.22z"/>
	<polygon class="st8" points="545.88,1876.06 513.35,1876.67 512.69,1848.56 545.06,1844.66 	"/>
	<path class="st12" d="M522.28,1886.22l41.94-0.04c0.38-0.05,0.69-0.12,0.92-0.18c3.95-1.18,2.66-3.63,2.66-3.63l-20.1-12.15
		l-0.38-1.78c-0.62-2.85-4.23-3.86-6.93-1.93l-7.02,5.02c0,0-17.79,2.64-20.26-2.32l0.16,12.85
		C513.26,1882.07,511.91,1886.17,522.28,1886.22z"/>
	<path class="st13" d="M1069.73,1625.97c0,0-5.84,146.91-18.63,231.67c0,0-18.91,3.03-40.34-5.37l-2.45-233.59l2.43-13.89
		L1069.73,1625.97z"/>
	<path class="st1" d="M1042.49,1858.83c-16.33,0-31.73-6.1-31.91-6.17c-0.25-0.1-0.37-0.38-0.27-0.63c0.1-0.25,0.38-0.37,0.63-0.27
		c0.21,0.08,21.12,8.35,39.88,5.5c0.65-5.09,7.81-61.62,8.47-74.6c0.01-0.27,0.21-0.48,0.51-0.46c0.27,0.01,0.47,0.24,0.46,0.51
		c-0.69,13.56-8.45,74.42-8.53,75.03l-0.05,0.36l-0.36,0.06C1048.41,1858.63,1045.44,1858.83,1042.49,1858.83z"/>
	<path class="st14" d="M1113.17,1627.32c0,0,1.79,147.01-6.6,232.33c0,0-18.73,4-40.56-3.27l-17.89-205.84l-11.21-55.66
		L1113.17,1627.32z"/>
	<path class="st1" d="M1095.34,1861.27c-14.39,0-29.28-4.37-29.47-4.43c-0.26-0.08-0.4-0.35-0.33-0.6c0.08-0.26,0.34-0.4,0.6-0.33
		c0.24,0.07,23.69,6.95,39.96,3.34c0.47-8.6,8.85-161.98,6.68-218.55c-0.01-0.27,0.2-0.49,0.47-0.5c0.31,0.02,0.49,0.2,0.5,0.47
		c2.22,57.96-6.62,217.4-6.71,219l-0.02,0.36l-0.35,0.08C1103.14,1860.95,1099.26,1861.27,1095.34,1861.27z"/>
	<path class="st1" d="M1092.63,1861.23h-0.01c-0.27-0.01-0.48-0.23-0.47-0.5c0.04-1.49,4.26-149.01,2.41-167.33
		c-0.03-0.27,0.17-0.5,0.43-0.53c0.24-0.03,0.5,0.17,0.53,0.43c1.86,18.38-2.36,165.96-2.41,167.45
		C1093.1,1861.02,1092.89,1861.23,1092.63,1861.23z"/>
	<path class="st1" d="M1039.02,1858.53H1039c-0.27-0.01-0.48-0.24-0.46-0.51l7.09-159.94c0.01-0.27,0.2-0.48,0.51-0.46
		c0.27,0.01,0.47,0.24,0.46,0.51l-7.09,159.94C1039.49,1858.32,1039.28,1858.53,1039.02,1858.53z"/>
	<path class="st0" d="M1743.74,1709.39c0,0,27.97-50.7,52.1-43.1c19.86,6.25,12.6,43.1,12.6,43.1s20.11-13.01,30.05-5.79
		c19.58,14.23-28.95,184.13-28.95,184.13l-191.9-8.82L1743.74,1709.39L1743.74,1709.39z"/>
	<path class="st0" d="M1396.79,1885.41c0,0-48.31-54.21,12.94-44.25c0,0-71.6-80.81-35.37-116.95
		c36.23-36.14,94.03,32.44,94.03,32.44s-12.51-58.23,19.41-25.45c0,0-11.65-156.06,98.35-124.4
		c109.99,31.66,159.02,148.56,159.02,148.56l-19.21,133.47L1396.79,1885.41z"/>
	<polygon class="st15" points="2056.44,1885.43 1799.12,1885.43 1799.12,1726.32 2056.44,1726.32 2056.44,1885.43 	"/>
	<polygon class="st16" points="1927.78,1726.32 1843.07,1726.32 1799.12,1726.32 1799.12,1885.43 1927.78,1885.43 1927.78,1726.32 	
		"/>
	<polygon class="st17" points="1799.12,1726.32 1776.15,1764.08 1904.39,1764.08 1927.78,1726.32 	"/>
	<polygon class="st18" points="2056.44,1726.32 2079.41,1764.08 1951.16,1764.08 1927.78,1726.32 	"/>
	<path class="st1" d="M2080.27,1764.57h-59.75c-0.27,0-0.48-0.22-0.48-0.49s0.22-0.49,0.48-0.49h58.03l-22.38-36.8h-257.05
		c-0.27,0-0.49-0.22-0.49-0.49c0-0.27,0.22-0.49,0.49-0.49h257.59l0.14,0.23L2080.27,1764.57z"/>
	<path class="st1" d="M1821.09,1764.57h-44.94c-0.27,0-0.49-0.22-0.49-0.49s0.22-0.49,0.49-0.49h44.94c0.27,0,0.49,0.22,0.49,0.49
		S1821.36,1764.57,1821.09,1764.57z"/>
	<path class="st1" d="M1799.12,1885.92c-0.27,0-0.49-0.22-0.49-0.49v-121.35c0-0.27,0.22-0.49,0.49-0.49c0.27,0,0.48,0.22,0.48,0.49
		v121.35C1799.6,1885.7,1799.38,1885.92,1799.12,1885.92z"/>
	<path class="st1" d="M1927.78,1885.92c-0.27,0-0.48-0.22-0.48-0.49v-159.12c0-0.27,0.22-0.49,0.48-0.49c0.27,0,0.49,0.22,0.49,0.49
		v159.12C1928.26,1885.7,1928.04,1885.92,1927.78,1885.92z"/>
	<path class="st1" d="M1821.09,1875.42c-0.14,0-0.28-0.06-0.38-0.18l-12.66-15.49c-0.17-0.21-0.14-0.51,0.07-0.68
		c0.21-0.17,0.51-0.14,0.68,0.07l12.66,15.49c0.17,0.21,0.14,0.51-0.07,0.68C1821.31,1875.39,1821.2,1875.42,1821.09,1875.42z"/>
	<path class="st1" d="M1827.27,1875.42c-0.14,0-0.28-0.06-0.38-0.18l-11.58-14.2c-0.17-0.21-0.14-0.51,0.07-0.68
		c0.21-0.17,0.51-0.14,0.68,0.07l11.58,14.2c0.17,0.21,0.14,0.51-0.07,0.68C1827.49,1875.39,1827.38,1875.42,1827.27,1875.42z"/>
	<path class="st1" d="M2046.03,1749.85c-0.14,0-0.28-0.06-0.38-0.18l-12.66-15.49c-0.17-0.21-0.14-0.51,0.07-0.68
		c0.21-0.17,0.51-0.14,0.68,0.07l12.66,15.49c0.17,0.21,0.14,0.51-0.07,0.68C2046.25,1749.81,2046.14,1749.85,2046.03,1749.85z"/>
	<path class="st1" d="M2052.21,1749.85c-0.14,0-0.28-0.06-0.38-0.18l-11.58-14.2c-0.17-0.21-0.14-0.51,0.07-0.68
		c0.21-0.17,0.51-0.14,0.68,0.07l11.58,14.2c0.17,0.21,0.14,0.51-0.07,0.68C2052.43,1749.81,2052.32,1749.85,2052.21,1749.85z"/>
	<polygon class="st8" points="2137.04,1874.79 2164.18,1877.25 2167.92,1868.12 2167.85,1839.31 2136.32,1840.9 	"/>
	<path class="st5" d="M2158.51,1886.08l-43.18,0.07c-0.39-0.06-0.71-0.12-0.94-0.19c-4.07-1.24-2.74-3.82-2.74-3.82l20.66-12.87
		l0.39-1.87c0.63-3.01,4.34-4.08,7.13-2.05l7.24,5.27c0,0,18.33,2.73,20.85-2.5l-0.13,13.56
		C2167.79,1881.67,2169.19,1886,2158.51,1886.08z"/>
	<polygon class="st8" points="2405.25,1809.77 2416.87,1799.81 2407.62,1779.45 2405.38,1778.17 2377.23,1772.03 2372,1803.17 	"/>
	<path class="st5" d="M2420.89,1791.22l-9.22,42.18c-0.14,0.37-0.27,0.67-0.39,0.88c-2.09,3.71-4.32,1.86-4.32,1.86l-8.12-22.94
		l-1.75-0.79c-2.8-1.26-3.05-5.12-0.47-7.4l6.71-5.94c0,0,6.61-17.31,2.05-20.9l13.21,3.05
		C2418.59,1781.22,2423.11,1780.77,2420.89,1791.22z"/>
	<path class="st19" d="M2165.44,1631.48l-13.38,21.62l-29.09,47.01c0,0-10.41,20.24-6.6,42.2s16.24,103.2,16.24,103.2
		s24.5,2.02,39.62-0.69c0,0-1.88-93.42-1.81-103.33c0.07-9.91,44.02-77.83,46.9-81.19l22.7,81.07c0,0,11.41,43.84,32.73,46.03
		c21.32,2.2,101.67,22.08,101.67,22.08s9.79-27.69,7.31-43.43l-74.51-21.82c0,0-18.75-85.91-25.79-111.11
		c-7.05-25.2-66.81-21.95-66.81-21.95L2165.44,1631.48z"/>
	<path d="M2283.03,1661.8c-11.09,0-17.96-5.96-21.91-11.37c-4.91-6.73-6.42-13.88-6.48-14.18c-0.06-0.31,0.13-0.61,0.44-0.67
		c0.3-0.06,0.61,0.13,0.67,0.44c0.01,0.07,1.54,7.24,6.31,13.77c6.36,8.7,15.18,12.21,26.22,10.44c0.31-0.05,0.6,0.16,0.65,0.47
		c0.05,0.31-0.16,0.6-0.47,0.65C2286.55,1661.66,2284.74,1661.8,2283.03,1661.8z"/>
	<path d="M2237.56,1733.11c-0.25,0-0.48-0.16-0.55-0.42l-20.21-72.19l-6.64-12.81c-0.14-0.28-0.04-0.62,0.24-0.77
		s0.62-0.04,0.77,0.24l6.69,12.91l0.02,0.06l20.23,72.25c0.08,0.3-0.09,0.62-0.39,0.7L2237.56,1733.11z"/>
	<path d="M2163.11,1740.82c-0.31,0-0.56-0.25-0.57-0.56c-0.01-0.31,0.24-0.57,0.56-0.58c5.61-0.1,7.2-1.12,7.46-1.32l14.44-27.95
		c0.14-0.28,0.49-0.39,0.77-0.24c0.28,0.14,0.39,0.49,0.24,0.77l-14.51,28.1l-0.04,0.05
		C2171.23,1739.35,2169.76,1740.71,2163.11,1740.82L2163.11,1740.82z"/>
	<path d="M2167.12,1743.93c-0.22,0-0.43-0.13-0.52-0.34c-0.13-0.29,0-0.62,0.29-0.75c3.15-1.38,3.56-4.17,3.57-4.2
		c0.04-0.31,0.33-0.53,0.64-0.49c0.31,0.04,0.53,0.33,0.49,0.64c-0.02,0.14-0.51,3.45-4.23,5.09L2167.12,1743.93z"/>
	<path d="M2149.32,1847.07c-1.49,0-2.9-0.04-4.18-0.13c-0.31-0.02-0.55-0.29-0.53-0.61c0.02-0.31,0.29-0.55,0.61-0.53
		c8.71,0.6,23.52-1.14,26.43-1.49l-1.67-104.18c0-0.31,0.25-0.57,0.56-0.58c0.32-0.01,0.57,0.25,0.58,0.56l1.69,105.2l-0.5,0.07
		C2172.15,1845.4,2159.13,1847.07,2149.32,1847.07z"/>
	<path d="M2151.41,1841.17c-11.17,0-20.47-1.33-20.62-1.35c-0.31-0.05-0.53-0.33-0.48-0.65c0.05-0.31,0.34-0.52,0.64-0.48
		c0.24,0.04,23.98,3.43,41.05-0.71c0.3-0.07,0.61,0.11,0.69,0.42s-0.11,0.61-0.42,0.69
		C2165.72,1840.67,2158.21,1841.17,2151.41,1841.17z"/>
	<path d="M2301.22,1750.72c-0.19,0-0.38-0.1-0.49-0.28c-0.16-0.27-0.07-0.62,0.19-0.78c3.47-2.08,5.27-4.82,5.7-5.53l-10.48-47.08
		c-0.07-0.31,0.13-0.61,0.43-0.68c0.31-0.07,0.61,0.13,0.68,0.43l10.57,47.51l-0.1,0.19c-0.08,0.14-1.94,3.57-6.22,6.14
		C2301.42,1750.7,2301.32,1750.72,2301.22,1750.72z"/>
	<path d="M2378.92,1794.62l-0.15-0.02c-0.3-0.08-0.48-0.4-0.4-0.7c2.79-10.06,2.82-24.77,2.81-27.42l-73.37-21.48
		c-0.03,1.1-0.25,3.27-1.31,6.25c-0.1,0.3-0.43,0.45-0.73,0.34c-0.29-0.1-0.45-0.43-0.34-0.73c1.45-4.07,1.24-6.55,1.24-6.58
		l-0.08-0.83l0.8,0.23l74.91,21.93l0.01,0.42c0,0.17,0.27,16.96-2.84,28.16C2379.4,1794.45,2379.17,1794.62,2378.92,1794.62z"/>
	<path d="M2367.53,1808.96l-0.13-0.01c-0.31-0.07-0.5-0.38-0.42-0.68c0.07-0.3,6.98-30.24,6.43-44.47
		c-0.01-0.31,0.23-0.58,0.55-0.59c0.31-0.01,0.58,0.23,0.59,0.55c0.55,14.38-6.39,44.47-6.46,44.77
		C2368.02,1808.78,2367.79,1808.96,2367.53,1808.96z"/>
	<path d="M2159.01,1655.69c-4.21,0-7.12-2.02-7.27-2.13c-0.26-0.18-0.32-0.54-0.13-0.79s0.53-0.32,0.79-0.14
		c0.04,0.03,4.52,3.11,10.18,1.38c6.03-1.85,11.16-8.24,15.24-19c0.11-0.29,0.44-0.44,0.73-0.33c0.29,0.11,0.44,0.44,0.33,0.73
		c-4.22,11.11-9.6,17.74-15.99,19.68C2161.51,1655.52,2160.21,1655.69,2159.01,1655.69z"/>
	<polygon class="st20" points="1747.99,1875.81 1712.09,1876.48 1711.35,1845.47 1747.08,1841.16 	"/>
	<path class="st11" d="M1721.94,1887.03l46.28-0.04c0.42-0.06,0.76-0.13,1.01-0.2c4.36-1.31,2.93-4.01,2.93-4.01l-22.18-13.41
		l-0.42-1.96c-0.68-3.15-4.67-4.26-7.65-2.13l-7.75,5.54c0,0-19.64,2.91-22.36-2.56l0.18,14.19
		C1711.99,1882.45,1710.49,1886.97,1721.94,1887.03z"/>
	<path class="st13" d="M1627.13,1717.4c0,0,82.82-48.74,104.82-40.55c22,8.2,28.9,31.06,28.47,62.98
		c-0.43,31.92-9.06,115.6-9.06,115.6h-44.86c0,0-6.5-37.46-7.33-38.59c-0.82-1.13,1.43-48.11,1.43-48.11l-40.69,25.45
		L1627.13,1717.4z"/>
	<path class="st1" d="M1699.49,1820.23c-0.25,0-0.46-0.18-0.48-0.43c-0.96-8.89,1.03-49.36,1.11-51.08
		c0.01-0.27,0.25-0.48,0.51-0.46c0.27,0.01,0.47,0.24,0.46,0.51c-0.02,0.42-2.07,42.12-1.12,50.93c0.03,0.27-0.16,0.51-0.43,0.53
		L1699.49,1820.23z"/>
	<path class="st1" d="M1735.63,1843.81c-13.84,0-24.25-2.15-24.37-2.17c-0.26-0.05-0.43-0.31-0.38-0.57
		c0.06-0.26,0.31-0.44,0.58-0.38c0.14,0.03,14.7,3.03,32.25,1.9c0.25-0.02,0.5,0.18,0.52,0.45c0.02,0.27-0.19,0.5-0.45,0.52
		C1740.96,1843.73,1738.23,1843.81,1735.63,1843.81z"/>
	<path class="st1" d="M1674.99,1785.24c-0.16,0-0.32-0.08-0.41-0.23c-0.14-0.23-0.07-0.53,0.15-0.67
		c0.23-0.14,23.12-14.53,36.37-22.78c0.23-0.14,0.53-0.07,0.67,0.16c0.14,0.23,0.07,0.53-0.16,0.67
		c-13.25,8.24-36.13,22.63-36.36,22.78L1674.99,1785.24z"/>
	<path class="st21" d="M1759.63,1598.99l-40.45,17.6l-49.25-18.3l-11.04,53.86c0,0,54.6,21.43,72.85,15.91
		c18.25-5.52,61.28-68.95,61.28-68.95L1759.63,1598.99z"/>
	<path class="st11" d="M1526.63,1855.43c0,0-9.49-1.73-15.1,0s-39.68,31.6-39.68,31.6s55.21-2.16,56.51,0.7
		S1526.63,1855.43,1526.63,1855.43z"/>
	<path class="st20" d="M1525.48,1870.1c0,0-12.65,7.19-14.09,14.95l16.97,2.68L1525.48,1870.1z"/>
	<path class="st14" d="M1537.41,1722.15c0,0-8.2,32.35,12.94,58.45c21.14,26.1,43.78,45.72,43.78,45.72s-49.39,13.16-70.74,23.72
		v35.37h191.09c0,0,12.51-14.23,7.12-32.78s-79.08-108.77-79.08-108.77l-60.68-30.34L1537.41,1722.15z"/>
	<path class="st22" d="M1891.7,1539.66c0.01,0.01,0.01,0.02,0.02,0.03C1891.72,1539.68,1891.71,1539.67,1891.7,1539.66
		L1891.7,1539.66z M1891.46,1539.28c0,0.01,0.01,0.01,0.01,0.02C1891.47,1539.29,1891.47,1539.28,1891.46,1539.28L1891.46,1539.28z
		 M1891.22,1538.89C1891.22,1538.9,1891.22,1538.9,1891.22,1538.89C1891.22,1538.9,1891.22,1538.9,1891.22,1538.89L1891.22,1538.89z
		"/>
	<path class="st23" d="M1646.6,1589.63l62.53,17.72c0,0-4.7,32.96-13.75,42.3c-9.06,9.35-36.36-13.55-36.36-13.55L1646.6,1589.63z"
		/>
	<path class="st1" d="M1701.13,1638.5l-0.26-0.07c-0.23-0.14-0.3-0.44-0.15-0.67c4.81-7.66,7.48-26.99,7.88-30.05l-64.32-18.36
		c-0.26-0.07-0.41-0.34-0.33-0.6c0.07-0.26,0.34-0.41,0.6-0.33l65.12,18.59l-0.05,0.41c-0.11,0.91-2.76,22.38-8.07,30.86
		C1701.45,1638.42,1701.29,1638.5,1701.13,1638.5z"/>
	<path class="st8" d="M1769.91,1612.39L1714.4,1638l-44.4-22.61l-1.25,17.46l-5.14,22.72l-4.71,11.66c0,0,49.11,24.47,66.58,20.83
		c17.46-3.64,61.59-54.42,61.59-54.42L1769.91,1612.39z"/>
	<path class="st1" d="M1695.57,1636.91l-0.13-0.02c-0.26-0.07-0.41-0.34-0.34-0.6c3.12-11.38,6.27-30.89,6.31-31.08
		c0.04-0.27,0.3-0.45,0.56-0.4c0.27,0.04,0.44,0.29,0.4,0.56c-0.03,0.2-3.19,19.76-6.33,31.18
		C1695.98,1636.77,1695.78,1636.91,1695.57,1636.91z"/>
	<path class="st5" d="M1678.72,1543.69c3.42,11.21-8.61,45.12-8.61,45.12l-3.34-1.06c0.19-1.18,0.45-4.63,0.45-4.63l-2.38,4.02
		l-12.99-4.11l9.26-54.29C1661.11,1528.74,1675.3,1532.47,1678.72,1543.69z"/>
	<path class="st8" d="M1670.62,1547.62c0,0,2.26,28.29-12.95,29.29l-3.88,18.79l-19.14-8.55l12.14-60.55c0,0,5.81,1.93,5.71,2.42
		C1652.41,1529.51,1670.62,1547.62,1670.62,1547.62z"/>
	<path class="st9" d="M1660.44,1564.22c-0.08-0.02-0.15-0.09-0.15-0.18c0-0.1,0.08-0.19,0.18-0.19c1.23-0.02,2.27-1.32,2.58-1.75
		c-1.5-1.23-2.29-2.6-2.35-4.08c-0.1-2.4,1.77-4.18,1.85-4.26l0.26,0.01l-0.01,0.26c-0.02,0.02-1.82,1.74-1.73,3.97
		c0.06,1.4,0.85,2.72,2.34,3.91l0.13,0.11l-0.09,0.14c-0.05,0.08-1.32,2.04-2.99,2.07L1660.44,1564.22z"/>
	<path class="st9" d="M1656.52,1582.65l1.15-5.74c0,0-9.6-2.52-14.8-7.47C1642.87,1569.44,1649.4,1578.84,1656.52,1582.65z"/>
	<path d="M1657.41,1555.32c-0.11,0.57-0.66,0.93-1.23,0.82c-0.56-0.11-0.93-0.66-0.82-1.23s0.66-0.93,1.23-0.82
		C1657.16,1554.21,1657.52,1554.76,1657.41,1555.32z"/>
	<path d="M1667.69,1557.73c-0.11,0.57-0.66,0.93-1.23,0.82c-0.56-0.11-0.93-0.66-0.82-1.23c0.11-0.56,0.66-0.93,1.23-0.82
		C1667.43,1556.61,1667.8,1557.16,1667.69,1557.73z"/>
	<path class="st10" d="M1652.57,1562.14c0.11,0.05,6.11,4.21,6.11,4.21s-2.52,1.9-4.75,0.36
		C1651.69,1565.17,1652.57,1562.14,1652.57,1562.14z"/>
	<path class="st5" d="M1665.81,1536.35c0,0-5.19,11.93-17.91,14.45c-12.72,2.52-9.08,19.61-9.08,19.61l-7.85-18.98
		c0,0,4.88-22.43,15.83-24.83C1654.77,1524.86,1668.41,1529.5,1665.81,1536.35z"/>
	<path class="st5" d="M1653.95,1550.8c0.1,0.07,0.22,0.09,0.34,0.05c0.03-0.01,2.97-1.02,5.4,0.42c0.18,0.1,0.4,0.05,0.51-0.13
		s0.05-0.41-0.13-0.51c-2.74-1.62-5.9-0.52-6.03-0.48c-0.19,0.07-0.29,0.28-0.23,0.47L1653.95,1550.8z"/>
	<path class="st5" d="M1669.34,1555.36c0.11,0.04,0.24,0.02,0.34-0.05c0.17-0.12,0.2-0.36,0.08-0.52c-0.08-0.11-2.1-2.78-5.27-2.96
		c-0.21-0.01-0.38,0.14-0.39,0.35s0.15,0.38,0.35,0.39c2.83,0.16,4.7,2.64,4.72,2.66L1669.34,1555.36z"/>
	<polygon class="st8" points="1663.99,1540.99 1659.97,1535.31 1662.57,1541.49 	"/>
	<path class="st1" d="M1649.33,1548.25c-0.25,0-0.46-0.19-0.48-0.45c-0.02-0.27,0.18-0.5,0.45-0.52c7.05-0.52,10.53-6.43,10.56-6.49
		c0.13-0.23,0.43-0.31,0.66-0.18c0.23,0.13,0.31,0.43,0.18,0.66c-0.15,0.26-3.77,6.42-11.33,6.97L1649.33,1548.25z"/>
	<path class="st5" d="M1630.43,1537.83c5.37-12.14,19.88-11.6,19.88-11.6l-5.61,24.73c0,0-4.86,10.28-6.91,26.64l-0.28,3.11
		c0,0-5-1.34-10.55-3.68c0.07-2.46,0.16-6.46,0.16-6.46l-2.69,5.33c-1.22-0.57-2.43-1.19-3.59-1.85
		C1620.84,1574.06,1626.07,1547.7,1630.43,1537.83z"/>
	<path class="st8" d="M1645.62,1555.76c-0.63,3.17-3.72,5.22-6.88,4.58c-3.17-0.64-5.22-3.72-4.58-6.88
		c0.63-3.17,3.72-5.22,6.88-4.58C1644.2,1549.51,1646.25,1552.59,1645.62,1555.76z"/>
	<path class="st9" d="M1638.75,1558.06c-1.2-0.24-1.83-1.31-1.91-2.26c-0.1-1.13,0.47-2.1,1.45-2.46c1.39-0.52,2.43,0.16,2.96,0.66
		c-0.12-0.66-0.41-1.18-0.85-1.56c-1-0.84-2.48-0.67-2.49-0.67c-0.1,0.01-0.2-0.06-0.21-0.16c-0.01-0.1,0.06-0.2,0.16-0.21
		c0.07-0.01,1.66-0.19,2.78,0.75c0.65,0.55,1,1.35,1.05,2.4l0.03,0.67l-0.37-0.56c-0.05-0.07-1.13-1.65-2.93-0.98
		c-0.99,0.37-1.27,1.35-1.2,2.08c0.07,0.76,0.54,1.73,1.64,1.93c0.1,0.02,0.17,0.12,0.15,0.22c-0.02,0.1-0.12,0.17-0.22,0.15
		L1638.75,1558.06z"/>
	<path class="st24" d="M1534.68,1722c0,0,3.16-47.74,37.38-90.01c34.22-42.27,60.1-59.81,71.32-52.05
		c11.21,7.76,42.27,39.68,57.23,47.45c0,0-11.21,40.55-23.87,55.5c0,0-20.99-14.09-29.62-20.13c0,0-15.24,31.06-15.24,33.64
		s10.64,47.45,10.64,47.45S1571.77,1761.11,1534.68,1722z"/>
	<g>
		<path class="st23" d="M1808.03,1552.15c0,0,12.2-18.85,38.55-12.26c26.35,6.59,18.39,41.22,17.47,45.05
			c-0.92,3.83-21.22,38.9-56.02,56.8v-88.98V1552.15z"/>
		<path class="st24" d="M1769.49,1539.89c-26.36,6.59-18.39,41.22-17.47,45.05c0.92,3.83,21.22,38.9,56.02,56.8v-88.98v-0.61
			C1808.04,1552.15,1795.84,1533.31,1769.49,1539.89z"/>
	</g>
	<g>
		<path class="st23" d="M2032.31,1378.21c0,0,6.42-29.6,42.83-33.84c36.41-4.23,42.84,43.27,43.51,48.55
			c0.66,5.27-8.26,59.21-43.67,98.38l-42.38-112.32L2032.31,1378.21z"/>
		<path class="st24" d="M1977.82,1381.09c-30.13,20.87-3.58,60.79-0.6,65.19c2.99,4.4,45.31,38.99,97.77,45.02l-42.38-112.32
			l-0.29-0.77C2032.33,1378.21,2007.95,1360.23,1977.82,1381.09z"/>
	</g>
	<path class="st8" d="M1799.35,1598.18c1.52-8.34-4.29-4.96-4.29-4.96c0.36-4.56-1.18-5.35-2.52-5.21c-0.98,0.1-1.84,0.71-2.35,1.56
		c-1.59,2.7-6.43,10.98-9.15,16.33c-3.21,2.18-6.29-3.71-7-7.41c-0.37-1.91-2.08-4.18-3.61,0.67c-1.25,3.97-0.52,13.23-0.52,13.23
		l-18.24,11.74l20.96,21.38c0,0,19.14-15.54,22.04-17.86c2.9-2.32,10.04-13.35,10.97-18.24c1.68-8.88-1.88-6.46-1.88-6.46
		C1804.64,1593.56,1799.35,1598.18,1799.35,1598.18z"/>
	<path class="st9" d="M1792.09,1601.65l-0.22-0.05c-0.24-0.12-0.34-0.41-0.21-0.65c1.52-3,2.89-8.1,2.95-8.31
		c0.07-0.26,0.34-0.41,0.59-0.34c0.26,0.07,0.41,0.34,0.34,0.59c-0.06,0.22-1.46,5.42-3.02,8.5
		C1792.44,1601.56,1792.27,1601.65,1792.09,1601.65z"/>
	<path class="st9" d="M1796.46,1606.33l-0.25-0.07c-0.23-0.14-0.31-0.43-0.17-0.66c2.05-3.46,2.87-7.45,2.91-7.62l0.95,0.19
		c-0.09,0.44-0.93,4.39-3.03,7.92C1796.79,1606.25,1796.62,1606.33,1796.46,1606.33z"/>
	<path class="st9" d="M1800.9,1610.56l-0.26-0.08c-0.23-0.14-0.29-0.44-0.15-0.67c2.02-3.16,2.83-6.93,2.83-6.96
		c0.05-0.26,0.32-0.44,0.57-0.38c0.26,0.05,0.43,0.31,0.38,0.57c-0.01,0.04-0.85,3.98-2.97,7.29
		C1801.22,1610.48,1801.06,1610.56,1800.9,1610.56z"/>
	<path class="st1" d="M1676.86,1683.57l-0.4-0.27l-48.77-33.32c-0.22-0.15-0.28-0.45-0.13-0.67c0.15-0.22,0.45-0.28,0.67-0.13
		l48.37,33.05c2.25-3.31,17.8-26.91,23.46-54.62c-2.59-1.9-24.41-17.99-39.82-32.64c-16.78-15.95-20.97-17.53-28.73-15.37
		c-7.15,1.99-9.71,3.97-17.3,9.86c-1.08,0.83-2.25,1.74-3.55,2.74c-0.21,0.16-0.52,0.12-0.68-0.09c-0.16-0.21-0.12-0.52,0.09-0.68
		c1.3-1,2.47-1.91,3.55-2.74c7.49-5.81,10.3-7.98,17.64-10.02c8.61-2.4,13.33,0.08,29.66,15.6c16.27,15.47,39.74,32.57,39.97,32.74
		l0.25,0.18l-0.06,0.31c-6.06,30.09-23.77,55.43-23.95,55.68L1676.86,1683.57z"/>
	<path class="st1" d="M1627.97,1656.06c-0.26,0-0.47-0.2-0.48-0.46c-0.01-0.27,0.19-0.5,0.46-0.51l8.15-0.43
		c0.28-0.02,0.5,0.19,0.51,0.46c0.01,0.27-0.19,0.5-0.46,0.51l-8.15,0.43L1627.97,1656.06z"/>
	<path class="st1" d="M1674.09,1666.77l-0.24-0.07c-0.23-0.13-0.31-0.43-0.17-0.66c7.18-12.33,19.53-42.85,19.66-43.16
		c0.1-0.25,0.38-0.37,0.63-0.27c0.25,0.1,0.37,0.38,0.27,0.63c-0.12,0.31-12.5,30.89-19.72,43.28
		C1674.42,1666.69,1674.26,1666.77,1674.09,1666.77z"/>
	<path class="st1" d="M1605.6,1748.24c-21.29,0-36.74-4.35-47.07-8.88c-16.92-7.42-24.17-16.97-24.24-17.07l-0.12-0.16l0.02-0.19
		c0.03-0.24,2.98-24.5,9.4-40c0.1-0.25,0.39-0.37,0.63-0.26c0.25,0.1,0.36,0.39,0.26,0.63c-6.07,14.63-9.02,37.19-9.31,39.54
		c0.99,1.24,8.25,9.83,23.8,16.64c15.44,6.76,42.45,13.09,83.43,4.88c0.26-0.05,0.52,0.12,0.57,0.38c0.05,0.26-0.12,0.52-0.38,0.57
		C1628.71,1747.12,1616.41,1748.24,1605.6,1748.24z"/>
	<path class="st1" d="M1601.97,1832.48l-0.12-0.02c-0.23-0.06-5.89-1.86-37.77-35.21c-36.45-38.14-27.71-72.52-27.62-72.86
		c0.07-0.26,0.34-0.41,0.59-0.34c0.26,0.07,0.41,0.34,0.34,0.59c-0.09,0.34-8.66,34.22,27.38,71.93
		c31.28,32.73,37.1,34.88,37.33,34.95c0.25,0.08,0.4,0.35,0.32,0.6C1602.36,1832.34,1602.18,1832.48,1601.97,1832.48z"/>
	<path class="st1" d="M1523.39,1885.9c-0.25,0-0.46-0.19-0.48-0.44c-0.64-6.85-0.03-34.26,0-35.43l0.01-0.31l0.28-0.12
		c0.4-0.17,40.08-17.35,70.83-23.75l0.47-0.1l0.1,0.47c0,0.02,0.45,2.07,2.33,5.55c0.13,0.24,0.04,0.53-0.2,0.66
		c-0.23,0.12-0.53,0.04-0.66-0.2c-1.44-2.67-2.07-4.52-2.3-5.34c-29.21,6.17-66.29,21.92-69.91,23.48c-0.07,3.12-0.6,28.59,0,35
		c0.02,0.27-0.17,0.5-0.44,0.53L1523.39,1885.9z"/>
	<path class="st9" d="M1713.9,1649.72l-0.02,0c-0.27-0.01-0.47-0.24-0.46-0.51l0.5-11.23c0.01-0.27,0.21-0.51,0.51-0.46
		c0.27,0.01,0.48,0.24,0.46,0.51l-0.5,11.23C1714.37,1649.52,1714.16,1649.72,1713.9,1649.72z"/>
	<path class="st21" d="M2093.42,1433.18l35.05,26.79l52.2-5.96l-2.19,54.94c0,0-58.14,7.72-74.54-2.01
		c-16.4-9.73-42.97-81.63-42.97-81.63L2093.42,1433.18z"/>
	<path class="st13" d="M2205.39,1451.19l-64.95,2.22c0,0-3.34,33.12,3.21,44.37c6.55,11.25,38.55-4.44,38.55-4.44L2205.39,1451.19z"
		/>
	<path class="st1" d="M2140.85,1485.58c-0.2,0-0.39-0.13-0.46-0.33c-3.13-9.5-0.55-30.99-0.44-31.9l0.05-0.41l67.68-2.44
		c0.27,0.01,0.49,0.2,0.5,0.47c0.01,0.27-0.2,0.49-0.47,0.5l-66.85,2.41c-0.35,3.07-2.38,22.47,0.45,31.06
		c0.08,0.25-0.05,0.53-0.31,0.61L2140.85,1485.58z"/>
	<path class="st8" d="M2185.6,1404.8l4.22,24.76c0,0,1.08,8.43,8.48,8.24l0.39,7.99c0.36,7.41,7.07,12.9,14.4,11.73l0.25-0.04
		c8.26-1.41,11.66-8.45,11.81-11.7c0.15-3.26-4.46-17.9-4.46-17.9l-1-7.41l-5.8-28.39L2185.6,1404.8z"/>
	<path class="st11" d="M2207.65,1413.79l0.22-0.14c0.11-0.16,0.08-0.38-0.07-0.49c-0.06-0.04-5.62-4.14-9.35,0.13
		c-0.13,0.15-0.11,0.37,0.03,0.5s0.37,0.12,0.49-0.03c3.3-3.78,8.2-0.18,8.41-0.03C2207.46,1413.78,2207.56,1413.8,2207.65,1413.79z
		"/>
	<path class="st11" d="M2193.11,1414.11c0.1-0.02,0.19-0.07,0.24-0.17c0.1-0.17,0.05-0.38-0.12-0.49c-0.16-0.1-3.93-2.38-5.69-0.23
		c-0.12,0.15-0.1,0.37,0.05,0.5c0.15,0.13,0.37,0.11,0.49-0.04c1.38-1.69,4.76,0.36,4.79,0.38L2193.11,1414.11z"/>
	<path d="M2200.93,1416.38c0.1,0.58,0.64,0.97,1.21,0.87c0.57-0.1,0.95-0.64,0.85-1.22c-0.1-0.58-0.64-0.97-1.21-0.87
		C2201.21,1415.25,2200.83,1415.8,2200.93,1416.38z"/>
	<path d="M2189.78,1417.2c0.1,0.58,0.64,0.97,1.21,0.87c0.57-0.1,0.95-0.64,0.85-1.22c-0.1-0.58-0.64-0.97-1.21-0.87
		C2190.06,1416.08,2189.68,1416.63,2189.78,1417.2z"/>
	<path class="st9" d="M2198.49,1424.06l0.14-0.15c0.01-0.1-0.05-0.19-0.15-0.2l-3.65-0.57l-0.31-8.41c0-0.1-0.08-0.17-0.18-0.17
		c-0.1,0-0.17,0.08-0.17,0.18l0.32,8.7l3.93,0.61H2198.49z"/>
	<path class="st10" d="M2202.03,1426.76c-0.12,0-7.34,1.25-7.34,1.25s1.5,2.83,4.18,2.38
		C2201.56,1429.93,2202.03,1426.76,2202.03,1426.76z"/>
	<path class="st23" d="M2213.16,1393.63l-4.35,9.25c0,0-20.27,5.87-30.6-0.74c-10.33-6.61-4.89-14.4,0.17-14.7
		c5.06-0.3,9.5,1.75,12.07-2.09s6.56-4.91,11.85-2.94c5.29,1.97,11.8,5.83,11.49,7.85S2213.16,1393.63,2213.16,1393.63z"/>
	<path class="st23" d="M2212.21,1390.2c0,0,7.88-1.74,11.41,5.63c3.54,7.37,1.25,11.94,1.56,14.26c0.32,2.32,4.52,17.63-6.47,18.31
		l-7.3-25.23l2.01-10.88L2212.21,1390.2z"/>
	<path class="st8" d="M2209.39,1414.56c0.59,3.47,3.84,5.8,7.26,5.22c3.42-0.58,5.71-3.86,5.12-7.33c-0.59-3.47-3.84-5.8-7.26-5.22
		C2211.09,1407.82,2208.8,1411.1,2209.39,1414.56z"/>
	<path class="st9" d="M2216.7,1417.28c1.29-0.22,1.98-1.35,2.09-2.37c0.14-1.21-0.44-2.28-1.47-2.7c-1.52-0.63-2.67,0.14-3.23,0.67
		c0.15-0.76,0.48-1.35,0.99-1.76c1.1-0.89,2.7-0.65,2.72-0.65c0.09,0.01,0.18-0.05,0.2-0.15c0.01-0.1-0.05-0.19-0.15-0.2
		c-0.07-0.01-1.76-0.27-2.99,0.72c-0.71,0.57-1.11,1.43-1.19,2.56l-0.05,0.63l0.36-0.52c0.05-0.07,1.28-1.78,3.2-0.98
		c1.07,0.44,1.34,1.53,1.25,2.33c-0.09,0.83-0.62,1.86-1.81,2.07l-0.04,0.01c-0.09,0.02-0.16,0.1-0.14,0.2
		c0.02,0.1,0.1,0.16,0.2,0.15L2216.7,1417.28z"/>
	<path class="st9" d="M2213.84,1427.84c0,0,1.76,11.25-15.27,15.53l-0.27-5.56C2198.3,1437.8,2209.89,1438.17,2213.84,1427.84z"/>
	<path class="st1" d="M2146.63,1485.36c-0.26,0-0.48-0.21-0.49-0.47c-0.3-11.85,1.32-31.59,1.33-31.79
		c0.02-0.27,0.28-0.45,0.52-0.44c0.27,0.02,0.47,0.26,0.44,0.52c-0.02,0.2-1.63,19.89-1.33,31.69c0.01,0.27-0.2,0.49-0.47,0.5
		H2146.63z"/>
	<path class="st8" d="M2092.62,1451l35.35,30.9l50.81-13.36l5.69,54.69c0,0-56.44,15.96-74.06,8.67s-54.2-74.65-54.2-74.65
		L2092.62,1451z"/>
	<path class="st14" d="M2281.44,1632.4c0,0-10.97-74.98-20.95-135.19c-8.89-53.65-36.89-59.5-49.64-54.65
		c-12.75,4.85-50.55,28.39-66.93,32.35c0,0,1.17,42.05,9.87,59.6c0,0,4.42-1.42,14.24-5.21l-7.7,105.29
		C2160.32,1634.59,2236.05,1661.48,2281.44,1632.4z"/>
	<path class="st8" d="M2054.91,1417.7c0.59-9.69,6.13-4.33,6.13-4.33c0.85-5.17,2.78-5.62,4.23-5.09c1.07,0.38,1.86,1.29,2.18,2.38
		c1.03,3.44,4.13,13.96,5.69,20.65c2.97,3.31,8-2.4,9.81-6.32c0.93-2.02,3.46-4.08,3.82,1.74c0.3,4.75-3.05,14.84-3.05,14.84
		l17.05,18.05l-29.15,18c0,0-17.01-22.52-19.59-25.89c-2.59-3.38-7.5-17.59-7.18-23.28c0.57-10.33,3.86-6.67,3.86-6.67
		C2050.3,1411.11,2054.91,1417.7,2054.91,1417.7z"/>
	<path class="st9" d="M2062.15,1423.5c-0.22,0-0.42-0.15-0.47-0.38c-0.9-3.91-1.02-10.2-1.02-10.26c0-0.27,0.21-0.49,0.48-0.49
		c0.3,0,0.49,0.21,0.49,0.48c0,0.06,0.12,6.27,1,10.06c0.06,0.26-0.1,0.52-0.36,0.58L2062.15,1423.5z"/>
	<path class="st9" d="M2056.01,1427.5c-0.21,0-0.4-0.14-0.46-0.34c-1.39-4.59-1.19-9.41-1.19-9.61c0.01-0.27,0.24-0.49,0.5-0.47
		c0.27,0.01,0.48,0.24,0.47,0.5c-0.01,0.2-0.19,4.86,1.14,9.29c0.08,0.26-0.07,0.53-0.32,0.6L2056.01,1427.5z"/>
	<path class="st9" d="M2049.92,1430.98c-0.2,0-0.39-0.13-0.46-0.33c-1.42-4.19-1.3-8.69-1.29-8.88c0.01-0.26,0.22-0.47,0.48-0.47
		h0.02c0.27,0.01,0.48,0.23,0.47,0.5c0,0.18-0.12,4.52,1.24,8.54c0.09,0.25-0.05,0.53-0.3,0.62L2049.92,1430.98z"/>
	<path class="st1" d="M2153.5,1535.13l-0.17-0.45c-0.11-0.29-11.23-29.13-9.9-59.8l0.01-0.31l0.29-0.12
		c0.27-0.11,27.15-11.09,46.65-22.21c20.11-11.46,28.83-15.79,42.71-7.58c0.13,0.07,13.99,8.04,20.3,25.17
		c0.09,0.25-0.04,0.53-0.29,0.62c-0.25,0.09-0.53-0.04-0.62-0.29c-6.18-16.78-19.75-24.59-19.88-24.66
		c-13.42-7.94-21.97-3.68-41.74,7.58c-18.47,10.53-43.51,20.92-46.48,22.14c-1.15,28.26,8.29,54.9,9.68,58.65l54.88-20.49
		c0.25-0.09,0.53,0.03,0.62,0.29c0.09,0.25-0.03,0.53-0.29,0.63L2153.5,1535.13z"/>
	<path class="st1" d="M2207.67,1520.16l-0.14-0.02l-7.81-2.37c-0.26-0.08-0.4-0.35-0.32-0.61c0.08-0.26,0.34-0.4,0.61-0.32
		l7.81,2.37c0.26,0.08,0.4,0.35,0.32,0.61C2208.08,1520.03,2207.88,1520.16,2207.67,1520.16z"/>
	<path class="st1" d="M2160.33,1519.51c-0.21,0-0.4-0.14-0.47-0.35c-4.03-13.76-8.72-46.42-8.77-46.75
		c-0.04-0.27,0.15-0.51,0.41-0.55c0.26-0.03,0.51,0.15,0.55,0.41c0.05,0.33,4.73,32.91,8.74,46.61c0.08,0.26-0.07,0.53-0.33,0.6
		L2160.33,1519.51z"/>
	<path class="st9" d="M2125.77,1493.41l-0.1-0.01c-0.26-0.05-0.43-0.31-0.38-0.57l2.21-11.03c0.05-0.26,0.32-0.44,0.57-0.38
		c0.26,0.05,0.43,0.31,0.38,0.57l-2.21,11.02C2126.2,1493.25,2126,1493.41,2125.77,1493.41z"/>
	<path class="st1" d="M1704.06,1769.6c-2.01,0-3.49-0.38-3.58-0.4c-0.26-0.07-0.42-0.33-0.35-0.59c0.07-0.26,0.33-0.42,0.59-0.35
		c0.03,0.01,3.23,0.82,6.52,0c0.25-0.06,0.52,0.09,0.59,0.35c0.06,0.26-0.09,0.52-0.35,0.59
		C1706.28,1769.5,1705.1,1769.6,1704.06,1769.6z"/>
	<path class="st1" d="M1532.04,1879.4c-0.24,0-0.45-0.18-0.48-0.43c-0.02-0.2-2.16-19.97,0.63-32.88c0.06-0.26,0.31-0.43,0.58-0.37
		c0.26,0.06,0.43,0.32,0.37,0.58c-2.75,12.75-0.64,32.37-0.62,32.57c0.03,0.27-0.16,0.51-0.43,0.54L1532.04,1879.4z"/>
	<path class="st1" d="M1623.32,1590.12c-0.12,0-0.25-0.05-0.34-0.14c-0.19-0.19-0.19-0.49-0.01-0.69c0.25-0.26,6.32-6.33,13.98-6.33
		h0.1c0.27,0,0.48,0.22,0.48,0.49c0,0.27-0.22,0.48-0.48,0.48h-0.09c-7.26,0-13.23,5.98-13.29,6.04
		C1623.57,1590.07,1623.44,1590.12,1623.32,1590.12z"/>
	<path class="st1" d="M1624.1,1594.54c-0.12,0-0.25-0.05-0.34-0.14c-0.19-0.19-0.19-0.5-0.01-0.69c0.25-0.26,6.32-6.33,13.98-6.33
		h0.1c0.27,0,0.48,0.22,0.48,0.49s-0.22,0.48-0.49,0.48h-0.09c-7.26,0-13.23,5.98-13.29,6.04
		C1624.35,1594.49,1624.23,1594.54,1624.1,1594.54z"/>
	<path class="st1" d="M1533.18,1621.4c-0.12,0-0.25-0.05-0.34-0.14c-0.19-0.19-0.19-0.5-0.01-0.69c0.26-0.26,6.32-6.33,13.98-6.33
		h0.1c0.27,0,0.48,0.22,0.48,0.49c0,0.27-0.22,0.48-0.49,0.48h-0.09c-7.26,0-13.23,5.98-13.29,6.04
		C1533.43,1621.35,1533.3,1621.4,1533.18,1621.4z"/>
	<path class="st1" d="M1533.96,1625.82c-0.12,0-0.25-0.05-0.34-0.14c-0.19-0.19-0.19-0.5-0.01-0.69c0.25-0.26,6.32-6.33,13.98-6.33
		h0.1c0.27,0,0.48,0.22,0.48,0.49c0,0.27-0.22,0.48-0.49,0.48h-0.09c-7.25,0-13.23,5.98-13.29,6.04
		C1534.22,1625.77,1534.09,1625.82,1533.96,1625.82z"/>
	<path class="st1" d="M1323.69,1836.35c-0.19,0-0.37-0.11-0.45-0.3c-2.82-6.73-10.74-9.9-10.82-9.93c-0.25-0.1-0.37-0.38-0.27-0.63
		c0.1-0.25,0.38-0.37,0.63-0.27c0.34,0.13,8.38,3.35,11.36,10.46c0.1,0.25-0.01,0.53-0.26,0.63L1323.69,1836.35z"/>
	<path class="st1" d="M1319.94,1838.81c-0.19,0-0.37-0.11-0.45-0.3c-2.82-6.72-10.74-9.9-10.82-9.93c-0.25-0.1-0.37-0.38-0.27-0.63
		c0.1-0.25,0.38-0.37,0.63-0.28c0.34,0.13,8.38,3.35,11.36,10.46c0.1,0.25-0.01,0.53-0.26,0.63L1319.94,1838.81z"/>
	<path class="st1" d="M742.59,1208.63c-0.12,0-0.25-0.05-0.34-0.14c-0.19-0.19-0.19-0.5-0.01-0.69c0.1-0.11,10.54-10.56,23.3-10.56
		l0.16,0c0.27,0,0.48,0.22,0.48,0.49c0,0.27-0.22,0.48-0.49,0.48l-0.15,0c-12.35,0-22.5,10.17-22.6,10.27
		C742.84,1208.58,742.72,1208.63,742.59,1208.63z"/>
	<path class="st1" d="M743.92,1216.07c-0.12,0-0.25-0.05-0.34-0.14c-0.19-0.19-0.19-0.5-0.01-0.69c0.1-0.11,10.53-10.56,23.29-10.56
		l0.16,0c0.27,0,0.48,0.22,0.48,0.49c0,0.27-0.22,0.48-0.48,0.48l-0.16,0c-12.35,0-22.5,10.17-22.6,10.27
		C744.17,1216.02,744.04,1216.07,743.92,1216.07z"/>
	<path class="st1" d="M814.97,1512.38c-0.13,0-0.26-0.05-0.36-0.16c-0.18-0.2-0.17-0.5,0.02-0.69c9.09-8.46,9.5-22.94,9.51-23.08
		c0.01-0.27,0.19-0.49,0.5-0.48c0.27,0.01,0.48,0.23,0.48,0.5c0,0.15-0.42,15.03-9.81,23.77
		C815.2,1512.33,815.09,1512.38,814.97,1512.38z"/>
	<path class="st1" d="M808.9,1507.88c-0.13,0-0.26-0.05-0.36-0.16c-0.18-0.2-0.17-0.5,0.02-0.69c9.09-8.46,9.5-22.94,9.51-23.08
		c0.01-0.27,0.2-0.49,0.5-0.48c0.27,0.01,0.48,0.23,0.47,0.5c0,0.15-0.42,15.03-9.82,23.77
		C809.13,1507.83,809.02,1507.88,808.9,1507.88z"/>
	<path class="st1" d="M661.69,1341.66l-0.03,0c-0.27-0.01-0.47-0.24-0.46-0.51c0.02-0.4,0.59-9.83,6.93-15.37
		c0.2-0.18,0.51-0.16,0.68,0.05c0.18,0.2,0.16,0.51-0.05,0.69c-6.03,5.26-6.59,14.6-6.6,14.69
		C662.16,1341.46,661.95,1341.66,661.69,1341.66z"/>
	<path class="st1" d="M665.55,1344.71l-0.03,0c-0.27-0.01-0.47-0.24-0.46-0.51c0.02-0.4,0.59-9.84,6.93-15.37
		c0.2-0.18,0.51-0.16,0.68,0.05c0.18,0.2,0.16,0.51-0.05,0.69c-6.04,5.27-6.59,14.6-6.6,14.69
		C666.02,1344.51,665.8,1344.71,665.55,1344.71z"/>
	<path class="st1" d="M848.85,1347.71c-0.16,0-0.32-0.08-0.41-0.23c-4.23-6.79-13.36-8.84-13.45-8.86
		c-0.26-0.06-0.43-0.31-0.37-0.58c0.06-0.26,0.32-0.43,0.58-0.37c0.39,0.08,9.62,2.15,14.07,9.29c0.14,0.23,0.07,0.53-0.16,0.67
		L848.85,1347.71z"/>
	<path class="st1" d="M845.23,1351.02c-0.16,0-0.32-0.08-0.41-0.23c-4.23-6.79-13.36-8.84-13.45-8.86
		c-0.26-0.06-0.43-0.31-0.37-0.58c0.06-0.26,0.31-0.43,0.58-0.37c0.39,0.08,9.62,2.15,14.07,9.29c0.14,0.23,0.07,0.53-0.15,0.67
		L845.23,1351.02z"/>
	<path class="st1" d="M1374.23,1758.05c-0.2,0-0.39-0.13-0.46-0.32c-0.12-0.35-2.95-8.52,0.47-15.43c0.12-0.24,0.41-0.34,0.65-0.22
		c0.24,0.12,0.34,0.41,0.22,0.65c-3.24,6.54-0.45,14.6-0.42,14.68c0.09,0.25-0.04,0.53-0.3,0.62L1374.23,1758.05z"/>
	<path class="st1" d="M1379.4,1761.73c-0.18,0-0.34-0.09-0.43-0.26c-0.13-0.25-3.13-6.13-1.28-11.72c0.08-0.25,0.36-0.4,0.61-0.31
		c0.25,0.08,0.39,0.36,0.31,0.61c-1.72,5.2,1.19,10.91,1.22,10.97c0.13,0.24,0.03,0.53-0.21,0.65L1379.4,1761.73z"/>
	<path class="st1" d="M1154.91,1600.83c-0.21,0-0.4-0.14-0.47-0.35c-0.04-0.13-3.83-12.91-13.91-18.28
		c-0.24-0.13-0.33-0.42-0.2-0.66s0.42-0.33,0.66-0.2c10.45,5.57,14.35,18.74,14.39,18.87c0.07,0.26-0.07,0.53-0.33,0.6
		L1154.91,1600.83z"/>
	<path class="st1" d="M1151.71,1610.12c-0.24,0-0.44-0.17-0.48-0.42c-0.01-0.1-1.51-10.04-8.47-15.1c-0.22-0.16-0.26-0.46-0.11-0.68
		c0.16-0.22,0.46-0.26,0.68-0.11c7.3,5.31,8.8,15.33,8.86,15.75c0.04,0.27-0.15,0.51-0.41,0.55L1151.71,1610.12z"/>
	<path class="st1" d="M1261.82,1698.48c-0.21,0-0.4-0.14-0.47-0.35c-0.04-0.13-3.83-12.91-13.91-18.28
		c-0.24-0.13-0.33-0.42-0.2-0.66c0.13-0.24,0.42-0.33,0.66-0.2c10.45,5.57,14.35,18.74,14.39,18.87c0.07,0.26-0.07,0.53-0.33,0.6
		L1261.82,1698.48z"/>
	<path class="st1" d="M1258.62,1707.78c-0.24,0-0.44-0.17-0.48-0.42c-0.01-0.1-1.51-10.04-8.47-15.1c-0.22-0.16-0.26-0.46-0.11-0.68
		c0.16-0.22,0.46-0.26,0.68-0.11c7.3,5.31,8.8,15.33,8.86,15.75c0.04,0.27-0.15,0.51-0.41,0.55L1258.62,1707.78z"/>
	<path class="st1" d="M2422.7,1659.34c-0.25,0-0.46-0.19-0.48-0.44c-1.29-13.34-13.43-23.19-13.56-23.29
		c-0.21-0.17-0.24-0.47-0.08-0.68c0.17-0.21,0.47-0.24,0.68-0.08c0.13,0.1,12.58,10.2,13.92,23.95c0.03,0.27-0.17,0.5-0.44,0.53
		L2422.7,1659.34z"/>
	<path class="st1" d="M2410.27,1651.29c-0.22,0-0.42-0.15-0.47-0.37c-2.36-9.83-12.47-15.92-12.57-15.98
		c-0.23-0.14-0.31-0.43-0.17-0.66c0.13-0.23,0.43-0.31,0.66-0.17c0.43,0.25,10.56,6.35,13.02,16.59c0.06,0.26-0.1,0.52-0.36,0.59
		L2410.27,1651.29z"/>
	<path class="st1" d="M2021.7,1688.31c-0.2,0-0.39-0.13-0.46-0.32c-0.12-0.35-2.95-8.52,0.47-15.43c0.12-0.24,0.41-0.34,0.65-0.22
		c0.24,0.12,0.34,0.41,0.22,0.65c-3.24,6.54-0.45,14.59-0.42,14.68c0.09,0.25-0.04,0.53-0.29,0.62L2021.7,1688.31z"/>
	<path class="st1" d="M2026.87,1691.98c-0.18,0-0.34-0.09-0.43-0.26c-0.13-0.25-3.13-6.13-1.28-11.72c0.08-0.25,0.36-0.39,0.61-0.31
		c0.25,0.08,0.39,0.36,0.31,0.61c-1.72,5.2,1.19,10.91,1.22,10.97c0.12,0.24,0.03,0.53-0.21,0.65L2026.87,1691.98z"/>
	<path class="st1" d="M2238.26,1465.74c-0.22,0-0.43-0.16-0.47-0.39c-1.49-7.14-8.66-11.76-8.73-11.8
		c-0.23-0.14-0.29-0.44-0.15-0.67c0.14-0.23,0.44-0.29,0.67-0.15c0.31,0.2,7.59,4.88,9.16,12.42c0.06,0.26-0.11,0.52-0.38,0.57
		L2238.26,1465.74z"/>
	<path class="st1" d="M2234.1,1467.44c-0.22,0-0.43-0.16-0.47-0.39c-1.49-7.14-8.66-11.76-8.73-11.8c-0.23-0.14-0.29-0.44-0.15-0.67
		c0.14-0.23,0.44-0.29,0.67-0.15c0.31,0.2,7.59,4.88,9.16,12.42c0.06,0.26-0.11,0.52-0.38,0.57L2234.1,1467.44z"/>
	<path class="st0" d="M1373.38,1675.52c7.91,9.54,10.18,20.71,5.07,24.95c-5.11,4.24-15.67-0.06-23.58-9.61
		c-7.91-9.54-10.18-20.71-5.07-24.95S1365.47,1665.98,1373.38,1675.52z"/>
	<path class="st0" d="M877.21,1789.32c3.09,5.97,3.01,12.16-0.19,13.82c-3.2,1.66-8.3-1.84-11.4-7.81
		c-3.09-5.97-3.01-12.16,0.19-13.82S874.12,1783.35,877.21,1789.32z"/>
	<path class="st0" d="M879.83,1767.4c0.93,4.16-0.12,7.94-2.35,8.44c-2.23,0.5-4.79-2.47-5.72-6.63c-0.93-4.16,0.12-7.94,2.35-8.43
		C876.34,1760.27,878.9,1763.24,879.83,1767.4z"/>
	<path class="st0" d="M1364.84,1637.53c4.97,5.99,6.39,13,3.18,15.67c-3.21,2.66-9.84-0.04-14.8-6.03s-6.39-13-3.18-15.66
		C1353.25,1628.84,1359.88,1631.54,1364.84,1637.53z"/>
	<path class="st0" d="M1212.76,1644.57c-6.36,7.67-8.18,16.66-4.07,20.07c4.11,3.41,12.6-0.05,18.96-7.72
		c6.36-7.67,8.18-16.66,4.07-20.07C1227.61,1633.44,1219.12,1636.9,1212.76,1644.57z"/>
	<path class="st0" d="M1216.09,1611.88c-3.51,4.24-4.52,9.2-2.25,11.08c2.27,1.88,6.96-0.03,10.47-4.27
		c3.51-4.24,4.52-9.2,2.25-11.08C1224.3,1605.74,1219.61,1607.65,1216.09,1611.88z"/>
	<path class="st6" d="M880.16,1408.13c-7.91,9.54-10.18,20.71-5.07,24.95c5.11,4.24,15.67-0.06,23.58-9.61
		c7.91-9.54,10.18-20.71,5.07-24.95C898.63,1394.28,888.07,1398.58,880.16,1408.13z"/>
	<path class="st6" d="M888.7,1370.14c-4.97,5.99-6.39,13-3.18,15.66s9.84-0.04,14.8-6.03c4.97-5.99,6.39-13,3.18-15.67
		C900.29,1361.45,893.66,1364.15,888.7,1370.14z"/>
	<path class="st0" d="M2499.15,1753.63c-8.97,10.82-11.54,23.49-5.74,28.29c5.8,4.8,17.77-0.07,26.74-10.89s11.54-23.49,5.75-28.29
		C2520.09,1737.93,2508.12,1742.81,2499.15,1753.63z"/>
	<path class="st0" d="M2508.83,1710.55c-5.63,6.79-7.25,14.75-3.61,17.76c3.64,3.02,11.16-0.04,16.79-6.84
		c5.63-6.79,7.25-14.75,3.61-17.76C2521.98,1700.69,2514.46,1703.75,2508.83,1710.55z"/>
	<path class="st19" d="M994.92,1485.63c0,0,44.71-73.34,63.55-78.22c18.67-4.84,33.73,10.69,45.72,64.41
		c12,53.78,13.23,156.72,13.23,156.72s-71.03,25.88-113.87,0l0.86-59.53l29.62-34.79
		C1034.03,1534.23,1000.67,1504.03,994.92,1485.63z"/>
	<path class="st1" d="M1067.96,1495.02c-0.16,0-0.32-0.08-0.41-0.23c-0.14-0.23-0.07-0.53,0.15-0.67l11.51-7.18
		c0.23-0.14,0.53-0.07,0.67,0.15c0.14,0.23,0.07,0.53-0.15,0.67l-11.51,7.19L1067.96,1495.02z"/>
	<path class="st1" d="M1042.37,1526.08c-0.11,0-0.23-0.04-0.32-0.12c-23.1-19.96-39.1-53.18-39.26-53.51
		c-0.12-0.24-0.01-0.53,0.23-0.65c0.24-0.12,0.53-0.01,0.65,0.23c0.16,0.33,16.08,33.37,39.02,53.19c0.2,0.17,0.22,0.48,0.05,0.68
		C1042.64,1526.03,1042.5,1526.08,1042.37,1526.08z"/>
	<path class="st25" d="M547.13,1522.44c0,0,50.04-88.57,69.59-97.2s28.18,7.76,30.77,17.25c2.59,9.49,8.05,73.33,8.05,73.33
		s-42.07,13.99-49.26,13.99l4.49,18.94c0,0-21.37,13.66-27.41,17.11C583.36,1565.86,546.81,1550.91,547.13,1522.44z"/>
	<path class="st1" d="M1051.06,1641.27c-8.7,0-15.88-0.8-21.62-1.89c-18.08-3.44-25.9-10.18-26.22-10.46
		c-0.2-0.18-0.22-0.48-0.04-0.68c0.18-0.2,0.48-0.22,0.68-0.04c0.08,0.07,8,6.88,25.85,10.26c16.45,3.11,44.92,3.85,87.2-10.24
		c-0.13-4.29-1.42-45.01-1.74-51.08c-0.01-0.27,0.19-0.5,0.46-0.51c0.26-0.01,0.5,0.19,0.51,0.46c0.34,6.38,1.74,51.01,1.76,51.46
		l0.01,0.36l-0.34,0.12C1089.59,1638.37,1067.58,1641.27,1051.06,1641.27z"/>
	<path class="st26" d="M919.47,1539.07l46.94,0.84l32.26-47.24l10.33,15.59l16.72,18.45l10.51,8.38c0,0-32.87,48.58-51.04,54.37
		c-18.17,5.78-89.56-22.14-89.56-22.14L919.47,1539.07z"/>
	<path class="st1" d="M1041.09,1538.77l-0.41-0.25c-29.81-18.02-46.04-52.35-46.2-52.69l-0.11-0.23l0.13-0.22
		c1.72-2.89,42.32-70.98,63.81-78.43c21.77-7.54,35.58,28.27,35.72,28.64c0.09,0.25-0.03,0.53-0.28,0.63
		c-0.25,0.09-0.53-0.03-0.63-0.28c-0.13-0.35-13.61-35.3-34.49-28.06c-20.56,7.13-60.53,73.4-63.16,77.78
		c1.46,3.01,17.28,34.64,45.3,51.79l34.54-56.38c0.14-0.23,0.44-0.3,0.67-0.16c0.23,0.14,0.3,0.44,0.16,0.67L1041.09,1538.77z"/>
	<path class="st5" d="M914.37,1572.09h-10.71v-1.56h-9.49v1.56h-10.71c-2.9,0-5.26,2.35-5.26,5.26c0,2.9,2.35,5.26,5.26,5.26h10.71
		v236.6h9.49v-236.6h10.71c2.9,0,5.26-2.35,5.26-5.26C919.63,1574.44,917.27,1572.09,914.37,1572.09z"/>
	<path class="st26" d="M876.91,1546.82c0.57-0.2,13.41-5.26,14.34-5.4c5.95,7.45,0.63,20.91,7.19,29.11
		c-5.75-0.55-9.8-1.02-11.4-1.28l-7.82,8.8l-1.48,2.49c-0.7,1.18-2.48,1.64-3.99,1.02c-1.5-0.61-2.16-2.06-1.46-3.24l-0.62,1.04
		c-0.7,1.18-2.48,1.63-3.99,1.02c-1.5-0.61-2.16-2.06-1.46-3.24c-0.7,1.18-2.48,1.64-3.99,1.02c-1.5-0.61-2.16-2.07-1.46-3.24
		l0.62-1.04c-0.7,1.18-2.48,1.63-3.99,1.02l-0.25-0.12h0l0,0c-0.09-0.05-0.19-0.1-0.27-0.15c-1.36-0.81-1.77-1.66-1.7-2.4
		c0.15-1.55,4.88-8.9,7.03-12.4C865.52,1554.35,870.07,1549.27,876.91,1546.82z"/>
	<path class="st9" d="M861.03,1574.78c-0.1,0-0.21-0.03-0.3-0.1c-0.21-0.17-0.25-0.47-0.09-0.68l11.19-14.42
		c0.16-0.21,0.47-0.25,0.68-0.09c0.21,0.16,0.25,0.47,0.09,0.68l-11.19,14.42C861.32,1574.72,861.17,1574.78,861.03,1574.78z"/>
	<path class="st9" d="M866.35,1577.55c-0.1,0-0.21-0.03-0.3-0.1c-0.21-0.17-0.25-0.47-0.09-0.68l10.15-13.08
		c0.17-0.21,0.47-0.25,0.68-0.09c0.21,0.17,0.25,0.47,0.09,0.68l-10.15,13.08C866.63,1577.49,866.49,1577.55,866.35,1577.55z"/>
	<path class="st26" d="M930.5,1539.26c-46.29-2.3-53.42,7.73-57.28,9.5c-5.41,2.48,9.17,25.03,9.17,25.03s19.74-0.98,41.27,3.55
		L930.5,1539.26z"/>
	<path class="st9" d="M872.57,1579.07c-0.1,0-0.21-0.03-0.3-0.1c-0.21-0.17-0.25-0.47-0.09-0.68l8.16-10.51
		c0.17-0.21,0.47-0.25,0.68-0.09c0.21,0.16,0.25,0.47,0.09,0.68l-8.16,10.51C872.86,1579.01,872.71,1579.07,872.57,1579.07z"/>
	<path class="st13" d="M564.38,1701.3c0,0,17.25,74.19,17.83,87.42s3.45,72.11,3.45,72.11s31.06,5.39,58.09,0
		c0,0,0-108.34-11.5-159.53c-11.5-51.19-23-111.06-23-111.06L564.38,1701.3z"/>
	<path class="st1" d="M607.43,1862.82c-0.18,0-0.35-0.1-0.43-0.27c-0.05-0.1-0.05-0.1-0.06-0.71l-0.05-1.89
		c-0.01-0.27,0.21-0.49,0.47-0.5c0.31,0,0.49,0.21,0.5,0.47l0.06,2.39c0.01,0.19-0.09,0.37-0.27,0.46L607.43,1862.82z
		 M607.06,1848.72c-0.26,0-0.48-0.21-0.48-0.47c-0.09-3.42-0.2-7.35-0.32-11.68c-0.01-0.27,0.2-0.49,0.47-0.5
		c0.25-0.03,0.49,0.2,0.5,0.47c0.12,4.32,0.23,8.26,0.32,11.68c0.01,0.27-0.2,0.49-0.47,0.5H607.06z M606.41,1825.36
		c-0.26,0-0.48-0.21-0.48-0.47c-0.11-3.74-0.22-7.65-0.35-11.67c-0.01-0.27,0.2-0.49,0.47-0.5c0.27,0,0.49,0.2,0.5,0.47
		c0.12,4.02,0.24,7.93,0.35,11.67c0.01,0.27-0.2,0.49-0.47,0.5H606.41z M605.71,1802.02c-0.26,0-0.48-0.21-0.48-0.47
		c-0.12-3.85-0.25-7.76-0.38-11.67c-0.01-0.27,0.2-0.49,0.47-0.5c0.27,0.02,0.49,0.2,0.5,0.47c0.13,3.91,0.26,7.82,0.38,11.67
		c0.01,0.27-0.2,0.49-0.47,0.5H605.71z M604.93,1778.68c-0.26,0-0.48-0.21-0.48-0.47c-0.14-3.94-0.28-7.84-0.43-11.67
		c-0.01-0.27,0.2-0.49,0.47-0.5c0.26-0.02,0.49,0.2,0.5,0.47c0.15,3.83,0.29,7.73,0.43,11.67c0.01,0.27-0.2,0.49-0.47,0.5H604.93z
		 M604.04,1755.34c-0.26,0-0.47-0.2-0.48-0.47c-0.17-4.07-0.34-7.98-0.52-11.66c-0.01-0.27,0.19-0.5,0.46-0.51
		c0.28-0.03,0.49,0.19,0.51,0.46c0.17,3.69,0.35,7.6,0.52,11.67c0.01,0.27-0.2,0.49-0.46,0.5H604.04z M602.92,1732.01
		c-0.26,0-0.47-0.2-0.48-0.46c-0.27-4.78-0.54-8.7-0.79-11.65c-0.02-0.27,0.18-0.5,0.44-0.52c0.27-0.02,0.5,0.18,0.52,0.44
		c0.25,2.96,0.52,6.89,0.79,11.68c0.02,0.27-0.19,0.5-0.46,0.51H602.92z M600.03,1708.86c-0.21,0-0.41-0.14-0.47-0.36
		c-0.79-2.88-1.86-6.65-3.19-11.22c-0.08-0.26,0.07-0.53,0.33-0.6c0.26-0.07,0.53,0.07,0.6,0.33c1.33,4.58,2.41,8.36,3.2,11.24
		c0.07,0.26-0.08,0.52-0.34,0.6L600.03,1708.86z M593.53,1686.44c-0.21,0-0.4-0.14-0.46-0.35c-1.12-3.76-2.26-7.56-3.35-11.17
		c-0.08-0.26,0.07-0.53,0.32-0.6c0.26-0.08,0.53,0.07,0.6,0.32c1.09,3.62,2.23,7.42,3.35,11.18c0.08,0.26-0.07,0.53-0.33,0.6
		L593.53,1686.44z M586.79,1664.09c-0.21,0-0.4-0.13-0.46-0.34c-2.03-6.65-3.42-11.19-3.42-11.19c-0.08-0.26,0.07-0.53,0.32-0.61
		c0.26-0.08,0.53,0.06,0.61,0.32c0,0,1.4,4.54,3.43,11.19c0.08,0.26-0.07,0.53-0.32,0.61L586.79,1664.09z"/>
	<path class="st1" d="M1051.48,1423.61c-0.12,0-0.25-0.05-0.34-0.14c-0.19-0.19-0.19-0.49-0.01-0.69c0.25-0.26,6.32-6.33,13.98-6.33
		h0.1c0.27,0,0.48,0.22,0.48,0.49c0,0.27-0.22,0.48-0.49,0.48h-0.09c-7.26,0-13.23,5.98-13.29,6.04
		C1051.73,1423.57,1051.61,1423.61,1051.48,1423.61z"/>
	<path class="st1" d="M1052.27,1428.04c-0.12,0-0.25-0.05-0.34-0.14c-0.19-0.19-0.19-0.5,0-0.69c0.26-0.26,6.32-6.33,13.98-6.33h0.1
		c0.27,0,0.48,0.22,0.48,0.49s-0.22,0.48-0.49,0.48h-0.09c-7.26,0-13.23,5.98-13.29,6.04
		C1052.52,1427.99,1052.39,1428.04,1052.27,1428.04z"/>
	<path class="st14" d="M635.07,1424.77c0,0,0.62-7.05-12.39-7.15c-22.74-0.17-55,43.13-83.47,101.8
		c-28.47,58.66-51.33,86.99-35.8,333.14c0,0,40.26,8.48,60.39,8.26c0,0,17.25-203.88,44.28-251.87
		c27.03-47.98,26.98-100.9,26.98-100.9V1424.77z"/>
	<path class="st26" d="M719.23,1572.43l-59.84-23.79l-8.66-50.71l-14.29,8.87l-20.58,8.81l-11.73,2.91c0,0,8.65,52.03,21.33,63.57
		c12.68,11.54,84.11,14.95,84.11,14.95L719.23,1572.43z"/>
	<path class="st26" d="M753.4,1580.28c2.59-2.94-0.16-6.33-0.16-6.33c0.28-1.53,0.3-2.73,0.21-3.65c-0.12-1.29-1.44-2.12-2.65-1.67
		c-3.51,1.31-8.17,3.1-12.94,5.19c0,0,6.75-16.78-1.69-9.25c-2.82,2.52-5.05,5.85-6.18,8.49c-0.49,1.14-1.75,1.74-2.94,1.41
		l-15.99-4.45l-16.09,26.06c0,0,8.89,0.96,12.27,0.95c5.94,0,21.34,0.03,24.23,0.03c7.41,0,16.21-1.27,19.73-4.54
		c3.52-3.28,2.57-5.97,2.57-5.97C756.31,1583.08,753.4,1580.28,753.4,1580.28z"/>
	<path class="st9" d="M745.59,1578.23c-0.2,0-0.38-0.12-0.45-0.32c-0.09-0.25,0.03-0.53,0.28-0.62c3.02-1.13,7.34-3.86,7.38-3.89
		c0.22-0.15,0.52-0.08,0.67,0.14c0.15,0.22,0.08,0.52-0.14,0.67c-0.04,0.03-4.46,2.82-7.57,3.98L745.59,1578.23z"/>
	<path class="st9" d="M746.03,1583.81c-0.2,0.01-0.38-0.13-0.43-0.33c-0.05-0.23,0.09-0.46,0.32-0.51c3.88-0.9,7.22-3.04,7.26-3.06
		c0.2-0.13,0.46-0.07,0.58,0.13c0.13,0.2,0.07,0.46-0.13,0.58c-0.14,0.09-3.5,2.24-7.53,3.17L746.03,1583.81z"/>
	<path class="st9" d="M747.23,1590.19c-0.21,0-0.41-0.14-0.47-0.36c-0.07-0.26,0.09-0.52,0.35-0.59c3.41-0.9,6.4-3,6.43-3.02
		c0.22-0.15,0.52-0.1,0.68,0.12c0.15,0.22,0.1,0.52-0.11,0.68c-0.13,0.09-3.17,2.23-6.75,3.17L747.23,1590.19z"/>
	<path class="st1" d="M604.55,1531.78l-0.1-0.48c-0.05-0.26-5.18-26.01-4.32-44.83c0.01-0.27,0.24-0.5,0.51-0.46
		c0.27,0.01,0.47,0.24,0.46,0.51c-0.79,17.29,3.52,40.5,4.21,44.12c13.54-2.87,46.28-13.98,49.77-15.17
		c1.27-16.01-7.98-72.32-8.07-72.89c-3.08-10.21-7.88-16.53-14.26-18.72c-9.13-3.15-18.49,3.37-18.58,3.44
		c-0.22,0.15-0.52,0.1-0.68-0.12c-0.15-0.22-0.1-0.52,0.12-0.68c0.4-0.28,9.85-6.86,19.46-3.56c6.7,2.3,11.71,8.84,14.9,19.42
		c0.11,0.64,9.5,57.82,8.07,73.51l-0.03,0.31l-0.3,0.1c-0.37,0.13-36.71,12.55-50.67,15.4L604.55,1531.78z"/>
	<path class="st1" d="M600.71,1498.41c-0.18,0-0.36-0.1-0.44-0.28l-4.55-9.78c-0.11-0.24-0.01-0.53,0.24-0.64
		c0.24-0.12,0.53-0.01,0.64,0.24l4.55,9.78c0.11,0.24,0.01,0.53-0.24,0.64L600.71,1498.41z"/>
	<path class="st1" d="M589.31,1567.08c-3.96,0-13.39-1.47-26.76-12.9c-17.61-15.05-16.2-35.74-16.19-35.95
		c0.02-0.27,0.25-0.47,0.52-0.45c0.27,0.02,0.47,0.25,0.45,0.52c-0.02,0.2-1.37,20.42,15.85,35.14
		c17.19,14.69,27.88,12.54,27.98,12.52c0.26-0.05,0.52,0.11,0.58,0.37c0.06,0.26-0.1,0.52-0.37,0.58
		C591.27,1566.93,590.56,1567.08,589.31,1567.08z"/>
	<path class="st1" d="M583.36,1566.34c-0.16,0-0.32-0.08-0.41-0.23c-0.14-0.23-0.07-0.53,0.16-0.67l14.06-8.65
		c0.23-0.14,0.53-0.07,0.67,0.16c0.14,0.23,0.07,0.53-0.16,0.67l-14.06,8.65L583.36,1566.34z"/>
	<path class="st1" d="M553.84,1553.01l-0.24-0.06c-0.23-0.13-0.32-0.43-0.19-0.66c1.78-3.21,2.9-5.04,2.91-5.06
		c0.14-0.23,0.44-0.3,0.67-0.16c0.23,0.14,0.3,0.44,0.16,0.67c-0.01,0.02-1.12,1.83-2.89,5.03
		C554.17,1552.92,554.01,1553.01,553.84,1553.01z"/>
	<path class="st1" d="M520.79,1839.49c-0.27,0-0.48-0.21-0.49-0.48c-0.03-3.34-0.06-7.11-0.09-11.23c0-0.27,0.21-0.49,0.48-0.49h0
		c0.27,0,0.48,0.22,0.48,0.48c0.03,4.12,0.06,7.89,0.09,11.23C521.28,1839.27,521.06,1839.49,520.79,1839.49L520.79,1839.49z
		 M520.64,1817.03c-0.27,0-0.48-0.22-0.49-0.48c-0.02-3.58-0.03-7.33-0.04-11.23c0-0.27,0.22-0.49,0.48-0.49h0
		c0.27,0,0.48,0.22,0.49,0.48c0.01,3.9,0.03,7.65,0.04,11.23C521.12,1816.81,520.91,1817.03,520.64,1817.03L520.64,1817.03z
		 M520.57,1794.58c-0.27,0-0.48-0.22-0.49-0.48l0-6.03l0-5.2c0-0.27,0.22-0.48,0.49-0.48h0c0.27,0,0.49,0.22,0.48,0.49l0,5.2l0,6.03
		C521.06,1794.36,520.84,1794.58,520.57,1794.58L520.57,1794.58z M520.59,1772.11L520.59,1772.11c-0.27,0-0.49-0.22-0.48-0.49
		c0.01-3.7,0.03-7.45,0.05-11.24c0-0.27,0.23-0.48,0.49-0.48c0.27,0,0.48,0.22,0.48,0.49c-0.02,3.78-0.04,7.54-0.05,11.24
		C521.08,1771.89,520.86,1772.11,520.59,1772.11z M520.72,1749.63L520.72,1749.63c-0.27,0-0.49-0.22-0.49-0.49
		c0.03-3.74,0.07-7.49,0.11-11.24c0-0.27,0.22-0.48,0.49-0.48h0.01c0.27,0,0.48,0.22,0.48,0.49c-0.04,3.75-0.08,7.5-0.11,11.24
		C521.2,1749.42,520.98,1749.63,520.72,1749.63z M520.96,1727.16L520.96,1727.16c-0.27,0-0.49-0.22-0.48-0.49
		c0.05-3.76,0.11-7.52,0.18-11.24c0-0.27,0.21-0.51,0.49-0.48c0.27,0,0.48,0.23,0.48,0.49c-0.07,3.72-0.13,7.47-0.18,11.23
		C521.44,1726.95,521.23,1727.16,520.96,1727.16z M521.37,1704.69h-0.01c-0.27-0.01-0.48-0.23-0.47-0.5
		c0.08-3.8,0.18-7.55,0.28-11.24c0.01-0.27,0.23-0.51,0.5-0.47c0.27,0.01,0.48,0.23,0.47,0.5c-0.1,3.69-0.19,7.44-0.28,11.23
		C521.85,1704.48,521.63,1704.69,521.37,1704.69z M521.99,1682.23h-0.02c-0.27-0.01-0.48-0.23-0.47-0.5
		c0.13-3.85,0.27-7.6,0.43-11.23c0.01-0.27,0.25-0.45,0.51-0.46c0.27,0.01,0.48,0.24,0.46,0.51c-0.15,3.63-0.3,7.38-0.43,11.22
		C522.47,1682.02,522.25,1682.23,521.99,1682.23z M522.96,1659.78l-0.03,0c-0.27-0.01-0.47-0.24-0.46-0.51
		c0.22-3.99,0.45-7.77,0.69-11.22c0.02-0.27,0.25-0.47,0.52-0.45c0.27,0.02,0.47,0.25,0.45,0.52c-0.24,3.45-0.48,7.22-0.69,11.21
		C523.43,1659.58,523.22,1659.78,522.96,1659.78z M524.6,1637.36l-0.05,0c-0.27-0.03-0.46-0.26-0.43-0.53
		c0.44-4.43,0.93-8.2,1.45-11.18c0.05-0.26,0.3-0.44,0.56-0.4c0.26,0.05,0.44,0.3,0.4,0.56c-0.51,2.97-1,6.71-1.44,11.11
		C525.05,1637.17,524.84,1637.36,524.6,1637.36z M528.47,1615.25l-0.12-0.02c-0.26-0.07-0.42-0.33-0.35-0.59
		c0.9-3.53,1.94-7.17,3.09-10.82c0.08-0.26,0.35-0.4,0.61-0.32c0.26,0.08,0.4,0.35,0.32,0.61c-1.14,3.64-2.18,7.26-3.07,10.77
		C528.88,1615.1,528.69,1615.25,528.47,1615.25z M535.17,1593.82l-0.17-0.03c-0.25-0.09-0.38-0.37-0.29-0.62
		c1.26-3.45,2.63-6.97,4.08-10.48c0.1-0.25,0.39-0.37,0.63-0.26c0.25,0.1,0.37,0.39,0.26,0.63c-1.44,3.5-2.81,7.01-4.07,10.44
		C535.55,1593.7,535.36,1593.82,535.17,1593.82z M543.73,1573.06l-0.2-0.04c-0.24-0.11-0.35-0.4-0.24-0.64
		c1.55-3.39,3.19-6.8,4.87-10.14c0.12-0.24,0.41-0.34,0.65-0.21c0.24,0.12,0.34,0.41,0.22,0.65c-1.68,3.33-3.31,6.73-4.86,10.11
		C544.09,1572.96,543.91,1573.06,543.73,1573.06z"/>
	<path class="st1" d="M520.96,1856.38c-0.26,0-0.48-0.21-0.48-0.48c0,0-0.03-2.07-0.07-5.82c0-0.27,0.21-0.49,0.48-0.49
		c0.26,0.04,0.49,0.21,0.49,0.48c0.04,3.75,0.07,5.82,0.07,5.82C521.45,1856.16,521.24,1856.38,520.96,1856.38L520.96,1856.38z"/>
	<path class="st1" d="M613.59,1437.2c-0.12,0-0.25-0.05-0.34-0.14c-0.19-0.19-0.19-0.5-0.01-0.69c0.26-0.26,6.32-6.33,13.98-6.33
		h0.1c0.27,0,0.48,0.22,0.48,0.49c0,0.27-0.22,0.5-0.49,0.48h-0.09c-7.25,0-13.23,5.98-13.29,6.04
		C613.84,1437.15,613.71,1437.2,613.59,1437.2z"/>
	<path class="st1" d="M614.37,1441.62c-0.12,0-0.25-0.05-0.34-0.14c-0.19-0.19-0.19-0.5-0.01-0.69c0.26-0.26,6.32-6.33,13.98-6.33
		h0.1c0.27,0,0.48,0.22,0.48,0.49c0,0.27-0.22,0.48-0.49,0.48h-0.09c-7.25,0-13.23,5.98-13.29,6.04
		C614.63,1441.57,614.5,1441.62,614.37,1441.62z"/>
	<path class="st8" d="M633.34,1393.83c-0.75,3.46-4.16,5.67-7.62,4.92c-3.46-0.75-5.67-4.16-4.92-7.62
		c0.75-3.46,4.16-5.67,7.62-4.92C631.88,1386.95,634.08,1390.37,633.34,1393.83z"/>
	<path class="st9" d="M625.77,1396.25c-1.32-0.28-1.98-1.46-2.06-2.51c-0.09-1.24,0.55-2.29,1.62-2.68
		c1.53-0.55,2.66,0.21,3.24,0.77c-0.13-0.73-0.43-1.3-0.91-1.72c-1.08-0.94-2.71-0.77-2.72-0.77c-0.11,0.01-0.21-0.07-0.23-0.18
		c-0.01-0.11,0.07-0.21,0.18-0.23c0.07-0.01,1.82-0.19,3.04,0.87c0.7,0.61,1.08,1.5,1.12,2.65l0.02,0.74l-0.4-0.62
		c-0.05-0.08-1.22-1.83-3.19-1.12c-1.09,0.39-1.41,1.46-1.35,2.26c0.06,0.84,0.56,1.9,1.77,2.15c0.11,0.02,0.18,0.13,0.16,0.24
		c-0.02,0.11-0.13,0.18-0.24,0.16L625.77,1396.25z"/>
	<path class="st7" d="M665.34,1371.58c0,0,7.34,12.47-1.66,41.41v-30.59L665.34,1371.58z"/>
	<path class="st5" d="M737.86,1554.64v19.17l5.34-2.24c0,0-0.81-10.1-0.81-10.31C742.38,1561.04,737.86,1554.64,737.86,1554.64z"/>
	<path class="st5" d="M739.79,1871c-1.36,0-2.58-0.96-2.85-2.35c-2.33-11.89,0.18-41.63,1.4-54.17
		c-5.39,3.87-14.39,12.72-19.61,30.98c-0.44,1.55-2.05,2.44-3.6,2c-1.55-0.44-2.44-2.05-2-3.6c8.65-30.26,26.92-37.18,27.69-37.46
		l4.4-1.59l-0.51,4.65c-0.05,0.44-4.81,44.01-2.05,58.07c0.31,1.58-0.72,3.11-2.3,3.42C740.17,1870.98,739.98,1871,739.79,1871z"/>
	<path class="st5" d="M773.73,1822.11c-1.08,0-2.11-0.6-2.62-1.64c-10.5-21.51-23.82-16.72-23.95-16.67
		c-1.5,0.58-3.19-0.18-3.76-1.68c-0.57-1.5,0.18-3.19,1.68-3.76c0.18-0.07,18.45-6.68,31.26,19.56c0.71,1.44,0.11,3.19-1.34,3.89
		C774.6,1822.02,774.16,1822.11,773.73,1822.11z"/>
	<path class="st5" d="M763.38,1844.26c-1.24,0-2.38-0.79-2.77-2.03c-5.19-16.4-16.52-28.99-16.63-29.11
		c-1.08-1.19-0.99-3.03,0.19-4.11c1.19-1.08,3.03-1,4.11,0.19c0.5,0.55,12.28,13.62,17.88,31.28c0.49,1.53-0.36,3.17-1.9,3.65
		C763.96,1844.21,763.67,1844.26,763.38,1844.26z"/>
	<path class="st1" d="M740.04,1911.65c-8.52,0-16.14-1.36-22.55-3.19c-17.31-4.95-28.99-14.03-32.2-16.72H214.91
		c-1.61,0-2.91-1.3-2.91-2.91s1.3-2.91,2.91-2.91H687.5l0.83,0.76c0.12,0.11,12.18,10.93,30.99,16.25
		c25.03,7.08,49.64,1.56,73.12-16.41l0.78-0.6H2536.4c1.61,0,2.91,1.3,2.91,2.91s-1.3,2.91-2.91,2.91H795.18
		C775.02,1906.92,755.96,1911.65,740.04,1911.65z"/>
	<path class="st27" d="M905.27,1830.4v-18.58c0-0.8-0.65-1.45-1.46-1.45H894c-0.8,0-1.46,0.65-1.46,1.45v18.58h-24.8v38.81
		c0,6.13,1.74,11.85,4.75,16.71h53.34c2.69-4.55,4.24-9.85,4.24-15.52v-40H905.27L905.27,1830.4z"/>
	<path class="st28" d="M930.08,1830.4h-24.8h-6.36v55.52h26.93c2.69-4.55,4.24-9.85,4.24-15.52V1830.4L930.08,1830.4z"/>
	<path class="st1" d="M867.75,1863.36c-0.27,0-0.49-0.22-0.49-0.49v-32.96h62.82c0.27,0,0.48,0.22,0.48,0.49s-0.22,0.49-0.48,0.49
		h-61.84v31.99C868.23,1863.14,868.01,1863.36,867.75,1863.36z"/>
	<path class="st1" d="M892.55,1830.88c-0.27,0-0.49-0.22-0.49-0.49v-11.95c0-0.27,0.22-0.49,0.49-0.49c0.27,0,0.49,0.22,0.49,0.49
		v11.95C893.03,1830.67,892.82,1830.88,892.55,1830.88z"/>
	<path class="st1" d="M925.84,1886.4l-0.25-0.07c-0.23-0.14-0.3-0.44-0.16-0.67c3.78-6.22,4.16-15.2,4.16-15.29l0-25.56
		c0-0.27,0.22-0.49,0.49-0.49c0.27,0,0.48,0.22,0.48,0.49v25.58c-0.01,0.4-0.4,9.34-4.31,15.77
		C926.16,1886.32,926,1886.4,925.84,1886.4z"/>
	<path class="st1" d="M888.88,1877.31c-0.16,0-0.31-0.08-0.41-0.22l-7.33-11.14c-0.15-0.22-0.09-0.52,0.14-0.67
		c0.23-0.15,0.53-0.08,0.67,0.14l7.33,11.14c0.15,0.22,0.08,0.52-0.14,0.67C889.07,1877.29,888.97,1877.31,888.88,1877.31z"/>
	<path class="st1" d="M887.16,1881.94c-0.16,0-0.32-0.08-0.41-0.23l-5.61-8.99c-0.14-0.23-0.07-0.53,0.16-0.67
		c0.23-0.14,0.53-0.07,0.67,0.15l5.61,8.99c0.14,0.23,0.07,0.53-0.15,0.67L887.16,1881.94z"/>
	<path class="st1" d="M354.49,1680.17l-0.22-0.05c-0.24-0.12-0.33-0.42-0.21-0.65c0.19-0.36,4.69-8.91,12.93-11.39
		c0.26-0.08,0.53,0.07,0.6,0.32c0.08,0.26-0.07,0.53-0.32,0.6c-7.85,2.36-12.3,10.82-12.35,10.91
		C354.83,1680.08,354.66,1680.17,354.49,1680.17z"/>
	<g>
		<path class="st23" d="M1863.57,1801.29c0,0,8.25-12.74,26.06-8.29c17.82,4.45,12.43,27.86,11.81,30.45
			c-0.62,2.59-14.34,26.29-37.87,38.39v-60.15V1801.29z"/>
		<path class="st24" d="M1837.52,1793.01c-17.82,4.45-12.43,27.86-11.81,30.45c0.62,2.59,14.34,26.29,37.87,38.39v-60.15v-0.41
			C1863.58,1801.29,1855.33,1788.55,1837.52,1793.01z"/>
	</g>
	<path class="st24" d="M561.88,1320.8c-11.41-1.72-12.19,10.36-12.21,13.33c-2.44-1.7-12.77-8.02-17.93,2.3
		c-6.93,13.86,20.5,27.23,34.01,28.7l0.01,0C572.33,1353.24,577.2,1323.11,561.88,1320.8z"/>
	<path class="st24" d="M634.41,1253.35c-6.61-2.63-8.76,4.51-9.19,6.3c-1.23-1.36-6.54-6.6-11.09-1.13
		c-6.1,7.35,8.5,19.21,16.4,21.98l0,0C636.15,1274.29,643.28,1256.88,634.41,1253.35z"/>
	<path class="st24" d="M560.51,1198.84c-9.23-4.53-13.14,5.52-13.96,8.04c-1.62-2.1-8.69-10.25-15.85-2.87
		c-9.62,9.91,10.1,28.65,21.17,33.53l0.01,0C560.66,1229.22,572.9,1204.93,560.51,1198.84z"/>
	<path class="st29" d="M786.47,477.18c-33.11-1.9-110.73-5.21-178.21,0.49c-27.92,2.35-52.02-19.95-51.39-47.96
		c0.26-11.46,4.37-24.8,15.01-39.91c40.97-58.19,112.19-2.62,111.51,26.92c0,0,14.4-44.48,58.13-36.69
		c43.73,7.79,28.27,72.47,28.27,72.47s14.11-2.98,23.89,3.7C803.28,462.76,798.1,477.85,786.47,477.18z"/>
	<path class="st29" d="M2126.05,1134.46c70.97-2.94,244.04-7.62,347.73,10.75c14.99,2.66,25.46-14.72,15.9-26.56
		c-6.89-8.54-19.34-15.91-41.57-17.52c0,0,23.28-96.05-69.93-107.76c-95.78-12.03-99.93,89.56-99.93,89.56s-54.67-54.86-83.73,10.35
		c0,0-58.59-27.61-86.38,3.86C2095.05,1111.97,2106.29,1135.28,2126.05,1134.46z"/>
	<path class="st29" d="M2080.98,809.35c0,0,210.65,5.74,212.94,0c2.3-5.74-13.77-28.7-40.18-24.11c0,0-8.61-57.97-48.21-55.67
		s-36.73,37.88-36.73,37.88s-39.03-13.2-51.08,18.37C2117.71,785.82,2077.54,782.38,2080.98,809.35z"/>
	<path class="st29" d="M249.48,967.33c0,0,354-7.83,354.87-10.44c0.87-2.61,13.92-64.36-75.67-43.49c0,0,1.74-120.9-94.81-111.33
		c-96.55,9.57-62.62,104.37-62.62,104.37s-68.71-35.66-72.19,30.44C299.06,936.89,241.65,923.84,249.48,967.33z"/>
</g>
</svg>
